<svg xmlns="http://www.w3.org/2000/svg" width="20" height="13.75" viewBox="0 0 20 13.75">
    <defs>
        <style>
            .cls-1{fill:#27bfc0}
        </style>
    </defs>
    <g id="email" transform="translate(0 -80)">
        <g id="Group_1261" transform="translate(13.257 82.535)">
            <g id="Group_1260">
                <path id="Path_1822" d="M339.392 149.338l6.743 4.262v-8.7z" class="cls-1" transform="translate(-339.392 -144.896)"/>
            </g>
        </g>
        <g id="Group_1263" transform="translate(0 82.535)">
            <g id="Group_1262">
                <path id="Path_1823" d="M0 144.9v8.7l6.742-4.262z" class="cls-1" transform="translate(0 -144.896)"/>
            </g>
        </g>
        <g id="Group_1265" transform="translate(.037 80)">
            <g id="Group_1264">
                <path id="Path_1824" d="M19.672 80h-17.5A1.234 1.234 0 0 0 .96 81.064l9.962 6.564 9.962-6.564A1.234 1.234 0 0 0 19.672 80z" class="cls-1" transform="translate(-.96 -80)"/>
            </g>
        </g>
        <g id="Group_1267" transform="translate(.04 87.731)">
            <g id="Group_1266">
                <path id="Path_1825" d="M13.1 277.921l-1.769 1.165a.628.628 0 0 1-.688 0l-1.772-1.166-7.847 4.964a1.233 1.233 0 0 0 1.21 1.055h17.5a1.233 1.233 0 0 0 1.21-1.055z" class="cls-1" transform="translate(-1.024 -277.92)"/>
            </g>
        </g>
    </g>
</svg>
