<svg xmlns="http://www.w3.org/2000/svg" id="lamp" width="20" height="20" viewBox="0 0 20 20">
    <defs>
        <style>
            .cls-1{fill:#27bfc0}
        </style>
    </defs>
    <path id="Path_1840" d="M11.875 2.881a.625.625 0 0 1-.625-.625V.625a.625.625 0 0 1 1.25 0v1.631a.625.625 0 0 1-.625.625z" class="cls-1" transform="translate(-1.875)"/>
    <path id="Path_1841" d="M18.446 5.7A.625.625 0 0 1 18 4.631l1.153-1.153a.625.625 0 0 1 .884.884l-1.148 1.153a.627.627 0 0 1-.443.185z" class="cls-1" transform="translate(-2.97 -.549)"/>
    <path id="Path_1842" d="M22.8 12.5h-1.632a.625.625 0 0 1 0-1.25H22.8a.625.625 0 0 1 0 1.25z" class="cls-1" transform="translate(-3.424 -1.875)"/>
    <path id="Path_1843" d="M19.6 20.224a.62.62 0 0 1-.442-.183L18 18.888a.625.625 0 0 1 .889-.888l1.153 1.153a.625.625 0 0 1-.442 1.067z" class="cls-1" transform="translate(-2.97 -2.97)"/>
    <path id="Path_1844" d="M3.92 20.224a.625.625 0 0 1-.442-1.067L4.632 18a.625.625 0 0 1 .884.884l-1.153 1.157a.623.623 0 0 1-.443.183z" class="cls-1" transform="translate(-.549 -2.97)"/>
    <path id="Path_1845" d="M2.256 12.5H.625a.625.625 0 0 1 0-1.25h1.631a.625.625 0 0 1 0 1.25z" class="cls-1" transform="translate(0 -1.875)"/>
    <path id="Path_1846" d="M5.073 5.7a.62.62 0 0 1-.442-.183L3.478 4.362a.625.625 0 0 1 .884-.884l1.154 1.153A.625.625 0 0 1 5.073 5.7z" class="cls-1" transform="translate(-.549 -.549)"/>
    <path id="Path_1847" d="M14 21v1.042a1.465 1.465 0 0 1-1.458 1.458h-2.084A1.519 1.519 0 0 1 9 21.8V21z" class="cls-1" transform="translate(-1.5 -3.5)"/>
    <path id="Path_1848" d="M14.508 6.3a5.834 5.834 0 1 0-7.183 9.192 2.516 2.516 0 0 1 .95 1.592v.008a.142.142 0 0 1 .058-.008h5a.075.075 0 0 1 .042.008v-.008a2.78 2.78 0 0 1 1.067-1.667 5.837 5.837 0 0 0 .066-9.117zm-.55 4.95a.63.63 0 0 1-.625-.625 2.29 2.29 0 0 0-2.292-2.292.625.625 0 1 1 0-1.25 3.549 3.549 0 0 1 3.542 3.542.63.63 0 0 1-.625.625z" class="cls-1" transform="translate(-.833 -.834)"/>
    <path id="Path_1849" d="M8.93 19.5h.058a.142.142 0 0 0-.058.008z" class="cls-1" transform="translate(-1.488 -3.25)"/>
    <path id="Path_1850" d="M15.042 19.5v.008A.075.075 0 0 0 15 19.5z" class="cls-1" transform="translate(-2.5 -3.25)"/>
</svg>
