<svg xmlns="http://www.w3.org/2000/svg" id="meeting" width="20" height="20" viewBox="0 0 20 20">
    <defs>
        <style>
            .cls-1{fill:#27bfc0}
        </style>
    </defs>
    <path id="Path_1828" d="M3.75 5.375v-3.75A2.219 2.219 0 0 1 3.833 1H1.458A1.465 1.465 0 0 0 0 2.458v3.75a1.465 1.465 0 0 0 1.458 1.459h.308l1.067 1.416a.643.643 0 0 0 .475.25h.025a.593.593 0 0 0 .467-.216l1.25-1.425a2.738 2.738 0 0 1-1.3-2.317z" class="cls-1" transform="translate(0 -.167)"/>
    <path id="Path_1829" d="M21.532 1h-2.375a2.219 2.219 0 0 1 .083.625v3.75a2.738 2.738 0 0 1-1.3 2.317l1.25 1.425a.593.593 0 0 0 .467.217h.025a.643.643 0 0 0 .475-.25l1.058-1.417h.317a1.465 1.465 0 0 0 1.458-1.459v-3.75A1.465 1.465 0 0 0 21.532 1z" class="cls-1" transform="translate(-2.99 -.167)"/>
    <path id="Path_1830" d="M11 8.333h-.023a.627.627 0 0 1-.477-.25L9.438 6.667h-1.98A1.46 1.46 0 0 1 6 5.208v-3.75A1.46 1.46 0 0 1 7.458 0h7.083A1.46 1.46 0 0 1 16 1.458v3.75a1.46 1.46 0 0 1-1.458 1.458h-1.8L11.47 8.12a.623.623 0 0 1-.47.213z" class="cls-1" transform="translate(-1)"/>
    <circle id="Ellipse_393" cx="1.667" cy="1.667" r="1.667" class="cls-1" transform="translate(1.667 10.833)"/>
    <path id="Path_1831" d="M5.558 18.333a3.492 3.492 0 0 0-1.392 2.792v.208H.625A.63.63 0 0 1 0 20.708v-.417A2.29 2.29 0 0 1 2.292 18h2.083a2.277 2.277 0 0 1 1.183.333z" class="cls-1" transform="translate(0 -3)"/>
    <circle id="Ellipse_394" cx="1.667" cy="1.667" r="1.667" class="cls-1" transform="translate(15 10.833)"/>
    <path id="Path_1832" d="M22.888 20.292v.417a.63.63 0 0 1-.625.625h-3.541v-.208a3.492 3.492 0 0 0-1.392-2.792A2.277 2.277 0 0 1 18.513 18H20.6a2.29 2.29 0 0 1 2.288 2.292z" class="cls-1" transform="translate(-2.888 -3)"/>
    <circle id="Ellipse_395" cx="2.5" cy="2.5" r="2.5" class="cls-1" transform="translate(7.5 9.583)"/>
    <path id="Path_1833" d="M13.375 19H8.792A2.294 2.294 0 0 0 6.5 21.292v1.25a.625.625 0 0 0 .625.625h7.917a.625.625 0 0 0 .625-.625v-1.25A2.294 2.294 0 0 0 13.375 19z" class="cls-1" transform="translate(-1.083 -3.167)"/>
</svg>
