<svg xmlns="http://www.w3.org/2000/svg" width="20" height="23.68" viewBox="0 0 20 23.68">
    <defs>
        <style>
            .cls-1{fill:#27bfc0}
        </style>
    </defs>
    <g id="stopwatch_fill" transform="translate(-39.785)">
        <path id="Path_1861" d="M271 298.016a5.133 5.133 0 0 0 4.316-6.17L271 293.417z" class="cls-1" transform="translate(-220.521 -278.348)"/>
        <path id="Path_1862" d="M271 205.606v4.083l3.839-1.4a5.139 5.139 0 0 0-3.839-2.683z" class="cls-1" transform="translate(-220.521 -196.097)"/>
        <path id="Path_1863" d="M145.155 210.685a5.134 5.134 0 0 0 4.433 5.079v-10.158a5.134 5.134 0 0 0-4.433 5.079z" class="cls-1" transform="translate(-100.497 -196.097)"/>
        <path id="Path_1864" d="M69.216 5.524v-.062a2.775 2.775 0 1 0-1.388 0v.061a9.091 9.091 0 1 0 1.388 0zm-2.081-2.749a1.388 1.388 0 1 1 2.081 1.2v-.46a.694.694 0 1 0-1.388 0v.461a1.388 1.388 0 0 1-.694-1.2zM68.522 21.1a6.514 6.514 0 1 1 6.514-6.514 6.522 6.522 0 0 1-6.514 6.514z" class="cls-1" transform="translate(-18.737)"/>
        <path id="Path_1865" d="M388.325 106.957l-1.962-1.962a.694.694 0 0 0-.981 0l-.912.912a10.562 10.562 0 0 1 2.891 3l.964-.964a.693.693 0 0 0 0-.986z" class="cls-1" transform="translate(-328.743 -99.945)"/>
        <path id="Path_1866" d="M43.843 105.906l-.912-.912a.694.694 0 0 0-.981 0l-1.962 1.962a.693.693 0 0 0 0 .981l.964.964a10.562 10.562 0 0 1 2.891-2.995z" class="cls-1" transform="translate(0 -99.945)"/>
    </g>
</svg>
