<svg xmlns="http://www.w3.org/2000/svg" width="20" height="19.954" viewBox="0 0 20 19.954">
    <defs>
        <style>
            .cls-1{fill:#27bfc0}
        </style>
    </defs>
    <g id="url" transform="translate(0 -.588)">
        <path id="Path_1877" d="M152.612 5.6a5.485 5.485 0 0 0 .857 8.277.227.227 0 0 0 .284-.027 9.1 9.1 0 0 0 1.47-1.777.213.213 0 0 0-.084-.3 2.745 2.745 0 0 1-1.052-1.083 2.641 2.641 0 0 1-.224-1.8 5.844 5.844 0 0 1 1.712-2.276l2.505-2.557a2.569 2.569 0 0 1 3.649-.019 2.6 2.6 0 0 1 .037 3.668l-1.517 1.56a.266.266 0 0 0-.06.273 7.181 7.181 0 0 1 .2 3.521.031.031 0 0 0 .052.028l3.23-3.3a5.414 5.414 0 0 0-7.735-7.579l-3.309 3.377-.013.014z" class="cls-1" transform="translate(-145.204)"/>
        <path id="Path_1878" d="M13.445 177.878h.006a5.539 5.539 0 0 0 .48-3.935 5.436 5.436 0 0 0-2.191-3.126.3.3 0 0 0-.332.015 5.256 5.256 0 0 0-1.453 1.754.243.243 0 0 0 .1.317 2.717 2.717 0 0 1 1.041 1.062 2.488 2.488 0 0 1 .263 1.633c-.116.894-1.019 1.714-1.737 2.453-.546.559-1.935 1.975-2.492 2.543a2.594 2.594 0 1 1-3.705-3.63l1.516-1.564a.266.266 0 0 0 .059-.269 7.568 7.568 0 0 1-.217-3.511.031.031 0 0 0-.052-.027L1.55 174.84a5.5 5.5 0 0 0 .039 7.7 5.43 5.43 0 0 0 7.657-.078c.724-.81 3.823-3.68 4.2-4.58z" class="cls-1" transform="translate(0 -163.534)"/>
    </g>
</svg>
