<svg xmlns="http://www.w3.org/2000/svg" width="20" height="20" viewBox="0 0 20 20">
    <defs>
        <style>
            .cls-1{fill:#27bfc0}
        </style>
    </defs>
    <g id="user_-_filled">
        <g id="Group_1305" transform="translate(0 12.857)">
            <g id="Group_1304">
                <path id="Path_1875" d="M16.124 308.25l-3.041-1.014a.715.715 0 0 0-.226-.037H7.143a.714.714 0 0 0-.226.037l-3.041 1.014A5.661 5.661 0 0 0 0 313.628a.714.714 0 0 0 .714.714h18.572a.714.714 0 0 0 .714-.714 5.661 5.661 0 0 0-3.876-5.378z" class="cls-1" transform="translate(0 -307.199)"/>
            </g>
        </g>
        <g id="Group_1307" transform="translate(5.714)">
            <g id="Group_1306">
                <path id="Path_1876" d="M140.819 0a4.286 4.286 0 0 0-4.286 4.286v2.857a4.286 4.286 0 0 0 8.571 0V4.286A4.286 4.286 0 0 0 140.819 0z" class="cls-1" transform="translate(-136.533)"/>
            </g>
        </g>
    </g>
</svg>
