<svg xmlns="http://www.w3.org/2000/svg" width="26.568" height="30" viewBox="0 0 26.568 30">
    <defs>
        <style>
            .cls-1{fill:#27bfc0}
        </style>
    </defs>
    <g id="jpg-file-format-variant" transform="translate(-31.504)">
        <path id="Path_1790" d="M238.379 250.539a3.369 3.369 0 0 0-.821.079v2.593a3.038 3.038 0 0 0 .665.052c1.056 0 1.708-.535 1.708-1.434-.001-.808-.561-1.29-1.552-1.29z" class="cls-1" data-name="Path 1790" transform="translate(-194.831 -236.893)"/>
        <path id="Path_1791" d="M56.391 10.731h-.72V7.255a.507.507 0 0 0-.006-.065.577.577 0 0 0-.14-.381L49.74.2a.584.584 0 0 0-.117-.1L49.58.076a.606.606 0 0 0-.116-.049l-.032-.01A.587.587 0 0 0 49.3 0H35.082a1.178 1.178 0 0 0-1.176 1.177v9.554h-.72a1.681 1.681 0 0 0-1.686 1.681v8.744a1.682 1.682 0 0 0 1.682 1.681h.72v5.986A1.178 1.178 0 0 0 35.082 30h19.412a1.178 1.178 0 0 0 1.176-1.177v-5.985h.72a1.682 1.682 0 0 0 1.681-1.681v-8.745a1.682 1.682 0 0 0-1.68-1.681zM35.082 1.177h13.627V7.2a.588.588 0 0 0 .588.588h5.2v2.947H35.082zm11.985 13.707a2.81 2.81 0 0 1-.808 2.086 4.074 4.074 0 0 1-2.854.925 4.991 4.991 0 0 1-.678-.039V21h-1.968v-8.67a16.2 16.2 0 0 1 2.685-.183 4.216 4.216 0 0 1 2.685.7 2.569 2.569 0 0 1 .938 2.037zm-12.539 6.047l.222-1.6a3.262 3.262 0 0 0 1.016.157c.835 0 1.356-.379 1.356-1.747v-5.529H39.1v5.552c0 2.5-1.2 3.375-3.128 3.375a5.142 5.142 0 0 1-1.444-.208zm19.966 7.574H35.082v-5.667h19.412v5.667zm1.176-7.912a9.829 9.829 0 0 1-2.933.5 4.895 4.895 0 0 1-3.57-1.186 4.247 4.247 0 0 1-1.239-3.193c.013-2.919 2.137-4.588 5.018-4.588a6.046 6.046 0 0 1 2.437.43l-.417 1.59a4.871 4.871 0 0 0-2.047-.378 2.658 2.658 0 0 0-2.905 2.832 2.876 2.876 0 0 0 3.74 2.75v-1.833H52.4v-1.551h3.27v4.627z" class="cls-1" data-name="Path 1791"/>
    </g>
</svg>
