<svg xmlns="http://www.w3.org/2000/svg" width="600" height="447.072" viewBox="0 0 600 447.072">
    <defs>
        <style>
            .cls-1,.cls-3{fill:#ebebeb}.cls-2{fill:#f0f0f0}.cls-3{font-size:8px;font-family:SegoeUI,Segoe UI}.cls-18,.cls-4{fill:#f5f5f5}.cls-5{fill:#e0e0e0}.cls-6{fill:#fafafa}.cls-7{fill:#e6e6e6}.cls-8{fill:#274483}.cls-17{opacity:.2}.cls-18{opacity:.3}.cls-11,.cls-13,.cls-14,.cls-15,.cls-22,.cls-31{fill:#fff}.cls-13{opacity:.5}.cls-14{opacity:.6}.cls-15{opacity:.7}.cls-16{fill:#263238}.cls-19{fill:#e4897b}.cls-21{fill:#eec1bb}.cls-22{opacity:.1}.cls-24,.cls-25{fill:none;stroke:#263238;stroke-linecap:round;stroke-linejoin:round}.cls-24{stroke-width:.686px}.cls-25{stroke-width:.5px}.cls-31{opacity:.75}
        </style>
    </defs>
    <g id="Data_points-rafiki" data-name="Data points-rafiki" transform="translate(0 -55)">
        <g id="freepik--background-complete--inject-106" transform="translate(0 55)">
            <path id="Rectangle_145" d="M0 0H600V0.3H0z" class="cls-1" data-name="Rectangle 145" transform="translate(0 392.88)"/>
            <path id="Rectangle_146" d="M0 0H39.744V0.3H0z" class="cls-1" data-name="Rectangle 146" transform="translate(500.136 412.188)"/>
            <path id="Rectangle_147" d="M0 0H10.428V0.3H0z" class="cls-1" data-name="Rectangle 147" transform="translate(387.036 415.452)"/>
            <path id="Rectangle_148" d="M0 0H23.028V0.3H0z" class="cls-1" data-name="Rectangle 148" transform="translate(475.908 401.052)"/>
            <path id="Rectangle_149" d="M0 0H51.828V0.3H0z" class="cls-1" data-name="Rectangle 149" transform="translate(62.952 403.068)"/>
            <path id="Rectangle_150" d="M0 0H7.596V0.3H0z" class="cls-1" data-name="Rectangle 150" transform="translate(125.472 403.068)"/>
            <path id="Rectangle_151" d="M0 0H112.416V0.3H0z" class="cls-1" data-name="Rectangle 151" transform="translate(157.764 408.132)"/>
            <path id="Path_1528" d="M276.758 394.36H45.05a6.852 6.852 0 0 1-6.84-6.852V61.792A6.852 6.852 0 0 1 45.05 55h231.708a6.852 6.852 0 0 1 6.852 6.852v325.656a6.852 6.852 0 0 1-6.852 6.852zM45.05 55.24a6.552 6.552 0 0 0-6.54 6.552v325.716a6.552 6.552 0 0 0 6.54 6.552h231.708a6.564 6.564 0 0 0 6.552-6.552V61.792a6.564 6.564 0 0 0-6.552-6.552z" class="cls-1" data-name="Path 1528" transform="translate(7.642 -55)"/>
            <path id="Path_1529" d="M493.072 394.36h-231.72a6.864 6.864 0 0 1-6.852-6.852V61.792A6.864 6.864 0 0 1 261.352 55h231.72a6.852 6.852 0 0 1 6.828 6.792v325.716a6.852 6.852 0 0 1-6.828 6.852zM261.352 55.24a6.564 6.564 0 0 0-6.552 6.552v325.716a6.564 6.564 0 0 0 6.552 6.552h231.72a6.564 6.564 0 0 0 6.552-6.552V61.792a6.564 6.564 0 0 0-6.552-6.552z" class="cls-1" data-name="Path 1529" transform="translate(50.9 -55)"/>
            <path id="Path_1530" d="M227.116 137.259a13.6 13.6 0 0 0-17.508-13.032 28.03 28.03 0 0 0 .312-4.176 28.8 28.8 0 0 0-34.1-28.3 25.2 25.2 0 0 0-46.68 12.72h-.42a23.208 23.208 0 0 0 0 46.38h85.2a13.584 13.584 0 0 0 13.196-13.592z" class="cls-2" data-name="Path 1530" transform="translate(21.284 -50.055)"/>
            <path id="Path_1531" d="M295 183.137a6.756 6.756 0 0 0-6.756-6.756 6.984 6.984 0 0 0-1.944.288 13.2 13.2 0 0 0 .156-2.076 14.3 14.3 0 0 0-14.256-14.3 13.765 13.765 0 0 0-2.64.252 12.5 12.5 0 0 0-23.184 6.312h-.2a11.532 11.532 0 0 0 0 23.052h42.312a6.744 6.744 0 0 0 6.512-6.772z" class="cls-2" data-name="Path 1531" transform="translate(47.002 -35.093)"/>
            <path id="Path_1532" d="M415.622 126.471a4.14 4.14 0 0 0-4.14-4.14 4.381 4.381 0 0 0-1.2.18 8.953 8.953 0 0 0 .1-1.272 8.76 8.76 0 0 0-8.76-8.76 9.032 9.032 0 0 0-1.62.144 7.656 7.656 0 0 0-14.2 3.876h-.132a7.068 7.068 0 0 0 0 14.124h25.92a4.152 4.152 0 0 0 4.032-4.152z" class="cls-2" data-name="Path 1532" transform="translate(75.779 -44.211)"/>
            <text id="_101010000111110101010101" class="cls-3" data-name="1.010100001111101e+23" transform="translate(162 68.976)">
                <tspan x="0" y="0">101010000111110101010101</tspan>
            </text>
            <text id="_001101100110001101011111" class="cls-3" data-name="1.101100110001101e+21" transform="translate(171 68.976)">
                <tspan x="0" y="0">001101100110001101011111</tspan>
            </text>
            <text id="_111110101010101011110000" class="cls-3" data-name="1.1111010101010101e+23" transform="translate(180 68.976)">
                <tspan x="0" y="0">111110101010101011110000</tspan>
            </text>
            <text id="_101010000111110101010101-2" class="cls-3" data-name="1.010100001111101e+23" transform="translate(189 68.976)">
                <tspan x="0" y="0">101010000111110101010101</tspan>
            </text>
            <text id="_000101011111000000110101" class="cls-3" data-name="101011111000000100000" transform="translate(198 68.976)">
                <tspan x="0" y="0">000101011111000000110101</tspan>
            </text>
            <text id="_110011001101010101001100" class="cls-3" data-name="1.100110011010101e+23" transform="translate(207 68.976)">
                <tspan x="0" y="0">110011001101010101001100</tspan>
            </text>
            <path id="Rectangle_152" d="M0 0H271.812V172.896H0z" class="cls-4" data-name="Rectangle 152" transform="translate(54.6 220.38)"/>
            <path id="Rectangle_153" d="M0 0H271.812V11.712H0z" class="cls-5" data-name="Rectangle 153" transform="translate(54.6 220.38)"/>
            <path id="Path_1533" d="M269.816 244.118a3.528 3.528 0 1 1-3.528-3.528 3.528 3.528 0 0 1 3.528 3.528z" class="cls-6" data-name="Path 1533" transform="translate(52.552 -17.882)"/>
            <path id="Path_1534" d="M260.046 244.118a3.528 3.528 0 1 1-3.528-3.528 3.528 3.528 0 0 1 3.528 3.528z" class="cls-6" data-name="Path 1534" transform="translate(50.598 -17.882)"/>
            <path id="Path_1535" d="M250.266 244.118a3.528 3.528 0 1 1-3.528-3.528 3.528 3.528 0 0 1 3.528 3.528z" class="cls-6" data-name="Path 1535" transform="translate(48.642 -17.882)"/>
            <path id="Path_1536" d="M91.839 265.956l-1.668-2.328a3.252 3.252 0 0 0-2.6-1.368h-11.8a2.832 2.832 0 0 0-2.4 1.368l-1.4 2.328a2.832 2.832 0 0 1-2.4 1.368h-7.08a2.856 2.856 0 0 0-2.916 3.024l2.28 39.372a3.276 3.276 0 0 0 3.216 3.072h55.764a2.856 2.856 0 0 0 2.856-3.072l-2.28-39.372a3.264 3.264 0 0 0-3.2-3.06H94.443a3.252 3.252 0 0 1-2.604-1.332z" class="cls-5" data-name="Path 1536" transform="translate(11.913 -13.548)"/>
            <path id="Path_1537" d="M122.8 269.6H71.715a4.284 4.284 0 0 0-4.2 3.828l-3.072 34.1a3.456 3.456 0 0 0 3.5 3.828h51.1a4.3 4.3 0 0 0 4.2-3.828l3.072-34.1a3.456 3.456 0 0 0-3.515-3.828z" class="cls-7" data-name="Path 1537" transform="translate(12.885 -12.08)"/>
            <path id="Path_1538" d="M162.705 265.956l-1.62-2.328a3.252 3.252 0 0 0-2.6-1.368h-11.8a2.844 2.844 0 0 0-2.4 1.368l-1.4 2.328a2.832 2.832 0 0 1-2.4 1.368h-7.032a2.856 2.856 0 0 0-2.868 3.06l2.28 39.372a3.276 3.276 0 0 0 3.024 3.072h55.764a2.844 2.844 0 0 0 2.856-3.072l-2.22-39.408a3.288 3.288 0 0 0-3.216-3.06h-23.752a3.252 3.252 0 0 1-2.616-1.332z" class="cls-5" data-name="Path 1538" transform="translate(26.115 -13.548)"/>
            <path id="Path_1539" d="M193.737 269.6h-51.132a4.284 4.284 0 0 0-4.2 3.828l-3.072 34.1a3.456 3.456 0 0 0 3.516 3.828h51.084a4.3 4.3 0 0 0 4.2-3.828l3.072-34.1a3.456 3.456 0 0 0-3.468-3.828z" class="cls-7" data-name="Path 1539" transform="translate(27.063 -12.08)"/>
            <path id="Path_1540" d="M233.614 265.956l-1.68-2.328a3.228 3.228 0 0 0-2.6-1.368h-11.8a2.844 2.844 0 0 0-2.4 1.368l-1.4 2.328a2.832 2.832 0 0 1-2.4 1.368H204.3a2.832 2.832 0 0 0-2.856 3.06l2.268 39.372a3.3 3.3 0 0 0 3.216 3.072h55.668a2.856 2.856 0 0 0 2.868-3.072l-2.28-39.408a3.264 3.264 0 0 0-3.216-3.06h-23.75a3.228 3.228 0 0 1-2.6-1.332z" class="cls-5" data-name="Path 1540" transform="translate(40.286 -13.548)"/>
            <path id="Path_1541" d="M264.579 269.6H213.5a4.3 4.3 0 0 0-4.2 3.828l-3.072 34.1a3.456 3.456 0 0 0 3.516 3.828h51.084a4.3 4.3 0 0 0 4.2-3.828l3.072-34.1a3.456 3.456 0 0 0-3.516-3.828z" class="cls-7" data-name="Path 1541" transform="translate(41.241 -12.08)"/>
            <path id="Path_1542" d="M91.831 326l-1.668-2.328a3.252 3.252 0 0 0-2.6-1.368h-11.8a2.832 2.832 0 0 0-2.4 1.368L71.959 326a2.832 2.832 0 0 1-2.4 1.368h-7.08a2.856 2.856 0 0 0-2.868 3.06l2.28 39.372a3.264 3.264 0 0 0 3.216 3.06h55.764a2.844 2.844 0 0 0 2.856-3.06l-2.28-39.372a3.264 3.264 0 0 0-3.2-3.06H94.435A3.252 3.252 0 0 1 91.831 326z" class="cls-5" data-name="Path 1542" transform="translate(11.921 -1.54)"/>
            <path id="Path_1543" d="M122.8 329.64H71.715a4.284 4.284 0 0 0-4.2 3.828l-3.072 34.1a3.444 3.444 0 0 0 3.5 3.816h51.1a4.284 4.284 0 0 0 4.2-3.816l3.072-34.1a3.456 3.456 0 0 0-3.516-3.828z" class="cls-7" data-name="Path 1543" transform="translate(12.885 -.072)"/>
            <path id="Path_1544" d="M162.705 326l-1.62-2.328a3.252 3.252 0 0 0-2.6-1.368h-11.8a2.844 2.844 0 0 0-2.4 1.368l-1.4 2.328a2.832 2.832 0 0 1-2.4 1.368h-7.032a2.856 2.856 0 0 0-2.868 3.06l2.28 39.372a3.264 3.264 0 0 0 3.216 3.06h55.764a2.832 2.832 0 0 0 2.856-3.06l-2.412-39.372a3.288 3.288 0 0 0-3.216-3.06h-23.752a3.252 3.252 0 0 1-2.616-1.368z" class="cls-5" data-name="Path 1544" transform="translate(26.115 -1.54)"/>
            <path id="Path_1545" d="M193.737 329.64h-51.132a4.284 4.284 0 0 0-4.2 3.828l-3.072 34.1a3.444 3.444 0 0 0 3.516 3.816h51.084a4.284 4.284 0 0 0 4.2-3.816l3.072-34.1a3.456 3.456 0 0 0-3.468-3.828z" class="cls-7" data-name="Path 1545" transform="translate(27.063 -.072)"/>
            <path id="Path_1546" d="M233.614 326l-1.68-2.328a3.228 3.228 0 0 0-2.6-1.368h-11.8a2.844 2.844 0 0 0-2.4 1.368L213.73 326a2.832 2.832 0 0 1-2.4 1.368h-7.03a2.832 2.832 0 0 0-2.856 3.06l2.266 39.372a3.288 3.288 0 0 0 3.216 3.06h55.668a2.856 2.856 0 0 0 2.868-3.06l-2.28-39.372a3.264 3.264 0 0 0-3.216-3.06h-23.748a3.228 3.228 0 0 1-2.604-1.368z" class="cls-5" data-name="Path 1546" transform="translate(40.286 -1.54)"/>
            <path id="Path_1547" d="M264.579 329.64H213.5a4.3 4.3 0 0 0-4.2 3.828l-3.072 34.1a3.444 3.444 0 0 0 3.516 3.816h51.084a4.284 4.284 0 0 0 4.2-3.816l3.072-34.1a3.456 3.456 0 0 0-3.516-3.828z" class="cls-7" data-name="Path 1547" transform="translate(41.241 -.072)"/>
            <rect id="Rectangle_154" width="93.996" height="27.6" class="cls-7" data-name="Rectangle 154" rx="2.67" transform="translate(449.232 364.992)"/>
            <path id="Path_1548" d="M446.932 371.626a5.8 5.8 0 1 1-5.8-5.8 5.8 5.8 0 0 1 5.8 5.8z" class="cls-4" data-name="Path 1548" transform="translate(87.068 7.166)"/>
            <path id="Path_1549" d="M443.574 371.152a2.952 2.952 0 1 1-2.952-2.952 2.952 2.952 0 0 1 2.952 2.952z" class="cls-7" data-name="Path 1549" transform="translate(87.534 7.64)"/>
            <path id="Rectangle_155" d="M0 0H6.6V6.6H0z" class="cls-4" data-name="Rectangle 155" transform="translate(509.124 375.492)"/>
            <rect id="Rectangle_156" width="93.996" height="27.6" class="cls-7" data-name="Rectangle 156" rx="2.67" transform="translate(449.232 336.192)"/>
            <path id="Path_1550" d="M446.932 347.626a5.8 5.8 0 1 1-5.8-5.8 5.8 5.8 0 0 1 5.8 5.8z" class="cls-4" data-name="Path 1550" transform="translate(87.068 2.366)"/>
            <path id="Path_1551" d="M443.574 347.152a2.952 2.952 0 1 1-2.952-2.952 2.952 2.952 0 0 1 2.952 2.952z" class="cls-7" data-name="Path 1551" transform="translate(87.534 2.84)"/>
            <path id="Rectangle_157" d="M0 0H6.6V6.6H0z" class="cls-4" data-name="Rectangle 157" transform="translate(509.124 346.692)"/>
            <rect id="Rectangle_158" width="93.996" height="27.6" class="cls-7" data-name="Rectangle 158" rx="2.67" transform="translate(449.232 307.392)"/>
            <path id="Path_1552" d="M446.932 323.626a5.8 5.8 0 1 1-5.8-5.8 5.8 5.8 0 0 1 5.8 5.8z" class="cls-4" data-name="Path 1552" transform="translate(87.068 -2.434)"/>
            <path id="Path_1553" d="M443.574 323.152a2.952 2.952 0 1 1-2.952-2.952 2.952 2.952 0 0 1 2.952 2.952z" class="cls-7" data-name="Path 1553" transform="translate(87.534 -1.96)"/>
            <path id="Rectangle_159" d="M0 0H6.6V6.6H0z" class="cls-4" data-name="Rectangle 159" transform="translate(509.124 317.892)"/>
            <rect id="Rectangle_160" width="93.996" height="27.6" class="cls-7" data-name="Rectangle 160" rx="2.67" transform="translate(449.232 278.592)"/>
            <path id="Path_1554" d="M446.932 299.626a5.8 5.8 0 1 1-5.8-5.8 5.8 5.8 0 0 1 5.8 5.8z" class="cls-4" data-name="Path 1554" transform="translate(87.068 -7.234)"/>
            <path id="Path_1555" d="M443.574 299.152a2.952 2.952 0 1 1-2.952-2.952 2.952 2.952 0 0 1 2.952 2.952z" class="cls-7" data-name="Path 1555" transform="translate(87.534 -6.76)"/>
            <path id="Rectangle_161" d="M0 0H6.6V6.6H0z" class="cls-4" data-name="Rectangle 161" transform="translate(509.124 289.092)"/>
            <rect id="Rectangle_162" width="93.996" height="27.6" class="cls-7" data-name="Rectangle 162" rx="2.67" transform="translate(449.232 249.792)"/>
            <path id="Path_1556" d="M446.932 275.626a5.8 5.8 0 1 1-5.8-5.8 5.8 5.8 0 0 1 5.8 5.8z" class="cls-4" data-name="Path 1556" transform="translate(87.068 -12.034)"/>
            <path id="Path_1557" d="M443.574 275.152a2.952 2.952 0 1 1-2.952-2.952 2.952 2.952 0 0 1 2.952 2.952z" class="cls-7" data-name="Path 1557" transform="translate(87.534 -11.56)"/>
            <path id="Rectangle_163" d="M0 0H6.6V6.6H0z" class="cls-4" data-name="Rectangle 163" transform="translate(509.124 260.292)"/>
            <rect id="Rectangle_164" width="93.996" height="27.6" class="cls-7" data-name="Rectangle 164" rx="2.67" transform="translate(449.232 220.992)"/>
            <path id="Path_1558" d="M446.932 251.626a5.8 5.8 0 1 1-5.8-5.8 5.8 5.8 0 0 1 5.8 5.8z" class="cls-4" data-name="Path 1558" transform="translate(87.068 -16.834)"/>
            <path id="Path_1559" d="M443.574 251.152a2.952 2.952 0 1 1-2.952-2.952 2.952 2.952 0 0 1 2.952 2.952z" class="cls-7" data-name="Path 1559" transform="translate(87.534 -16.36)"/>
            <path id="Rectangle_165" d="M0 0H6.6V6.6H0z" class="cls-4" data-name="Rectangle 165" transform="translate(509.124 231.492)"/>
        </g>
        <g id="freepik--Shadow--inject-106" transform="translate(67.332 474.904)">
            <ellipse id="freepik--path--inject-106" cx="232.668" cy="13.584" class="cls-4" rx="232.668" ry="13.584"/>
        </g>
        <g id="freepik--Plant--inject-106" transform="translate(77.496 375.385)">
            <path id="Path_1560" d="M111 364.218c-1.872-3.084-4.944-.408-4.944-.408.444-5.892-4.98-9.912-4.98-9.912s6.3 0 7.2-6-2.2-3.2-5.076-3.252-5.892 8.4-2.1 13.116 2.784 12.828-6 20.6a17.124 17.124 0 0 0-4.584 7.2c.66-7.14 1.032-17.208-1.068-23.928-3.6-11.412 3.24-14.484 5.208-20.2s-5.208-10.536-5.208-10.536 6.744-3.072 3.456-6.588-10.152-3.084-10.152 1.5 4.62 6.348 4.62 6.348 5.268 5.484 5.268 8.34-5.268 9-5.268 9 2.4-5.256-2.4-5.484-6.36 6.144-4.392 9 5.268.432 5.268.432a55.524 55.524 0 0 0 1.512 9.876c.492 1.644.264 8.088-.156 14.784a16.6 16.6 0 0 0-4.272-6.348c-8.784-7.776-9.792-15.864-6-20.592s.792-13.2-2.088-13.128-6-2.748-5.076 3.264 7.2 6 7.2 6-5.412 4.032-4.98 9.912c0 0-3.072-2.664-4.932.408-3.336 5.484 4.392 8.892 5.688 6.192 0 0 16.368 11.58 12.42 28.272l.912 1.356c-.108 1.344-.192 2.148-.192 2.148l1.284-.552 1.464 2.16a48.251 48.251 0 0 0 .372 7.2l3.912-5.784c-3.972-16.62 12.4-28.224 12.4-28.224 1.294 2.71 9.022-.69 5.684-6.172z" class="cls-8" data-name="Path 1560" transform="translate(-64.25 -321.988)"/>
            <path id="Path_1561" fill="#274483" d="M111 364.218c-1.872-3.084-4.944-.408-4.944-.408.444-5.892-4.98-9.912-4.98-9.912s6.3 0 7.2-6-2.2-3.2-5.076-3.252-5.892 8.4-2.1 13.116 2.784 12.828-6 20.6a17.124 17.124 0 0 0-4.584 7.2c.66-7.14 1.032-17.208-1.068-23.928-3.6-11.412 3.24-14.484 5.208-20.2s-5.208-10.536-5.208-10.536 6.744-3.072 3.456-6.588-10.152-3.084-10.152 1.5 4.62 6.348 4.62 6.348 5.268 5.484 5.268 8.34-5.268 9-5.268 9 2.4-5.256-2.4-5.484-6.36 6.144-4.392 9 5.268.432 5.268.432a55.524 55.524 0 0 0 1.512 9.876c.492 1.644.264 8.088-.156 14.784a16.6 16.6 0 0 0-4.272-6.348c-8.784-7.776-9.792-15.864-6-20.592s.792-13.2-2.088-13.128-6-2.748-5.076 3.264 7.2 6 7.2 6-5.412 4.032-4.98 9.912c0 0-3.072-2.664-4.932.408-3.336 5.484 4.392 8.892 5.688 6.192 0 0 16.368 11.58 12.42 28.272l.912 1.356c-.108 1.344-.192 2.148-.192 2.148l1.284-.552 1.464 2.16a48.251 48.251 0 0 0 .372 7.2l3.912-5.784c-3.972-16.62 12.4-28.224 12.4-28.224 1.294 2.71 9.022-.69 5.684-6.172z" data-name="Path 1561" opacity="0.2" transform="translate(-64.25 -321.988)"/>
            <g id="Group_1121" data-name="Group 1121" opacity="0.3" transform="translate(1.979)">
                <path id="Path_1562" d="M111 364.218c-1.872-3.084-4.944-.408-4.944-.408.444-5.892-4.98-9.912-4.98-9.912s6.3 0 7.2-6-2.2-3.2-5.076-3.252-5.892 8.4-2.1 13.116 2.784 12.828-6 20.6a17.124 17.124 0 0 0-4.584 7.2c.66-7.14 1.032-17.208-1.068-23.928-3.6-11.412 3.24-14.484 5.208-20.2s-5.208-10.536-5.208-10.536 6.744-3.072 3.456-6.588-10.152-3.084-10.152 1.5 4.62 6.348 4.62 6.348 5.268 5.484 5.268 8.34-5.268 9-5.268 9 2.4-5.256-2.4-5.484-6.36 6.144-4.392 9 5.268.432 5.268.432a55.524 55.524 0 0 0 1.512 9.876c.492 1.644.264 8.088-.156 14.784a16.6 16.6 0 0 0-4.272-6.348c-8.784-7.776-9.792-15.864-6-20.592s.792-13.2-2.088-13.128-6-2.748-5.076 3.264 7.2 6 7.2 6-5.412 4.032-4.98 9.912c0 0-3.072-2.664-4.932.408-3.336 5.484 4.392 8.892 5.688 6.192 0 0 16.368 11.58 12.42 28.272l.912 1.356c-.108 1.344-.192 2.148-.192 2.148l1.284-.552 1.464 2.16a48.251 48.251 0 0 0 .372 7.2l3.912-5.784c-3.972-16.62 12.4-28.224 12.4-28.224 1.294 2.71 9.022-.69 5.684-6.172z" class="cls-11" data-name="Path 1562" transform="translate(-66.229 -321.988)"/>
                <path id="Path_1563" fill="#fff" d="M111 364.218c-1.872-3.084-4.944-.408-4.944-.408.444-5.892-4.98-9.912-4.98-9.912s6.3 0 7.2-6-2.2-3.2-5.076-3.252-5.892 8.4-2.1 13.116 2.784 12.828-6 20.6a17.124 17.124 0 0 0-4.584 7.2c.66-7.14 1.032-17.208-1.068-23.928-3.6-11.412 3.24-14.484 5.208-20.2s-5.208-10.536-5.208-10.536 6.744-3.072 3.456-6.588-10.152-3.084-10.152 1.5 4.62 6.348 4.62 6.348 5.268 5.484 5.268 8.34-5.268 9-5.268 9 2.4-5.256-2.4-5.484-6.36 6.144-4.392 9 5.268.432 5.268.432a55.524 55.524 0 0 0 1.512 9.876c.492 1.644.264 8.088-.156 14.784a16.6 16.6 0 0 0-4.272-6.348c-8.784-7.776-9.792-15.864-6-20.592s.792-13.2-2.088-13.128-6-2.748-5.076 3.264 7.2 6 7.2 6-5.412 4.032-4.98 9.912c0 0-3.072-2.664-4.932.408-3.336 5.484 4.392 8.892 5.688 6.192 0 0 16.368 11.58 12.42 28.272l.912 1.356c-.108 1.344-.192 2.148-.192 2.148l1.284-.552 1.464 2.16a48.251 48.251 0 0 0 .372 7.2l3.912-5.784c-3.972-16.62 12.4-28.224 12.4-28.224 1.294 2.71 9.022-.69 5.684-6.172z" data-name="Path 1563" opacity="0.2" transform="translate(-66.229 -321.988)"/>
            </g>
            <path id="Path_1564" d="M107.794 423.324h-37.5L66.25 382.26h45.588z" class="cls-8" data-name="Path 1564" transform="translate(-64.246 -309.933)"/>
            <path id="Path_1565" d="M107.794 423.324h-37.5L66.25 382.26h45.588z" class="cls-13" data-name="Path 1565" transform="translate(-64.246 -309.933)"/>
            <path id="Rectangle_166" d="M0 0H49.596V9.06H0z" class="cls-8" data-name="Rectangle 166" transform="translate(0 67.791)"/>
            <path id="Rectangle_167" d="M0 0H49.596V9.06H0z" class="cls-14" data-name="Rectangle 167" transform="translate(0 67.791)"/>
        </g>
        <g id="freepik--Folder--inject-106" transform="translate(433.216 438.22)">
            <path id="Path_1566" d="M393.241 378.034l-1.68-2.328a3.216 3.216 0 0 0-2.6-1.356h-11.788a2.844 2.844 0 0 0-2.46 1.356l-1.4 2.328a2.82 2.82 0 0 1-2.4 1.368h-7.032a2.844 2.844 0 0 0-2.856 3.06l2.28 39.372a3.276 3.276 0 0 0 3.2 3.072H422.2a2.856 2.856 0 0 0 2.868-3.072l-2.28-39.372a3.264 3.264 0 0 0-3.216-3.06H395.8a3.228 3.228 0 0 1-2.559-1.368z" class="cls-8" data-name="Path 1566" transform="translate(-361.013 -374.35)"/>
            <path id="Path_1567" d="M393.241 378.034l-1.68-2.328a3.216 3.216 0 0 0-2.6-1.356h-11.788a2.844 2.844 0 0 0-2.46 1.356l-1.4 2.328a2.82 2.82 0 0 1-2.4 1.368h-7.032a2.844 2.844 0 0 0-2.856 3.06l2.28 39.372a3.276 3.276 0 0 0 3.2 3.072H422.2a2.856 2.856 0 0 0 2.868-3.072l-2.28-39.372a3.264 3.264 0 0 0-3.216-3.06H395.8a3.228 3.228 0 0 1-2.559-1.368z" class="cls-13" data-name="Path 1567" transform="translate(-361.013 -374.35)"/>
            <path id="Path_1568" d="M424.2 381.69h-51.085a4.284 4.284 0 0 0-4.2 3.816l-3.072 34.1a3.456 3.456 0 0 0 3.516 3.828h51.084a4.284 4.284 0 0 0 4.2-3.828l3.072-34.1a3.444 3.444 0 0 0-3.516-3.816z" class="cls-8" data-name="Path 1568" transform="translate(-360.051 -372.882)"/>
            <path id="Path_1569" d="M424.2 381.69h-51.085a4.284 4.284 0 0 0-4.2 3.816l-3.072 34.1a3.456 3.456 0 0 0 3.516 3.828h51.084a4.284 4.284 0 0 0 4.2-3.828l3.072-34.1a3.444 3.444 0 0 0-3.516-3.816z" class="cls-15" data-name="Path 1569" transform="translate(-360.051 -372.882)"/>
        </g>
        <g id="freepik--data-storage--inject-106" transform="translate(273.96 418.3)">
            <path id="Rectangle_168" d="M0 0H72.912V50.916H0z" class="cls-16" data-name="Rectangle 168" transform="translate(2.184 10.704)"/>
            <rect id="Rectangle_169" width="58.08" height="17.052" class="cls-8" data-name="Rectangle 169" rx="1.65" transform="translate(19.788 53.412)"/>
            <rect id="Rectangle_170" width="58.08" height="17.052" class="cls-17" data-name="Rectangle 170" rx="1.65" transform="translate(19.788 53.412)"/>
            <rect id="Rectangle_171" width="58.08" height="17.052" class="cls-8" data-name="Rectangle 171" rx="1.65" transform="translate(0 53.412)"/>
            <path id="Path_1570" d="M273.13 409.97a3.6 3.6 0 1 1-3.6-3.6 3.6 3.6 0 0 1 3.6 3.6z" class="cls-18" data-name="Path 1570" transform="translate(-220.774 -348.026)"/>
            <circle id="Ellipse_58" cx="1.824" cy="1.824" r="1.824" class="cls-8" data-name="Ellipse 58" transform="translate(46.956 60.12)"/>
            <path id="Rectangle_172" d="M0 0H4.08V4.08H0z" class="cls-18" data-name="Rectangle 172" transform="translate(37.02 59.904)"/>
            <rect id="Rectangle_173" width="58.08" height="17.052" class="cls-8" data-name="Rectangle 173" rx="1.65" transform="translate(19.788 35.616)"/>
            <rect id="Rectangle_174" width="58.08" height="17.052" class="cls-17" data-name="Rectangle 174" rx="1.65" transform="translate(19.788 35.616)"/>
            <rect id="Rectangle_175" width="58.08" height="17.052" class="cls-8" data-name="Rectangle 175" rx="1.65" transform="translate(0 35.616)"/>
            <path id="Path_1571" d="M273.13 395.13a3.6 3.6 0 1 1-3.6-3.6 3.6 3.6 0 0 1 3.6 3.6z" class="cls-18" data-name="Path 1571" transform="translate(-220.774 -350.994)"/>
            <path id="Path_1572" d="M271.068 394.836a1.824 1.824 0 1 1-1.752-1.836 1.824 1.824 0 0 1 1.752 1.836z" class="cls-8" data-name="Path 1572" transform="translate(-220.476 -350.7)"/>
            <path id="Rectangle_176" d="M0 0H4.08V4.08H0z" class="cls-18" data-name="Rectangle 176" transform="translate(37.02 42.096)"/>
            <rect id="Rectangle_177" width="58.08" height="17.052" class="cls-8" data-name="Rectangle 177" rx="1.65" transform="translate(19.788 17.808)"/>
            <rect id="Rectangle_178" width="58.08" height="17.052" class="cls-17" data-name="Rectangle 178" rx="1.65" transform="translate(19.788 17.808)"/>
            <rect id="Rectangle_179" width="58.08" height="17.052" class="cls-8" data-name="Rectangle 179" rx="1.65" transform="translate(0 17.808)"/>
            <path id="Path_1573" d="M273.13 380.29a3.6 3.6 0 1 1-3.6-3.6 3.6 3.6 0 0 1 3.6 3.6z" class="cls-18" data-name="Path 1573" transform="translate(-220.774 -353.962)"/>
            <path id="Path_1574" d="M271.068 379.994a1.824 1.824 0 1 1-1.812-1.824 1.824 1.824 0 0 1 1.812 1.824z" class="cls-8" data-name="Path 1574" transform="translate(-220.476 -353.666)"/>
            <path id="Rectangle_180" d="M0 0H4.08V4.08H0z" class="cls-18" data-name="Rectangle 180" transform="translate(37.02 24.288)"/>
            <rect id="Rectangle_181" width="58.08" height="17.052" class="cls-8" data-name="Rectangle 181" rx="1.65" transform="translate(19.788)"/>
            <rect id="Rectangle_182" width="58.08" height="17.052" class="cls-17" data-name="Rectangle 182" rx="1.65" transform="translate(19.788)"/>
            <rect id="Rectangle_183" width="58.08" height="17.052" class="cls-8" data-name="Rectangle 183" rx="1.65"/>
            <path id="Path_1575" d="M273.13 365.45a3.6 3.6 0 1 1-3.6-3.6 3.6 3.6 0 0 1 3.6 3.6z" class="cls-18" data-name="Path 1575" transform="translate(-220.774 -356.93)"/>
            <path id="Path_1576" d="M271.068 365.154a1.824 1.824 0 1 1-1.812-1.824 1.824 1.824 0 0 1 1.812 1.824z" class="cls-8" data-name="Path 1576" transform="translate(-220.476 -356.634)"/>
            <path id="Rectangle_184" d="M0 0H4.08V4.08H0z" class="cls-18" data-name="Rectangle 184" transform="translate(37.02 6.48)"/>
            <path id="Rectangle_185" d="M0 0H72.912V23.724H0z" class="cls-16" data-name="Rectangle 185" transform="translate(67.488 37.884)"/>
            <rect id="Rectangle_186" width="58.08" height="17.052" class="cls-8" data-name="Rectangle 186" rx="1.65" transform="translate(85.08 53.412)"/>
            <rect id="Rectangle_187" width="58.08" height="17.052" class="cls-17" data-name="Rectangle 187" rx="1.65" transform="translate(85.08 53.412)"/>
            <rect id="Rectangle_188" width="58.08" height="17.052" class="cls-8" data-name="Rectangle 188" rx="1.65" transform="translate(65.304 53.412)"/>
            <path id="Path_1577" d="M327.54 409.97a3.6 3.6 0 1 1-3.6-3.6 3.6 3.6 0 0 1 3.6 3.6z" class="cls-18" data-name="Path 1577" transform="translate(-209.892 -348.026)"/>
            <path id="Path_1578" d="M325.488 409.674a1.824 1.824 0 1 1-1.824-1.824 1.824 1.824 0 0 1 1.824 1.824z" class="cls-8" data-name="Path 1578" transform="translate(-209.592 -347.73)"/>
            <path id="Rectangle_189" d="M0 0H4.08V4.08H0z" class="cls-18" data-name="Rectangle 189" transform="translate(102.312 59.904)"/>
            <rect id="Rectangle_190" width="58.08" height="17.052" class="cls-8" data-name="Rectangle 190" rx="1.65" transform="translate(85.08 35.616)"/>
            <rect id="Rectangle_191" width="58.08" height="17.052" class="cls-17" data-name="Rectangle 191" rx="1.65" transform="translate(85.08 35.616)"/>
            <rect id="Rectangle_192" width="58.08" height="17.052" class="cls-8" data-name="Rectangle 192" rx="1.65" transform="translate(65.304 35.616)"/>
            <path id="Path_1579" d="M327.54 395.13a3.6 3.6 0 1 1-3.6-3.6 3.6 3.6 0 0 1 3.6 3.6z" class="cls-18" data-name="Path 1579" transform="translate(-209.892 -350.994)"/>
            <path id="Path_1580" d="M325.488 394.834a1.824 1.824 0 1 1-1.824-1.824 1.824 1.824 0 0 1 1.824 1.824z" class="cls-8" data-name="Path 1580" transform="translate(-209.592 -350.698)"/>
            <path id="Rectangle_193" d="M0 0H4.08V4.08H0z" class="cls-18" data-name="Rectangle 193" transform="translate(102.312 42.096)"/>
        </g>
        <g id="freepik--Character--inject-106" transform="translate(102.264 159.969)">
            <path id="Path_1581" d="M171.59 402.674l-7.56 1.344-3.108-10.32-2.832-9.48 8.724-3.048 2.532 11.388z" class="cls-19" data-name="Path 1581" transform="translate(-70.646 -94.735)"/>
            <path id="Path_1582" d="M169.392 392.776l-8.436 1.116-2.856-9.576 8.724-3.1z" class="cls-17" data-name="Path 1582" transform="translate(-70.644 -94.725)"/>
            <path id="Path_1583" d="M128.91 405.7h-7.68l-1.26-10.824-1.14-9.888 9.12-1.512.516 11.76z" class="cls-19" data-name="Path 1583" transform="translate(-78.498 -94.273)"/>
            <path id="Path_1584" d="M128.466 395.332l-8.5-.372-1.14-9.924 9.12-1.536z" class="cls-17" data-name="Path 1584" transform="translate(-78.498 -94.269)"/>
            <path id="Path_1585" d="M139.78 418.3a12.659 12.659 0 0 0-4.1-2.232s-4.464-4.428-6.612-17.76l-5.844-1.524a4.968 4.968 0 0 0-5.316 2.076 2.532 2.532 0 0 0-.372.768 30.873 30.873 0 0 0-.624 4.332c-.588 4.512-.084 14.64-.084 14.64h1.056l.42-9.192c.156-3.12 2.544.54 3.228 3.9s2.136 6.936 8.976 7.1c7.976.16 11.292-.152 9.272-2.108z" class="cls-16" data-name="Path 1585" transform="translate(-78.94 -91.641)"/>
            <path id="Path_1586" d="M182.28 417.552a12.659 12.659 0 0 0-4.1-2.232s-4.464-4.428-6.612-17.76l-5.844-1.536a4.968 4.968 0 0 0-5.324 2.076 2.532 2.532 0 0 0-.372.768 30.876 30.876 0 0 0-.624 4.332c-.588 4.512-.084 14.64-.084 14.64h1.056l.42-9.192c.156-3.12 2.544.54 3.228 3.9s2.136 6.936 8.976 7.1c7.984.172 11.3-.14 9.28-2.096z" class="cls-16" data-name="Path 1586" transform="translate(-70.44 -91.793)"/>
            <path id="Path_1587" d="M180.9 416.4l-12.444 2.2c-12.552-31.284-21.48-57.4-27.792-79.068-3.4-11.7-6.228-22.092-8.268-31.32l.384 34.056v76.716h-12.26c-30.732-146.4-8.952-179.76-8.952-179.76l36.816-6.132a166.534 166.534 0 0 1 3.084 20.664l1.656 12.2 14.4 74.244z" class="cls-8" data-name="Path 1587" transform="translate(-81.448 -124.351)"/>
            <g id="Group_1122" data-name="Group 1122" opacity="0.2" transform="translate(22.632 108.739)">
                <path id="Path_1588" d="M180.9 416.4l-12.444 2.2c-12.552-31.284-21.48-57.4-27.792-79.068-3.4-11.7-6.228-22.092-8.268-31.32l.384 34.056v76.716h-12.26c-30.732-146.4-8.952-179.76-8.952-179.76l36.816-6.132a166.534 166.534 0 0 1 3.084 20.664l1.656 12.2 14.4 74.244z" data-name="Path 1588" transform="translate(-104.08 -233.09)"/>
            </g>
            <path id="Path_1589" d="M177.25 206.313l12.408-12.264s.432-3.288 1.632-4.2 9.72-4.008 10.8-3.312 2.5 7.56 1.044 8.82-9.2 2.868-10 2.736l-13.424 15.948z" class="cls-21" data-name="Path 1589" transform="translate(-66.814 -133.682)"/>
            <path id="Path_1590" d="M140.44 184.35c5.364 2.832 24.36 29.4 27.156 30.72s24.2-16.032 24.2-16.032l3.6 6.144s-17.556 24.8-27.48 23.6-28.92-22.2-28.92-22.2z" class="cls-16" data-name="Path 1590" transform="translate(-74.464 -134.099)"/>
            <path id="Path_1591" d="M140.44 184.35c5.364 2.832 24.36 29.4 27.156 30.72s24.2-16.032 24.2-16.032l3.6 6.144s-17.556 24.8-27.48 23.6-28.92-22.2-28.92-22.2z" class="cls-22" data-name="Path 1591" transform="translate(-74.464 -134.099)"/>
            <path id="Path_1592" d="M182.01 197.364l1.488-1.4 3.9 6.6-1.4 2.7z" class="cls-8" data-name="Path 1592" transform="translate(-65.862 -131.777)"/>
            <path id="Path_1593" d="M146.632 212.366c-4.44-4.236-7.632-7.752-7.632-7.752l.336-5.28L141 194.21a21.06 21.06 0 0 1 5.628 18.156z" class="cls-17" data-name="Path 1593" transform="translate(-74.464 -132.127)"/>
            <path id="Path_1594" d="M135.916 332.454c-3.4-11.7-6-22.092-8.076-31.32a288.413 288.413 0 0 1 2.4-32.664s5.36 42.13 5.676 63.984z" class="cls-17" data-name="Path 1594" transform="translate(-76.696 -117.275)"/>
            <path id="Path_1595" d="M150.012 240.7c1.5-26.4.828-40.944.144-48.2-.744-7.74-1.944-8.016-1.944-8.016s-8.4-.816-15.672-.768a120.08 120.08 0 0 0-16.8 1.776 112.183 112.183 0 0 0-15.6 3.756c.852 2.4 1.62 4.8 2.4 6.912.96 2.868 1.812 5.52 2.58 8 1.44 4.632 2.568 8.64 3.468 12.24a133.019 133.019 0 0 1 3.984 27.6s-9.228 24.12-11.028 41.82l30.6 3.3 4.2-17.7 4.2 18.3 17.028-6.06z" class="cls-16" data-name="Path 1595" transform="translate(-82.236 -134.228)"/>
            <path id="Path_1596" d="M150.012 240.7c1.5-26.4.828-40.944.144-48.2-.744-7.74-1.944-8.016-1.944-8.016s-8.4-.816-15.672-.768a120.08 120.08 0 0 0-16.8 1.776 112.183 112.183 0 0 0-15.6 3.756c.852 2.4 1.62 4.8 2.4 6.912.96 2.868 1.812 5.52 2.58 8 1.44 4.632 2.568 8.64 3.468 12.24a133.019 133.019 0 0 1 3.984 27.6s-9.228 24.12-11.028 41.82l30.6 3.3 4.2-17.7 4.2 18.3 17.028-6.06z" class="cls-22" data-name="Path 1596" transform="translate(-82.236 -134.228)"/>
            <path id="Path_1597" d="M108.8 218.527c-.408-2.016-.888-4.164-1.476-6.468-.372-1.464-.78-3-1.2-4.632 1.2-4.092 2.4-.888 2.4-.888a36.948 36.948 0 0 1 .276 11.988z" class="cls-17" data-name="Path 1597" transform="translate(-81.04 -129.9)"/>
            <path id="Path_1598" d="M116.83 191.662l15.2 27.2 3.6-29.2-6.9 8.652z" class="cls-8" data-name="Path 1598" transform="translate(-78.898 -133.035)"/>
            <path id="Path_1599" d="M117.874 183.368c-6.792 1.6-8.844 7.056-8.1 12l4.956-1.644a59.039 59.039 0 0 1 15.9 8.7s3.744-6.9 7.344-9.156l5.1.6s-7.944-14.544-25.2-10.5z" class="cls-8" data-name="Path 1599" transform="translate(-80.338 -134.438)"/>
            <path id="Path_1600" d="M117.874 183.368c-6.792 1.6-8.844 7.056-8.1 12l4.956-1.644a59.039 59.039 0 0 1 15.9 8.7s3.744-6.9 7.344-9.156l5.1.6s-7.944-14.544-25.2-10.5z" class="cls-22" data-name="Path 1600" transform="translate(-80.338 -134.438)"/>
            <path id="Path_1601" d="M129.24 187.312a7.2 7.2 0 0 0-1.2-.48c-.864-.684-1.92-2.328-1.86-6.336a30.71 30.71 0 0 1 .432-4.68l-11.124-2.076s3.792 7.488.624 13.044c-1.092.48-1.74 1.2-1.62 2.076.828 6.432 14.652 12.648 14.652 12.648s6.816-10.5.096-14.196z" class="cls-21" data-name="Path 1601" transform="translate(-79.369 -136.221)"/>
            <path id="Path_1602" d="M126.494 175.816a30.707 30.707 0 0 0-.432 4.68c-7.524 0-10.692-6.756-10.692-6.756z" class="cls-17" data-name="Path 1602" transform="translate(-79.19 -136.221)"/>
            <path id="Path_1603" d="M120.5 144.9s13.056-1.656 15.456 8.844a16.188 16.188 0 0 1-5.7 16.356z" class="cls-16" data-name="Path 1603" transform="translate(-78.164 -142.009)"/>
            <path id="Path_1604" d="M121.44 149.546c9.672-.528 13.068 4.476 14.328 14.4 1.572 12.408-.708 21.408-12.948 19.4-16.62-2.696-17.436-32.924-1.38-33.8z" class="cls-21" data-name="Path 1604" transform="translate(-80.292 -141.068)"/>
            <path id="Path_1605" fill="#d4827d" d="M126.21 161.38a20.82 20.82 0 0 0 3.036 3.864 2.652 2.652 0 0 1-2.484 1.2z" data-name="Path 1605" transform="translate(-77.022 -138.693)"/>
            <path id="Path_1606" d="M121.559 161.226c.072.792-.312 1.476-.84 1.512s-1.008-.564-1.068-1.356.312-1.476.84-1.512 1.009.552 1.068 1.356z" class="cls-16" data-name="Path 1606" transform="translate(-78.335 -138.996)"/>
            <path id="Path_1607" d="M120.17 160.034l1.68-.8s-.756 1.508-1.68.8z" class="cls-16" data-name="Path 1607" transform="translate(-78.23 -139.123)"/>
            <path id="Path_1608" d="M129.769 160.436c.072.792-.312 1.476-.84 1.512s-1.008-.564-1.068-1.356.312-1.476.84-1.512 1.008.564 1.068 1.356z" class="cls-16" data-name="Path 1608" transform="translate(-76.693 -139.154)"/>
            <path id="Path_1609" d="M128.38 159.254l1.668-.8s-.748 1.508-1.668.8z" class="cls-16" data-name="Path 1609" transform="translate(-76.588 -139.279)"/>
            <path id="Path_1610" d="M121.546 155.432a5.052 5.052 0 0 0-4.116 1.692" class="cls-24" data-name="Path 1610" transform="translate(-78.778 -139.885)"/>
            <path id="Path_1611" d="M126.7 154.8a4.488 4.488 0 0 1 3.9.588" class="cls-24" data-name="Path 1611" transform="translate(-76.924 -140.05)"/>
            <path id="Path_1612" d="M112.24 167.05s4.08-8.2 3.06-14.292c0 0 18.744-8.88 20.748 10.524 0 0 .936-17.376-15.72-16.86s-15.24 24.852-6.252 31.632c.024 0-4.368-5.88-1.836-11.004z" class="cls-16" data-name="Path 1612" transform="translate(-80.765 -141.687)"/>
            <path id="Path_1613" d="M125.632 144.577s7.944-1.944 10.2.156-13.8 16.944-22.2 18.444c0 0-2.856 9.3-.6 13.656 0 0-9.456-3.3-9.9-17.7s14.7-19.8 22.5-14.556z" class="cls-16" data-name="Path 1613" transform="translate(-81.64 -142.446)"/>
            <path id="Path_1614" d="M114.037 165.847a4.248 4.248 0 0 0-4.8-3.6c-2.976.48-4.068 6.72 3.468 7.788 1.095.132 1.644-.948 1.332-4.188z" class="cls-21" data-name="Path 1614" transform="translate(-80.869 -138.528)"/>
            <path id="Path_1615" d="M112.768 150.305s-3.3-8.4-12.156-7.8-10.2 14.4-5.544 24.6 1.5 13.5 1.5 13.5 4.944-.6 4.944-9.744a32.928 32.928 0 0 1 .3 5.844s3.3-4.644.156-13.5 6.9-4.8 6.9-4.8z" class="cls-16" data-name="Path 1615" transform="translate(-83.776 -142.474)"/>
            <path id="Path_1616" d="M132.324 145s-4.2 13.5-15.444 17.556" class="cls-24" data-name="Path 1616" transform="translate(-78.888 -141.969)"/>
            <path id="Path_1617" d="M120.38 168.5a7.788 7.788 0 0 0 5.544 2.256" class="cls-24" data-name="Path 1617" transform="translate(-78.188 -137.269)"/>
            <path id="Path_1618" d="M126.095 162.518a2.148 2.148 0 1 1-2.148-2.328 2.232 2.232 0 0 1 2.148 2.328z" class="cls-25" data-name="Path 1618" transform="translate(-77.903 -138.931)"/>
            <path id="Path_1619" d="M132.4 162.2a2.148 2.148 0 1 1-2.136-2.316 2.244 2.244 0 0 1 2.136 2.316z" class="cls-25" data-name="Path 1619" transform="translate(-76.641 -138.993)"/>
            <path id="Path_1620" d="M125.38 162.328s1.116-2.4 3.3-.384" class="cls-25" data-name="Path 1620" transform="translate(-77.188 -138.742)"/>
            <path id="Path_1621" d="M124.046 162.182s-12-.384-13.416-.3" class="cls-25" data-name="Path 1621" transform="translate(-80.138 -138.595)"/>
            <path id="Path_1622" d="M111.822 209.269l-.552 30.636a1.2 1.2 0 0 0 1.344 1.2l20.172-1.608a1.2 1.2 0 0 0 1.2-1.2l.972-30.384a1.2 1.2 0 0 0-1.32-1.272l-20.592 1.332a1.2 1.2 0 0 0-1.224 1.3z" class="cls-8" data-name="Path 1622" transform="translate(-80.01 -129.642)"/>
            <path id="Path_1623" d="M111.822 209.269l-.552 30.636a1.2 1.2 0 0 0 1.344 1.2l20.172-1.608a1.2 1.2 0 0 0 1.2-1.2l.972-30.384a1.2 1.2 0 0 0-1.32-1.272l-20.592 1.332a1.2 1.2 0 0 0-1.224 1.3z" class="cls-14" data-name="Path 1623" transform="translate(-80.01 -129.642)"/>
            <path id="Path_1624" d="M112.322 209.837l-.552 30.636a1.2 1.2 0 0 0 1.344 1.26l20.172-1.6a1.2 1.2 0 0 0 1.2-1.2l.972-30.372a1.2 1.2 0 0 0-1.32-1.284l-20.652 1.344a1.2 1.2 0 0 0-1.164 1.212z" class="cls-8" data-name="Path 1624" transform="translate(-79.911 -129.514)"/>
            <path id="Path_1625" d="M112.322 209.837l-.552 30.636a1.2 1.2 0 0 0 1.344 1.26l20.172-1.6a1.2 1.2 0 0 0 1.2-1.2l.972-30.372a1.2 1.2 0 0 0-1.32-1.284l-20.652 1.344a1.2 1.2 0 0 0-1.164 1.212z" class="cls-15" data-name="Path 1625" transform="translate(-79.911 -129.514)"/>
            <path id="Path_1626" d="M124.83 222.08a3 3 0 1 1-3-3h.12a2.988 2.988 0 0 0 2.844 2.508 3.227 3.227 0 0 1 .036.492z" class="cls-17" data-name="Path 1626" transform="translate(-78.498 -127.153)"/>
            <path id="Path_1627" d="M97.13 231.973l14.76-9.3s1.128-3.12 2.5-3.756 10.356-1.812 11.22-.924.8 7.932-.888 8.844-9.6.828-10.356.516l-16.54 12.684z" class="cls-21" data-name="Path 1627" transform="translate(-82.838 -127.435)"/>
            <path id="Path_1628" d="M103.112 188.32s9.648 14.016 8.244 26.016l-12.8 21.2 8.6-4.4 3.9 7.356s-9.9 15.24-22.5 11.64 14.556-61.812 14.556-61.812z" class="cls-16" data-name="Path 1628" transform="translate(-85.22 -133.305)"/>
            <path id="Path_1629" d="M103.112 188.32s9.648 14.016 8.244 26.016l-12.8 21.2 8.6-4.4 3.9 7.356s-9.9 15.24-22.5 11.64 14.556-61.812 14.556-61.812z" class="cls-22" data-name="Path 1629" transform="translate(-85.22 -133.305)"/>
            <path id="Path_1630" d="M102.75 223.82l4.9 9.1 1.1-2.6-3.9-7.392z" class="cls-8" data-name="Path 1630" transform="translate(-81.714 -126.385)"/>
        </g>
        <g id="freepik--Button--inject-106" transform="translate(208.068 184.6)">
            <path id="Path_1631" d="M196.926 194.488a5.544 5.544 0 1 1 5.532-5.544 5.544 5.544 0 0 1-5.532 5.544z" class="cls-8" data-name="Path 1631" transform="translate(-169.794 -158.92)"/>
            <path id="Path_1632" d="M203.054 223h-.132a29.82 29.82 0 0 1-14.772-4.164l3.012-5.3a23.592 23.592 0 0 0 11.76 3.312zm14.76-4.44l-3.024-5.16a23.665 23.665 0 0 0 8.592-8.652l5.2 2.988a29.629 29.629 0 0 1-10.768 10.824zm-40.452-10.8A29.46 29.46 0 0 1 173.39 193h6a23.329 23.329 0 0 0 3.168 11.76zm49.2-14.868a23.46 23.46 0 0 0-3.192-11.748l5.184-3.024a29.58 29.58 0 0 1 4.008 14.76zm-44.04-11.6l-5.184-3a29.712 29.712 0 0 1 10.8-10.8l3.012 5.184a23.88 23.88 0 0 0-8.628 8.616zm32.136-8.688a23.784 23.784 0 0 0-11.712-3.36l-.024-6.24a29.784 29.784 0 0 1 14.712 4.164z" class="cls-8" data-name="Path 1632" transform="translate(-173.39 -163)"/>
            <g id="Group_1123" data-name="Group 1123" opacity="0.6">
                <path id="Path_1633" d="M203.054 223h-.132a29.82 29.82 0 0 1-14.772-4.164l3.012-5.3a23.592 23.592 0 0 0 11.76 3.312zm14.76-4.44l-3.024-5.16a23.665 23.665 0 0 0 8.592-8.652l5.2 2.988a29.629 29.629 0 0 1-10.768 10.824zm-40.452-10.8A29.46 29.46 0 0 1 173.39 193h6a23.329 23.329 0 0 0 3.168 11.76zm49.2-14.868a23.46 23.46 0 0 0-3.192-11.748l5.184-3.024a29.58 29.58 0 0 1 4.008 14.76zm-44.04-11.6l-5.184-3a29.712 29.712 0 0 1 10.8-10.8l3.012 5.184a23.88 23.88 0 0 0-8.628 8.616zm32.136-8.688a23.784 23.784 0 0 0-11.712-3.36l-.024-6.24a29.784 29.784 0 0 1 14.712 4.164z" class="cls-11" data-name="Path 1633" transform="translate(-173.39 -163)"/>
            </g>
        </g>
        <g id="freepik--data-points--inject-106" transform="translate(231.386 70.3)">
            <path id="Path_1634" d="M204.234 196.644a7.392 7.392 0 1 1 7.38-7.392 7.392 7.392 0 0 1-7.38 7.392z" class="cls-8" data-name="Path 1634" transform="translate(-192.02 -44.928)"/>
            <path id="Path_1635" d="M204.234 196.644a7.392 7.392 0 1 1 7.38-7.392 7.392 7.392 0 0 1-7.38 7.392z" class="cls-13" data-name="Path 1635" transform="translate(-192.02 -44.928)"/>
            <circle id="Ellipse_59" cx="12.156" cy="12.156" r="12.156" fill="none" stroke="#274483" stroke-miterlimit="10" stroke-width="3px" data-name="Ellipse 59" transform="rotate(-76.72 96.88 76.677)"/>
            <path id="Rectangle_194" d="M0 0H201.6V2.4H0z" class="cls-8" data-name="Rectangle 194" transform="translate(25.414 143.1)"/>
            <path id="Path_1636" d="M206.4 193.8H204v-14.4a1.2 1.2 0 0 1 .348-.852l73.4-73.2a1.2 1.2 0 0 1 .852-.348h67v2.4h-66.5l-72.7 72.492z" class="cls-8" data-name="Path 1636" transform="translate(-190.586 -60.3)"/>
            <path id="Path_1637" d="M380.4 296.4h-90a1.2 1.2 0 0 1-.852-.348l-85.2-85.2A1.2 1.2 0 0 1 204 210v-12h2.4v11.508L290.892 294H380.4z" class="cls-8" data-name="Path 1637" transform="translate(-190.586 -41.7)"/>
            <path id="Path_1638" d="M314.574 221.708h-48.2a1.2 1.2 0 0 1-.84-.348l-32.4-32.2 1.692-1.7 32.052 31.848h47.7z" class="cls-8" data-name="Path 1638" transform="translate(-184.76 -43.808)"/>
            <path id="Path_1639" d="M273.494 194.548l-1.7-1.692 32.292-32.508a1.26 1.26 0 0 1 .852-.348h48.708v2.4h-48.2z" class="cls-8" data-name="Path 1639" transform="translate(-177.028 -49.3)"/>
            <path id="Path_1640" d="M461.084 141.562H270.56a1.2 1.2 0 0 1-.852-.36l-19.128-19.32 1.7-1.692 18.78 18.972h190.02z" class="cls-8" data-name="Path 1640" transform="translate(-181.27 -57.262)"/>
            <path id="Path_1641" d="M284.644 112.252l-1.644-1.7 31.2-31.2a1.2 1.2 0 0 1 .852-.348H415v2.4h-99.5z" class="cls-8" data-name="Path 1641" transform="translate(-174.786 -65.5)"/>
            <path id="Path_1642" d="M308.756 342l-48.408-48.4a1.2 1.2 0 0 1-.348-.8V264h2.4v28.308l48 48z" class="cls-8" data-name="Path 1642" transform="translate(-179.386 -28.5)"/>
            <path id="Path_1643" d="M291.824 285.064l-1.7-1.668 31.824-32.028a1.26 1.26 0 0 1 .852-.348h120.78v2.4H323.3z" class="cls-8" data-name="Path 1643" transform="translate(-173.362 -31.096)"/>
            <path id="Path_1644" d="M399.742 313.974h-53.8a1.2 1.2 0 0 1-.852-.348l-33.8-33.8 1.7-1.692 33.444 33.444h53.3z" class="cls-8" data-name="Path 1644" transform="translate(-169.128 -25.674)"/>
            <circle id="Ellipse_60" cx="5.496" cy="5.496" r="5.496" class="cls-8" data-name="Ellipse 60" transform="translate(234.718 9.204)"/>
            <path id="Path_1645" d="M333.116 120.812a12.7 12.7 0 1 1 12.7-12.7 12.7 12.7 0 0 1-12.7 12.7zm0-22.992a10.3 10.3 0 1 0 10.3 10.3 10.3 10.3 0 0 0-10.3-10.3z" class="cls-8" data-name="Path 1645" transform="translate(-167.302 -62.216)"/>
            <circle id="Ellipse_61" cx="5.496" cy="5.496" r="5.496" class="cls-8" data-name="Ellipse 61" transform="translate(160.318 40.404)"/>
            <path id="Path_1646" d="M432.412 138.088a5.5 5.5 0 1 1-1.605-3.894 5.5 5.5 0 0 1 1.605 3.894z" class="cls-8" data-name="Path 1646" transform="translate(-147.102 -54.784)"/>
            <circle id="Ellipse_62" cx="5.496" cy="5.496" r="5.496" class="cls-8" data-name="Ellipse 62" transform="translate(171.118 106.404)"/>
            <path id="Path_1647" d="M393.116 202.812a12.7 12.7 0 1 1 12.7-12.7 12.7 12.7 0 0 1-12.7 12.7zm0-22.992a10.3 10.3 0 1 0 10.3 10.3 10.3 10.3 0 0 0-10.3-10.3z" class="cls-8" data-name="Path 1647" transform="translate(-155.302 -45.816)"/>
            <circle id="Ellipse_63" cx="5.496" cy="5.496" r="5.496" class="cls-8" data-name="Ellipse 63" transform="translate(232.318 138.804)"/>
            <circle id="Ellipse_64" cx="5.496" cy="5.496" r="5.496" class="cls-8" data-name="Ellipse 64" transform="translate(124.318 171.204)"/>
            <circle id="Ellipse_65" cx="5.496" cy="5.496" r="5.496" class="cls-8" data-name="Ellipse 65" transform="translate(264.718 215.604)"/>
            <path id="Path_1648" d="M362.12 293.656a12.708 12.708 0 1 1 12.7-12.708 12.708 12.708 0 0 1-12.7 12.708zm0-23a10.308 10.308 0 1 0 10.3 10.3 10.308 10.308 0 0 0-10.3-10.3z" class="cls-8" data-name="Path 1648" transform="translate(-161.506 -27.652)"/>
            <path id="Path_1649" d="M366.412 279.746a5.5 5.5 0 1 1-5.5-5.5 5.5 5.5 0 0 1 5.5 5.5z" class="cls-8" data-name="Path 1649" transform="translate(-160.302 -26.45)"/>
            <circle id="Ellipse_66" cx="5.496" cy="5.496" r="5.496" class="cls-8" data-name="Ellipse 66" transform="translate(225.118 281.604)"/>
            <path id="Path_1650" d="M307.756 329.246a5.508 5.508 0 1 1-5.508-5.5 5.508 5.508 0 0 1 5.508 5.5z" class="cls-8" data-name="Path 1650" transform="translate(-172.038 -16.55)"/>
            <rect id="Rectangle_195" width="23.664" height="30.9" class="cls-8" data-name="Rectangle 195" rx="1.51" transform="translate(252.886)"/>
            <rect id="Rectangle_196" width="23.664" height="30.9" class="cls-14" data-name="Rectangle 196" rx="1.51" transform="translate(252.886)"/>
            <path id="Rectangle_197" d="M0 0H16.596V1.668H0z" class="cls-8" data-name="Rectangle 197" transform="translate(256.414 4.392)"/>
            <path id="Rectangle_198" d="M0 0H16.596V1.668H0z" class="cls-8" data-name="Rectangle 198" transform="translate(256.414 7.308)"/>
            <path id="Rectangle_199" d="M0 0H16.596V1.668H0z" class="cls-8" data-name="Rectangle 199" transform="translate(256.414 10.236)"/>
            <path id="Rectangle_200" d="M0 0H16.596V1.668H0z" class="cls-8" data-name="Rectangle 200" transform="translate(256.414 13.152)"/>
            <path id="Rectangle_201" d="M0 0H16.596V1.668H0z" class="cls-8" data-name="Rectangle 201" transform="translate(256.414 16.08)"/>
            <path id="Rectangle_202" d="M0 0H16.596V1.668H0z" class="cls-8" data-name="Rectangle 202" transform="translate(256.414 19.008)"/>
            <path id="Rectangle_203" d="M0 0H16.596V1.668H0z" class="cls-8" data-name="Rectangle 203" transform="translate(256.414 21.924)"/>
            <path id="Rectangle_204" d="M0 0H10.752V1.668H0z" class="cls-8" data-name="Rectangle 204" transform="translate(256.414 24.852)"/>
            <rect id="Rectangle_205" width="23.664" height="30.9" class="cls-8" data-name="Rectangle 205" rx="1.51" transform="translate(141.382 163.848)"/>
            <rect id="Rectangle_206" width="23.664" height="30.9" class="cls-14" data-name="Rectangle 206" rx="1.51" transform="translate(141.382 163.848)"/>
            <path id="Rectangle_207" d="M0 0H16.596V1.668H0z" class="cls-8" data-name="Rectangle 207" transform="translate(144.91 168.228)"/>
            <path id="Rectangle_208" d="M0 0H16.596V1.668H0z" class="cls-8" data-name="Rectangle 208" transform="translate(144.91 171.156)"/>
            <path id="Rectangle_209" d="M0 0H16.596V1.668H0z" class="cls-8" data-name="Rectangle 209" transform="translate(144.91 174.072)"/>
            <path id="Rectangle_210" d="M0 0H16.596V1.668H0z" class="cls-8" data-name="Rectangle 210" transform="translate(144.91 177)"/>
            <path id="Rectangle_211" d="M0 0H16.596V1.668H0z" class="cls-8" data-name="Rectangle 211" transform="translate(144.91 179.916)"/>
            <path id="Rectangle_212" d="M0 0H16.596V1.668H0z" class="cls-8" data-name="Rectangle 212" transform="translate(144.91 182.844)"/>
            <path id="Rectangle_213" d="M0 0H16.596V1.668H0z" class="cls-8" data-name="Rectangle 213" transform="translate(144.91 185.772)"/>
            <path id="Rectangle_214" d="M0 0H10.752V1.668H0z" class="cls-8" data-name="Rectangle 214" transform="translate(144.91 188.688)"/>
            <rect id="Rectangle_215" width="23.664" height="30.9" class="cls-8" data-name="Rectangle 215" rx="1.51" transform="translate(279.814 197.1)"/>
            <rect id="Rectangle_216" width="23.664" height="30.9" class="cls-14" data-name="Rectangle 216" rx="1.51" transform="translate(279.814 197.1)"/>
            <path id="Rectangle_217" d="M0 0H16.596V1.668H0z" class="cls-8" data-name="Rectangle 217" transform="translate(283.342 201.492)"/>
            <path id="Rectangle_218" d="M0 0H16.596V1.668H0z" class="cls-8" data-name="Rectangle 218" transform="translate(283.342 204.408)"/>
            <path id="Rectangle_219" d="M0 0H16.596V1.668H0z" class="cls-8" data-name="Rectangle 219" transform="translate(283.342 207.336)"/>
            <path id="Rectangle_220" d="M0 0H16.596V1.668H0z" class="cls-8" data-name="Rectangle 220" transform="translate(283.342 210.264)"/>
            <path id="Rectangle_221" d="M0 0H16.596V1.668H0z" class="cls-8" data-name="Rectangle 221" transform="translate(283.342 213.18)"/>
            <path id="Rectangle_222" d="M0 0H16.596V1.668H0z" class="cls-8" data-name="Rectangle 222" transform="translate(283.342 216.108)"/>
            <path id="Rectangle_223" d="M0 0H16.596V1.668H0z" class="cls-8" data-name="Rectangle 223" transform="translate(283.342 219.024)"/>
            <path id="Rectangle_224" d="M0 0H10.752V1.668H0z" class="cls-8" data-name="Rectangle 224" transform="translate(283.342 221.952)"/>
            <rect id="Rectangle_225" width="23.664" height="30.9" class="cls-8" data-name="Rectangle 225" rx="1.51" transform="translate(289.198 59.244)"/>
            <rect id="Rectangle_226" width="23.664" height="30.9" class="cls-14" data-name="Rectangle 226" rx="1.51" transform="translate(289.198 59.244)"/>
            <path id="Rectangle_227" d="M0 0H16.596V1.668H0z" class="cls-8" data-name="Rectangle 227" transform="translate(292.726 63.636)"/>
            <path id="Rectangle_228" d="M0 0H16.596V1.668H0z" class="cls-8" data-name="Rectangle 228" transform="translate(292.726 66.552)"/>
            <path id="Rectangle_229" d="M0 0H16.596V1.668H0z" class="cls-8" data-name="Rectangle 229" transform="translate(292.726 69.48)"/>
            <path id="Rectangle_230" d="M0 0H16.596V1.668H0z" class="cls-8" data-name="Rectangle 230" transform="translate(292.726 72.408)"/>
            <path id="Rectangle_231" d="M0 0H16.596V1.668H0z" class="cls-8" data-name="Rectangle 231" transform="translate(292.726 75.324)"/>
            <path id="Rectangle_232" d="M0 0H16.596V1.668H0z" class="cls-8" data-name="Rectangle 232" transform="translate(292.726 78.252)"/>
            <path id="Rectangle_233" d="M0 0H16.596V1.668H0z" class="cls-8" data-name="Rectangle 233" transform="translate(292.726 81.168)"/>
            <path id="Rectangle_234" d="M0 0H10.752V1.668H0z" class="cls-8" data-name="Rectangle 234" transform="translate(292.726 84.096)"/>
            <rect id="Rectangle_235" width="23.664" height="30.9" class="cls-8" data-name="Rectangle 235" rx="1.51" transform="translate(141.826 306.552)"/>
            <rect id="Rectangle_236" width="23.664" height="30.9" class="cls-14" data-name="Rectangle 236" rx="1.51" transform="translate(141.826 306.552)"/>
            <path id="Rectangle_237" d="M0 0H16.596V1.668H0z" class="cls-8" data-name="Rectangle 237" transform="translate(145.354 310.944)"/>
            <path id="Rectangle_238" d="M0 0H16.596V1.668H0z" class="cls-8" data-name="Rectangle 238" transform="translate(145.354 313.86)"/>
            <path id="Rectangle_239" d="M0 0H16.596V1.668H0z" class="cls-8" data-name="Rectangle 239" transform="translate(145.354 316.788)"/>
            <path id="Rectangle_240" d="M0 0H16.596V1.668H0z" class="cls-8" data-name="Rectangle 240" transform="translate(145.354 319.704)"/>
            <path id="Rectangle_241" d="M0 0H16.596V1.668H0z" class="cls-8" data-name="Rectangle 241" transform="translate(145.354 322.632)"/>
            <path id="Rectangle_242" d="M0 0H16.596V1.668H0z" class="cls-8" data-name="Rectangle 242" transform="translate(145.354 325.56)"/>
            <path id="Rectangle_243" d="M0 0H16.596V1.668H0z" class="cls-8" data-name="Rectangle 243" transform="translate(145.354 328.476)"/>
            <path id="Rectangle_244" d="M0 0H10.752V1.668H0z" class="cls-8" data-name="Rectangle 244" transform="translate(145.354 331.404)"/>
            <rect id="Rectangle_245" width="55.2" height="55.2" class="cls-8" data-name="Rectangle 245" rx="1.54" transform="translate(255.742 116.04)"/>
            <circle id="Ellipse_67" cx="18.6" cy="18.6" r="18.6" class="cls-13" data-name="Ellipse 67" transform="translate(264.742 125.04)"/>
            <path id="Path_1651" d="M432.032 190.554h18.6a18.576 18.576 0 1 1-9.3-16.14z" class="cls-15" data-name="Path 1651" transform="translate(-148.69 -46.914)"/>
            <circle id="Ellipse_68" cx="14.4" cy="14.4" r="14.4" class="cls-8" data-name="Ellipse 68" transform="translate(268.942 129.24)"/>
            <circle id="Ellipse_69" cx="14.4" cy="14.4" r="14.4" fill="#fff" data-name="Ellipse 69" opacity="0.3" transform="translate(268.942 129.24)"/>
            <text id="_80_" fill="#fff" data-name="80%" font-family="SegoeUI, Segoe UI" font-size="6px" transform="translate(277.066 145.248)">
                <tspan x="0" y="0" letter-spacing="0.019em">8</tspan><tspan y="0">0%</tspan>
            </text>
            <rect id="Rectangle_246" width="42" height="42" class="cls-8" data-name="Rectangle 246" rx="1.17" transform="translate(217.234 232.5)"/>
            <path id="Rectangle_247" d="M0 0H5.4V2.748H0z" class="cls-13" data-name="Rectangle 247" transform="translate(246.214 267.456)"/>
            <path id="Rectangle_248" d="M0 0H5.4V2.748H0z" class="cls-11" data-name="Rectangle 248" transform="translate(246.214 240.036)"/>
            <path id="Rectangle_249" d="M0 0H5.4V2.748H0z" class="cls-11" data-name="Rectangle 249" transform="translate(246.214 244.608)"/>
            <path id="Rectangle_250" d="M0 0H5.4V2.748H0z" class="cls-31" data-name="Rectangle 250" transform="translate(246.214 249.18)"/>
            <path id="Rectangle_251" d="M0 0H5.4V2.748H0z" class="cls-13" data-name="Rectangle 251" transform="translate(246.214 253.74)"/>
            <path id="Rectangle_252" d="M0 0H5.4V2.748H0z" class="cls-13" data-name="Rectangle 252" transform="translate(246.214 258.312)"/>
            <path id="Rectangle_253" d="M0 0H5.4V2.748H0z" class="cls-13" data-name="Rectangle 253" transform="translate(246.214 262.884)"/>
            <path id="Rectangle_254" d="M0 0H5.4V2.748H0z" class="cls-13" data-name="Rectangle 254" transform="translate(238.87 267.456)"/>
            <path id="Rectangle_255" d="M0 0H5.4V2.748H0z" class="cls-11" data-name="Rectangle 255" transform="translate(238.87 253.74)"/>
            <path id="Rectangle_256" d="M0 0H5.4V2.748H0z" class="cls-31" data-name="Rectangle 256" transform="translate(238.87 258.312)"/>
            <path id="Rectangle_257" d="M0 0H5.4V2.748H0z" class="cls-13" data-name="Rectangle 257" transform="translate(238.87 262.884)"/>
            <path id="Rectangle_258" d="M0 0H5.4V2.748H0z" class="cls-13" data-name="Rectangle 258" transform="translate(231.514 267.456)"/>
            <path id="Rectangle_259" d="M0 0H5.4V2.748H0z" class="cls-11" data-name="Rectangle 259" transform="translate(231.514 249.18)"/>
            <path id="Rectangle_260" d="M0 0H5.4V2.748H0z" class="cls-31" data-name="Rectangle 260" transform="translate(231.514 253.74)"/>
            <path id="Rectangle_261" d="M0 0H5.4V2.748H0z" class="cls-13" data-name="Rectangle 261" transform="translate(231.514 258.312)"/>
            <path id="Rectangle_262" d="M0 0H5.4V2.748H0z" class="cls-13" data-name="Rectangle 262" transform="translate(231.514 262.884)"/>
            <path id="Rectangle_263" d="M0 0H5.4V2.748H0z" class="cls-13" data-name="Rectangle 263" transform="translate(224.17 267.456)"/>
            <path id="Rectangle_264" d="M0 0H5.4V2.748H0z" class="cls-11" data-name="Rectangle 264" transform="translate(224.17 258.312)"/>
            <path id="Rectangle_265" d="M0 0H5.4V2.748H0z" class="cls-31" data-name="Rectangle 265" transform="translate(224.17 262.884)"/>
            <rect id="Rectangle_266" width="42" height="42" class="cls-8" data-name="Rectangle 266" rx="1.17" transform="translate(185.11 30.396)"/>
            <path id="Path_1652" fill="#fff" d="M369.856 108.384v-2.628l-1.356-.12a6.792 6.792 0 0 0-1.008-2.4l.864-1.056-1.848-1.932-1.056.876a6.875 6.875 0 0 0-2.4-1.008l-.132-1.356h-2.628l-.12 1.356a6.937 6.937 0 0 0-2.4 1.008l-1.044-.876-1.86 1.86.864 1.056a7.2 7.2 0 0 0-1.008 2.4l-1.344.12v2.628l1.344.132a7.355 7.355 0 0 0 1.008 2.4l-.864 1.056 1.86 1.86 1.044-.876a6.936 6.936 0 0 0 2.4 1.008l.12 1.356h2.628l.132-1.356a6.874 6.874 0 0 0 2.4-1.008l1.056.876 1.848-1.86-.864-1.056a6.874 6.874 0 0 0 1.008-2.4zm-8.268 2.244a3.6 3.6 0 1 1 3.6-3.6 3.6 3.6 0 0 1-3.6 3.6z" data-name="Path 1652" opacity="0.9" transform="translate(-160.71 -61.548)"/>
            <path id="Path_1653" d="M378.16 114.252v-2.064l-1.056-.1a5.592 5.592 0 0 0-.792-1.908l.684-.816-1.452-1.464-.828.684a5.533 5.533 0 0 0-1.9-.792l-.108-1.056h-2.048l-.108 1.056a5.532 5.532 0 0 0-1.9.792l-.828-.684-1.452 1.464.684.816a5.365 5.365 0 0 0-.792 1.908l-1.068.1v2.064l1.068.1a5.3 5.3 0 0 0 .792 1.9l-.684.828 1.452 1.452.828-.672a5.508 5.508 0 0 0 1.9.78l.108 1.068h2.052l.108-1.068a5.508 5.508 0 0 0 1.9-.78l.828.672 1.452-1.46-.684-.828a5.531 5.531 0 0 0 .792-1.9zM371.68 116a2.007 2.007 0 1 0-.024-.036z" class="cls-14" data-name="Path 1653" transform="translate(-158.346 -59.952)"/>
            <path id="Path_1654" fill="#fff" d="M368.916 118.888v-1.728l-.888-.084a4.669 4.669 0 0 0-.672-1.608l.576-.684-1.2-1.2-.7.576a4.307 4.307 0 0 0-1.6-.672l-.084-.888h-1.728l-.084.888a4.476 4.476 0 0 0-1.6.672l-.684-.576-1.2 1.2.564.684a4.644 4.644 0 0 0-.66 1.608l-.888.084v1.728l.888.084a4.679 4.679 0 0 0 .66 1.6l-.564.684 1.2 1.2.684-.564a4.68 4.68 0 0 0 1.6.66l.084.888h1.728l.084-.888a4.488 4.488 0 0 0 1.6-.66l.7.564 1.2-1.2-.576-.684a4.7 4.7 0 0 0 .672-1.6zm-5.448 1.476a2.34 2.34 0 1 1 2.34-2.34 2.4 2.4 0 0 1-2.34 2.34z" data-name="Path 1654" opacity="0.4" transform="translate(-159.77 -58.78)"/>
            <path id="Rectangle_267" d="M0 0H36.9V24H0z" class="cls-8" data-name="Rectangle 267" transform="translate(186.142 99.6)"/>
            <path id="Rectangle_268" d="M0 0H36.9V24H0z" class="cls-14" data-name="Rectangle 268" transform="translate(186.142 99.6)"/>
            <path id="Rectangle_269" d="M0 0H34.2V18.3H0z" class="cls-8" data-name="Rectangle 269" transform="translate(187.486 104.1)"/>
            <path id="Rectangle_270" d="M0 0H25.296V0.792H0z" class="cls-11" data-name="Rectangle 270" transform="translate(190.27 106.836)"/>
            <path id="Rectangle_271" d="M0 0H12.144V0.792H0z" class="cls-11" data-name="Rectangle 271" transform="translate(190.27 109.248)"/>
            <path id="Rectangle_272" d="M0 0H15.288V0.792H0z" class="cls-11" data-name="Rectangle 272" transform="translate(190.27 111.66)"/>
            <path id="Rectangle_273" d="M0 0H5.388V0.792H0z" class="cls-11" data-name="Rectangle 273" transform="translate(190.27 114.072)"/>
            <path id="Rectangle_274" d="M0 0H3.492V0.792H0z" class="cls-11" data-name="Rectangle 274" transform="translate(190.27 116.484)"/>
            <path id="Rectangle_275" d="M0 0H36.9V24H0z" class="cls-8" data-name="Rectangle 275" transform="translate(244.942 282.6)"/>
            <path id="Rectangle_276" d="M0 0H36.9V24H0z" class="cls-14" data-name="Rectangle 276" transform="translate(244.942 282.6)"/>
            <path id="Rectangle_277" d="M0 0H34.2V18.3H0z" class="cls-8" data-name="Rectangle 277" transform="translate(246.286 287.1)"/>
            <path id="Rectangle_278" d="M0 0H25.296V0.792H0z" class="cls-11" data-name="Rectangle 278" transform="translate(249.07 289.836)"/>
            <path id="Rectangle_279" d="M0 0H12.144V0.792H0z" class="cls-11" data-name="Rectangle 279" transform="translate(249.07 292.248)"/>
            <path id="Rectangle_280" d="M0 0H15.288V0.792H0z" class="cls-11" data-name="Rectangle 280" transform="translate(249.07 294.66)"/>
            <path id="Rectangle_281" d="M0 0H5.388V0.792H0z" class="cls-11" data-name="Rectangle 281" transform="translate(249.07 297.072)"/>
            <path id="Rectangle_282" d="M0 0H3.492V0.792H0z" class="cls-11" data-name="Rectangle 282" transform="translate(249.07 299.484)"/>
            <g id="Group_1124" data-name="Group 1124" opacity="0.4" transform="translate(.682 9.204)">
                <path id="Rectangle_283" d="M0 0H204V2.4H0z" class="cls-11" data-name="Rectangle 283" transform="translate(22.332 133.896)"/>
                <path id="Path_1655" d="M206.4 193.8H204v-14.4a1.2 1.2 0 0 1 .348-.852l73.4-73.2a1.2 1.2 0 0 1 .852-.348h67v2.4h-66.5l-72.7 72.492z" class="cls-11" data-name="Path 1655" transform="translate(-191.268 -69.504)"/>
                <path id="Path_1656" d="M380.4 296.4h-90a1.2 1.2 0 0 1-.852-.348l-85.2-85.2A1.2 1.2 0 0 1 204 210v-12h2.4v11.508L290.892 294H380.4z" class="cls-11" data-name="Path 1656" transform="translate(-191.268 -50.904)"/>
                <path id="Path_1657" d="M314.574 221.708h-48.2a1.2 1.2 0 0 1-.84-.348l-32.4-32.2 1.692-1.7 32.052 31.848h47.7z" class="cls-11" data-name="Path 1657" transform="translate(-185.442 -53.012)"/>
                <path id="Path_1658" d="M273.494 194.548l-1.7-1.692 32.292-32.508a1.26 1.26 0 0 1 .852-.348h48.708v2.4h-48.2z" class="cls-11" data-name="Path 1658" transform="translate(-177.71 -58.504)"/>
                <path id="Path_1659" d="M461.084 141.562H270.56a1.2 1.2 0 0 1-.852-.36l-19.128-19.32 1.7-1.692 18.78 18.972h190.02z" class="cls-11" data-name="Path 1659" transform="translate(-181.952 -66.466)"/>
                <path id="Path_1660" d="M284.644 112.252l-1.644-1.7 31.2-31.2a1.2 1.2 0 0 1 .852-.348H415v2.4h-99.5z" class="cls-11" data-name="Path 1660" transform="translate(-175.468 -74.704)"/>
                <path id="Path_1661" d="M308.756 342l-48.408-48.4a1.2 1.2 0 0 1-.348-.8V264h2.4v28.308l48 48z" class="cls-11" data-name="Path 1661" transform="translate(-180.068 -37.704)"/>
                <path id="Path_1662" d="M291.824 285.064l-1.7-1.668 31.824-32.028a1.26 1.26 0 0 1 .852-.348h120.78v2.4H323.3z" class="cls-11" data-name="Path 1662" transform="translate(-174.044 -40.3)"/>
                <path id="Path_1663" d="M399.742 313.974h-53.8a1.2 1.2 0 0 1-.852-.348l-33.8-33.8 1.7-1.692 33.444 33.444h53.3z" class="cls-11" data-name="Path 1663" transform="translate(-169.81 -34.878)"/>
                <circle id="Ellipse_70" cx="5.496" cy="5.496" r="5.496" class="cls-11" data-name="Ellipse 70" transform="translate(234.036)"/>
                <path id="Path_1664" d="M333.116 120.812a12.7 12.7 0 1 1 12.7-12.7 12.7 12.7 0 0 1-12.7 12.7zm0-22.992a10.3 10.3 0 1 0 10.3 10.3 10.3 10.3 0 0 0-10.3-10.3z" class="cls-11" data-name="Path 1664" transform="translate(-167.984 -71.42)"/>
                <path id="Path_1665" d="M432.412 138.088a5.5 5.5 0 1 1-1.605-3.894 5.5 5.5 0 0 1 1.605 3.894z" class="cls-11" data-name="Path 1665" transform="translate(-147.784 -63.988)"/>
                <circle id="Ellipse_71" cx="5.496" cy="5.496" r="5.496" class="cls-11" data-name="Ellipse 71" transform="translate(170.436 97.2)"/>
                <path id="Path_1666" d="M393.116 202.812a12.7 12.7 0 1 1 12.7-12.7 12.7 12.7 0 0 1-12.7 12.7zm0-22.992a10.3 10.3 0 1 0 10.3 10.3 10.3 10.3 0 0 0-10.3-10.3z" class="cls-11" data-name="Path 1666" transform="translate(-155.984 -55.02)"/>
                <circle id="Ellipse_72" cx="5.496" cy="5.496" r="5.496" class="cls-11" data-name="Ellipse 72" transform="translate(123.636 162)"/>
                <circle id="Ellipse_73" cx="5.496" cy="5.496" r="5.496" class="cls-11" data-name="Ellipse 73" transform="translate(264.036 206.4)"/>
                <path id="Path_1667" d="M362.12 293.656a12.708 12.708 0 1 1 12.7-12.708 12.708 12.708 0 0 1-12.7 12.708zm0-23a10.308 10.308 0 1 0 10.3 10.3 10.308 10.308 0 0 0-10.3-10.3z" class="cls-11" data-name="Path 1667" transform="translate(-162.188 -36.856)"/>
                <circle id="Ellipse_74" cx="5.496" cy="5.496" r="5.496" class="cls-11" data-name="Ellipse 74" transform="translate(224.436 272.4)"/>
                <path id="Path_1668" d="M307.756 329.246a5.508 5.508 0 1 1-5.508-5.5 5.508 5.508 0 0 1 5.508 5.5z" class="cls-11" data-name="Path 1668" transform="translate(-172.72 -25.754)"/>
                <path id="Path_1669" d="M207.322 204.3a13.956 13.956 0 1 1 9.892-4.088 13.956 13.956 0 0 1-9.892 4.088zm0-24.312a10.356 10.356 0 1 0 10.356 10.356 10.356 10.356 0 0 0-10.356-10.356z" class="cls-11" data-name="Path 1669" transform="translate(-193.39 -55.226)"/>
            </g>
        </g>
    </g>
</svg>
