<svg xmlns="http://www.w3.org/2000/svg" width="40" height="31.832" viewBox="0 0 40 31.832">
    <defs>
        <style>
            .cls-1{fill:#d5d5d5}
        </style>
    </defs>
    <g id="home1" transform="translate(.001 -46.994)">
        <g id="Group_1132" data-name="Group 1132" transform="translate(-.001 46.994)">
            <path id="Path_1687" d="M79.989 120.939L65.723 132.7a.336.336 0 0 1-.013.074.341.341 0 0 0-.012.074v11.909a1.611 1.611 0 0 0 1.588 1.588h9.527v-9.527h6.352v9.528h9.527a1.613 1.613 0 0 0 1.588-1.589v-11.909a.349.349 0 0 0-.025-.148z" class="cls-1" data-name="Path 1687" transform="translate(-59.989 -114.513)"/>
            <path id="Path_1688" d="M39.724 62.5l-5.434-4.515V47.863a.765.765 0 0 0-.794-.794h-4.763a.764.764 0 0 0-.794.794V52.7l-6.054-5.062a3.078 3.078 0 0 0-3.771 0L.275 62.5a.721.721 0 0 0-.275.534.8.8 0 0 0 .174.583l1.538 1.836a.846.846 0 0 0 .521.273.922.922 0 0 0 .6-.174L20 51.237l17.168 14.316a.765.765 0 0 0 .521.173h.075a.847.847 0 0 0 .521-.273l1.538-1.836a.8.8 0 0 0 .177-.583.723.723 0 0 0-.276-.534z" class="cls-1" data-name="Path 1688" transform="translate(.001 -46.994)"/>
        </g>
    </g>
</svg>
