<svg xmlns="http://www.w3.org/2000/svg" width="25" height="25" viewBox="0 0 25 25">
    <defs>
        <clipPath id="p380clpgxa">
            <circle cx="12.5" cy="12.5" r="12.5" fill="#fefefe"/>
        </clipPath>
    </defs>
    <g clip-path="url(#p380clpgxa)">
        <g>
            <g>
                <path fill="#bebdc5" d="M16.415 12.432a9.578 9.578 0 0 0-3.654-2.292 5.559 5.559 0 1 0-6.29 0A9.631 9.631 0 0 0 0 19.231h1.5a8.113 8.113 0 1 1 16.226 0h1.5a9.553 9.553 0 0 0-2.811-6.799zm-6.8-2.816a4.056 4.056 0 1 1 4.056-4.056 4.061 4.061 0 0 1-4.056 4.055z" transform="translate(3.077 2.885)"/>
            </g>
        </g>
    </g>
</svg>
