<svg xmlns="http://www.w3.org/2000/svg" width="20.833" height="25" viewBox="0 0 20.833 25">
    <defs>
        <style>
            .cls-1{fill:#e59a12}
        </style>
    </defs>
    <g id="notification_1_" data-name="notification (1)" transform="translate(-42.675)">
        <g id="Group_61" data-name="Group 61" transform="translate(42.675)">
            <g id="Group_60" data-name="Group 60">
                <path id="Path_266" d="M63.434 21.086l-1.789-2.981a8.856 8.856 0 0 1-1.262-4.556v-2.611a7.3 7.3 0 0 0-5.208-6.984V2.083a2.083 2.083 0 1 0-4.167 0v1.87a7.3 7.3 0 0 0-5.208 6.985v2.611a8.861 8.861 0 0 1-1.262 4.551l-1.789 2.981a.522.522 0 0 0 .446.79h19.792a.521.521 0 0 0 .447-.789z" class="cls-1" data-name="Path 266" transform="translate(-42.675)"/>
            </g>
        </g>
        <g id="Group_63" data-name="Group 63" transform="translate(49.811 22.917)">
            <g id="Group_62" data-name="Group 62">
                <path id="Path_267" d="M188.815 469.333a3.624 3.624 0 0 0 6.56 0z" class="cls-1" data-name="Path 267" transform="translate(-188.815 -469.333)"/>
            </g>
        </g>
    </g>
</svg>
