<svg xmlns="http://www.w3.org/2000/svg" width="35.313" height="35.313" viewBox="0 0 35.313 35.313">
    <defs>
        <style>
            .cls-1{fill:#afafaf}
        </style>
    </defs>
    <g id="Group_1184" data-name="Group 1184" transform="translate(-498 -433)">
        <g id="Group_1179" data-name="Group 1179" transform="translate(498 433)">
            <path id="Path_1755" d="M6.2 24.813H4.295A4.3 4.3 0 0 1 0 20.518V4.295A4.3 4.3 0 0 1 4.295 0h20.041a4.3 4.3 0 0 1 4.294 4.295V6.2a1.432 1.432 0 0 1-2.863 0V4.295a1.432 1.432 0 0 0-1.432-1.432H4.295a1.432 1.432 0 0 0-1.432 1.432v16.223a1.432 1.432 0 0 0 1.432 1.432H6.2a1.432 1.432 0 0 1 0 2.863z" class="cls-1" data-name="Path 1755"/>
        </g>
        <g id="Group_1180" data-name="Group 1180" transform="translate(498 439.68)">
            <path id="Path_1756" d="M13.838 6.363H1.432a1.432 1.432 0 1 1 0-2.863h12.406a1.432 1.432 0 0 1 0 2.863z" class="cls-1" data-name="Path 1756" transform="translate(0 -3.5)"/>
        </g>
        <g id="Group_1183" data-name="Group 1183" transform="translate(508.498 443.503)">
            <path id="Path_1759" d="M17.813 30.312a12.569 12.569 0 0 1-8.482-3.249 7.611 7.611 0 0 1-2.243-7.98c.042-.189.1-.426.124-.6l-.7-.693a3.376 3.376 0 0 1 0-4.819 3.392 3.392 0 0 1 .931-.651 3.453 3.453 0 0 1-.061-.645 3.357 3.357 0 0 1 1.01-2.409 3.461 3.461 0 0 1 3.086-.92 3.438 3.438 0 0 1 4.959-1.37 3.439 3.439 0 0 1 5.243-.491l6.577 6.488a1.472 1.472 0 0 1 .246.324 7.809 7.809 0 0 1 1.811 4.984 10.591 10.591 0 0 1-3.466 7.39l-.032.031-1.848 1.825a10.08 10.08 0 0 1-7.156 2.783zM9.657 20.9a4.639 4.639 0 0 0 1.685 4.128c2.445 2.413 8.188 3.791 11.622.456l1.871-1.846.031-.029a7.774 7.774 0 0 0 2.584-5.325 5.111 5.111 0 0 0-1.659-3.716l-.015-.015-6.108-6.026a.578.578 0 0 0-.809 0 .516.516 0 0 0-.013.727l1.893 1.869a1.431 1.431 0 1 1-2.012 2.037l-1.878-1.853-.034-.034-1.848-1.821a.583.583 0 0 0-.807 0 .516.516 0 0 0 0 .742l2.819 2.781a1.432 1.432 0 1 1-2.012 2.038l-3.76-3.709a.583.583 0 0 0-.807 0 .514.514 0 0 0 0 .742l.91.9.029.029 1.88 1.855a1.432 1.432 0 0 1-2.012 2.038L9.317 15a.578.578 0 0 0-.8.011.514.514 0 0 0 0 .742l4.7 4.636a1.432 1.432 0 1 1-2.012 2.038zm-2.206-2.179h.019z" class="cls-1" data-name="Path 1759" transform="translate(-5.5 -5.503)"/>
        </g>
    </g>
</svg>
