<svg xmlns="http://www.w3.org/2000/svg" width="32.083" height="37.171" viewBox="0 0 32.083 37.171">
    <defs>
        <style>
            .cls-6{fill:#66b49d}.cls-7{fill:#f6f9f9}.cls-8{fill:#ddeafb}
        </style>
    </defs>
    <g id="list_1_" data-name="list (1)" transform="translate(-35.042)">
        <g id="Group_1156" data-name="Group 1156" transform="translate(35.042)">
            <g id="Group_1153" data-name="Group 1153">
                <g id="Group_1141" data-name="Group 1141">
                    <path id="Path_1690" fill="#ffc250" d="M56.965 74.865V43.5a1.373 1.373 0 0 0-1.373-1.373H36.415a1.373 1.373 0 0 0-1.373 1.373v31.365a1.373 1.373 0 0 0 1.373 1.373h19.177a1.373 1.373 0 0 0 1.373-1.373z" data-name="Path 1690" transform="translate(-35.042 -39.067)"/>
                    <path id="Path_1691" fill="#eab14d" d="M321.4 42.124h-4.6a1.373 1.373 0 0 1 1.373 1.373v31.367a1.373 1.373 0 0 1-1.373 1.373h4.6a1.373 1.373 0 0 0 1.373-1.373V43.5a1.373 1.373 0 0 0-1.373-1.376z" data-name="Path 1691" transform="translate(-296.352 -39.066)"/>
                    <path id="Path_1692" fill="#f5f5f5" d="M65.955 102.171V73.529a.491.491 0 0 1 .491-.491H87.4a.491.491 0 0 1 .491.491v28.643a.491.491 0 0 1-.491.491H66.446a.491.491 0 0 1-.491-.492z" data-name="Path 1692" transform="translate(-63.711 -67.735)"/>
                    <path id="Path_1693" fill="#eaeaea" d="M302.643 73.038h-4.6a.491.491 0 0 1 .491.491v28.643a.491.491 0 0 1-.491.491h4.6a.491.491 0 0 0 .491-.491V73.529a.491.491 0 0 0-.491-.491z" data-name="Path 1693" transform="translate(-278.954 -67.735)"/>
                    <path id="Path_1694" fill="#c2d0da" d="M144.634 1.709V.986a.986.986 0 0 0-.986-.986h-3.862a.986.986 0 0 0-.986.986v.723a.4.4 0 0 1-.4.4h-1.607a.968.968 0 0 0-.968.968V5.3h11.792V3.08a.968.968 0 0 0-.968-.968h-1.607a.4.4 0 0 1-.4-.4z" data-name="Path 1694" transform="translate(-128.505)"/>
                </g>
                <g id="Group_1146" data-name="Group 1146" transform="translate(5.099 8.081)">
                    <g id="Group_1142" data-name="Group 1142">
                        <path id="Path_1695" d="M105.278 116.5v-4.322a.867.867 0 0 1 .867-.867h4.322a.867.867 0 0 1 .867.867v4.322a.867.867 0 0 1-.867.867h-4.322a.867.867 0 0 1-.867-.867z" class="cls-6" data-name="Path 1695" transform="translate(-105.278 -111.31)"/>
                        <path id="Path_1696" d="M105.278 240.54v-4.322a.867.867 0 0 1 .867-.867h4.322a.867.867 0 0 1 .867.867v4.322a.867.867 0 0 1-.867.867h-4.322a.867.867 0 0 1-.867-.867z" class="cls-6" data-name="Path 1696" transform="translate(-105.278 -226.345)"/>
                        <path id="Path_1697" d="M105.278 364.579v-4.322a.867.867 0 0 1 .867-.867h4.322a.867.867 0 0 1 .867.867v4.322a.867.867 0 0 1-.867.867h-4.322a.867.867 0 0 1-.867-.867z" class="cls-6" data-name="Path 1697" transform="translate(-105.278 -341.379)"/>
                    </g>
                    <g id="Group_1143" data-name="Group 1143" transform="translate(1.27 1.48)">
                        <path id="Path_1698" d="M124.16 134.795a.782.782 0 0 1-.628-.321l-.655-.9a.561.561 0 1 1 .907-.66l.38.522 1.11-1.509a.561.561 0 0 1 .9.665l-1.388 1.885a.782.782 0 0 1-.626.318z" class="cls-7" data-name="Path 1698" transform="translate(-122.767 -131.699)"/>
                    </g>
                    <g id="Group_1144" data-name="Group 1144" transform="translate(1.27 10.681)">
                        <path id="Path_1699" d="M124.16 261.534a.782.782 0 0 1-.628-.321l-.655-.9a.561.561 0 1 1 .907-.66l.38.522 1.11-1.509a.561.561 0 1 1 .9.665l-1.388 1.885a.782.782 0 0 1-.626.318z" class="cls-7" data-name="Path 1699" transform="translate(-122.767 -258.438)"/>
                    </g>
                    <g id="Group_1145" data-name="Group 1145" transform="translate(1.27 19.491)">
                        <path id="Path_1700" d="M124.16 382.876a.782.782 0 0 1-.628-.321l-.655-.9a.561.561 0 0 1 .907-.66l.38.522 1.11-1.509a.561.561 0 1 1 .9.665l-1.388 1.885a.783.783 0 0 1-.626.318z" class="cls-7" data-name="Path 1700" transform="translate(-122.767 -379.78)"/>
                    </g>
                </g>
                <g id="Group_1149" data-name="Group 1149" transform="translate(13.388 9.376)">
                    <g id="Group_1147" data-name="Group 1147">
                        <path id="Path_1701" d="M226.946 130.275h-6.934a.561.561 0 1 1 0-1.122h6.934a.561.561 0 1 1 0 1.122z" class="cls-8" data-name="Path 1701" transform="translate(-219.451 -129.153)"/>
                    </g>
                    <g id="Group_1148" data-name="Group 1148" transform="translate(0 2.344)">
                        <path id="Path_1702" d="M223.48 162.562h-3.467a.561.561 0 1 1 0-1.122h3.467a.561.561 0 1 1 0 1.122z" class="cls-8" data-name="Path 1702" transform="translate(-219.452 -161.44)"/>
                    </g>
                </g>
                <g id="Group_1152" data-name="Group 1152" transform="translate(13.388 18.382)">
                    <g id="Group_1150" data-name="Group 1150">
                        <path id="Path_1703" d="M224.666 254.315h-4.653a.561.561 0 1 1 0-1.122h4.653a.561.561 0 0 1 0 1.122z" class="cls-8" data-name="Path 1703" transform="translate(-219.452 -253.193)"/>
                    </g>
                    <g id="Group_1151" data-name="Group 1151" transform="translate(0 2.344)">
                        <path id="Path_1704" d="M223.48 286.6h-3.467a.561.561 0 1 1 0-1.122h3.467a.561.561 0 0 1 0 1.122z" class="cls-8" data-name="Path 1704" transform="translate(-219.452 -285.48)"/>
                    </g>
                </g>
            </g>
            <g id="Group_1155" data-name="Group 1155" transform="translate(14.472 8.715)">
                <g id="Group_1154" data-name="Group 1154" transform="translate(.921)">
                    <path id="Path_1705" fill="#fc8086" d="M261.576 174.185l-.551-.726-2.061-1.3-.792-.125L247.62 188.7a4.343 4.343 0 0 0-.553 1.306 3.4 3.4 0 0 1 3.012 1.908 4.343 4.343 0 0 0 .944-1.058z" data-name="Path 1705" transform="translate(-247.067 -168.256)"/>
                    <path id="Path_1706" fill="#8c9ba6" d="M419.4 120.839l-.89-.564a1.487 1.487 0 0 0-2.053.461l-.817 1.29.26.525 2.478 1.569.665.061.817-1.291a1.487 1.487 0 0 0-.46-2.051z" data-name="Path 1706" transform="translate(-403.406 -120.044)"/>
                </g>
                <path id="Path_1707" fill="#c9e2e7" d="M0 0h2.12v4.029H0z" data-name="Path 1707" transform="rotate(-57.66 9.435 -9.04)"/>
                <path id="Path_1708" fill="#7c8b96" d="M238.312 421.6l-3 2.421a.57.57 0 0 1-.912-.578l.9-3.751a3.4 3.4 0 0 1 3.012 1.908z" data-name="Path 1708" transform="translate(-234.378 -397.937)"/>
                <path id="Path_1709" fill="#fb636f" d="M265.6 200.851l11.061-17.467-.948-.6-11.061 17.467a3.4 3.4 0 0 1 .948.6z" data-name="Path 1709" transform="translate(-262.453 -178.229)"/>
            </g>
        </g>
    </g>
</svg>
