<svg xmlns="http://www.w3.org/2000/svg" id="qr-code" width="32.8" height="32.8" viewBox="0 0 32.8 32.8">
    <defs>
        <style>
            .cls-5{fill:#001737}.cls-6{fill:#00357b}
        </style>
    </defs>
    <path id="Path_1710" fill="#ecf9fd" d="M103.422 82.677v17.068a2.679 2.679 0 0 1-2.677 2.677H83.677A2.679 2.679 0 0 1 81 99.745V82.677A2.679 2.679 0 0 1 83.677 80h17.069a2.679 2.679 0 0 1 2.676 2.677z" data-name="Path 1710" transform="translate(-75.811 -74.875)"/>
    <path id="Path_1711" fill="#d9f3fc" d="M267.211 82.677v17.068a2.679 2.679 0 0 1-2.677 2.677H256V80h8.534a2.679 2.679 0 0 1 2.677 2.677z" data-name="Path 1711" transform="translate(-239.6 -74.875)"/>
    <path id="Path_1712" fill="#58b354" d="M32.818 242.922H2.068a.961.961 0 0 1 0-1.922h30.75a.961.961 0 0 1 0 1.922z" data-name="Path 1712" transform="translate(-1.043 -225.561)"/>
    <path id="Path_1713" fill="#00a963" d="M271.375 242.922H256V241h15.375a.961.961 0 0 1 0 1.922z" data-name="Path 1713" transform="translate(-239.6 -225.561)"/>
    <path id="Path_1714" d="M377.283 8.136V3.545a1.625 1.625 0 0 0-1.623-1.623h-4.591a.961.961 0 0 1 0-1.922h4.591a3.549 3.549 0 0 1 3.54 3.545v4.591a.961.961 0 0 1-1.917 0z" class="cls-5" data-name="Path 1714" transform="translate(-346.405)"/>
    <path id="Path_1715" d="M375.66 379.2h-4.591a.961.961 0 0 1 0-1.922h4.591a1.625 1.625 0 0 0 1.623-1.623v-4.591a.961.961 0 0 1 1.922 0v4.591a3.549 3.549 0 0 1-3.545 3.545z" class="cls-5" data-name="Path 1715" transform="translate(-346.405 -346.405)"/>
    <path id="Path_1716" d="M0 8.136V3.545A3.549 3.549 0 0 1 3.545 0h4.591a.961.961 0 0 1 0 1.922H3.545a1.625 1.625 0 0 0-1.623 1.623v4.591a.961.961 0 0 1-1.922 0z" class="cls-6" data-name="Path 1716"/>
    <path id="Path_1717" d="M8.136 379.2H3.545A3.549 3.549 0 0 1 0 375.66v-4.591a.961.961 0 0 1 1.922 0v4.591a1.625 1.625 0 0 0 1.623 1.623h4.591a.961.961 0 0 1 0 1.917z" class="cls-6" data-name="Path 1717" transform="translate(0 -346.405)"/>
    <path id="Path_1718" d="M330.76 332.437h-3.048a.961.961 0 0 1 0-1.922h3.048a.756.756 0 0 0 .755-.755v-3.048a.961.961 0 0 1 1.922 0v3.048a2.68 2.68 0 0 1-2.677 2.677z" class="cls-5" data-name="Path 1718" transform="translate(-305.826 -304.891)"/>
    <path id="Path_1719" d="M331.515 85.724v-3.047a.756.756 0 0 0-.755-.755h-3.048a.961.961 0 0 1 0-1.922h3.048a2.68 2.68 0 0 1 2.677 2.677v3.048a.961.961 0 0 1-1.922-.001z" class="cls-5" data-name="Path 1719" transform="translate(-305.826 -74.875)"/>
    <g id="Group_1158" data-name="Group 1158" transform="translate(5.189 5.125)">
        <path id="Path_1720" d="M81 85.724v-3.047A2.68 2.68 0 0 1 83.677 80h3.048a.961.961 0 0 1 0 1.922h-3.048a.756.756 0 0 0-.755.755v3.048A.961.961 0 0 1 81 85.724z" class="cls-6" data-name="Path 1720" transform="translate(-81 -80)"/>
        <path id="Path_1721" d="M86.724 332.437h-3.047A2.68 2.68 0 0 1 81 329.761v-3.048a.961.961 0 0 1 1.922 0v3.048a.756.756 0 0 0 .755.755h3.048a.961.961 0 0 1-.001 1.921z" class="cls-6" data-name="Path 1721" transform="translate(-81 -310.016)"/>
    </g>
</svg>
