<svg xmlns="http://www.w3.org/2000/svg" width="32.8" height="33.679" viewBox="0 0 32.8 33.679">
    <defs>
        <style>
            .cls-2{fill:#efccbf}.cls-3{fill:#704d4d}.cls-4{fill:#3a6289}.cls-11{fill:#538457}
        </style>
    </defs>
    <g id="team" transform="translate(-.5 .001)">
        <path id="Path_1722" fill="#b4b4b5" d="M128.9 5.212a1.133 1.133 0 0 0-.586-1L121.286.175a1.064 1.064 0 0 0-1.171 0l-7.029 4.042a1.208 1.208 0 0 0-.586 1v9.254l8.2 4.686 8.2-4.686zm0 0" data-name="Path 1722" transform="translate(-103.8)"/>
        <path id="Path_1723" d="M157.771 68.831l5.271-2.987v-3.163a1.2 1.2 0 0 0-.82-1.113l-2.694-.937.82-.82a1.156 1.156 0 0 0 .351-.82v-4.218a1.175 1.175 0 0 0-1.171-1.171h-3.514a1.175 1.175 0 0 0-1.171 1.171v4.217a1.156 1.156 0 0 0 .351.82l.82.82-2.694.879a1.2 1.2 0 0 0-.82 1.113v3.163zm0 0" class="cls-2" data-name="Path 1723" transform="translate(-140.871 -49.678)"/>
        <path id="Path_1724" d="M184.5 58.441a1.325 1.325 0 0 1 1.347-1.347 1.558 1.558 0 0 1 .7.176l.879.586.937-.527a1.325 1.325 0 0 1 1.816.469 1.561 1.561 0 0 1 .176.7V55.57a1.175 1.175 0 0 0-1.171-1.171h-3.514a1.175 1.175 0 0 0-1.17 1.171zm0 0" class="cls-3" data-name="Path 1724" transform="translate(-170.529 -50.417)"/>
        <path id="Path_1725" d="M228.952 150.481l-2.694-.879-1.757 1.757 1.23 1.23a1.223 1.223 0 0 1 .293 1.23L224.5 157.8l5.271-2.987v-3.163a1.274 1.274 0 0 0-.819-1.169zm0 0" class="cls-4" data-name="Path 1725" transform="translate(-207.6 -138.65)"/>
        <path id="Path_1726" d="M156.307 153.818a1.088 1.088 0 0 1 .293-1.23l1.171-1.23-1.757-1.757-2.694.879a1.2 1.2 0 0 0-.82 1.113v3.163l5.271 2.987zm0 0" class="cls-4" data-name="Path 1726" transform="translate(-140.871 -138.649)"/>
        <path id="Path_1727" fill="#edd9be" d="M204.529 173.6l-1.23 1.23a1.223 1.223 0 0 0-.293 1.23l1.523 3.983 1.464-3.983a1.088 1.088 0 0 0-.293-1.23zm0 0" data-name="Path 1727" transform="translate(-187.629 -160.893)"/>
        <path id="Path_1728" fill="#d6d7d8" d="M16.9 212.245v-9.957L8.7 197.6l-7.614 4.334a1.208 1.208 0 0 0-.586 1v9.313l7.614 4.334a1.064 1.064 0 0 0 1.171 0zm0 0" data-name="Path 1728" transform="translate(0 -183.136)"/>
        <path id="Path_1729" d="M57.461 250.971a4.281 4.281 0 0 0-4.627-3.924 4.22 4.22 0 0 0-3.924 3.924l-.41 5.916h9.371zm0 0" class="cls-3" data-name="Path 1729" transform="translate(-44.485 -228.949)"/>
        <path id="Path_1730" d="M50.164 284.631l-2.4-.7a1.129 1.129 0 0 1-.879-1.113v-.879l.469-.937a1.716 1.716 0 0 0 .117-.527v-1.113a1.757 1.757 0 0 0-3.514 0v1.113a1.709 1.709 0 0 0 .117.527l.468.937v.879a1.129 1.129 0 0 1-.879 1.113l-2.284.7a1.129 1.129 0 0 0-.879 1.113v2.343l4.686 2.694a1.064 1.064 0 0 0 1.171 0l4.686-2.694v-2.343a1.129 1.129 0 0 0-.879-1.113zm0 0" class="cls-2" data-name="Path 1730" transform="translate(-37.071 -257.279)"/>
        <path id="Path_1731" fill="#d3756e" d="M44.19 360l-.176.176a.447.447 0 0 1-.293.117l-2.343.7a1.129 1.129 0 0 0-.879 1.113v2.343l4.686 2.694a.99.99 0 0 0 .586.176v-5.74zm0 0" data-name="Path 1731" transform="translate(-37.071 -333.644)"/>
        <path id="Path_1732" fill="#e57e73" d="M88.5 365.7l1.171.644a1.064 1.064 0 0 0 1.171 0l4.686-2.694v-2.343a1.129 1.129 0 0 0-.879-1.113l-2.4-.7a1.274 1.274 0 0 1-.468-.293l-1.523 1.64L88.5 362.6zm0 0" data-name="Path 1732" transform="translate(-81.557 -332.902)"/>
        <path id="Path_1733" fill="#e9e9e9" d="M240.9 202.99a1.133 1.133 0 0 0-.586-1l-7.614-4.39-8.2 4.686v9.957l7.614 4.334a1.064 1.064 0 0 0 1.171 0l7.614-4.334zm0 0" data-name="Path 1733" transform="translate(-207.6 -183.135)"/>
        <path id="Path_1734" d="M275.043 292.338a1.2 1.2 0 0 0-.82-1.113l-2.694-.937 1-1.464a1.183 1.183 0 0 0 .176-.644v-1.991l-2.929-.586-2.929.586v1.991a1.183 1.183 0 0 0 .176.644l1 1.464-2.694.879a1.2 1.2 0 0 0-.82 1.113v3.163l4.686 2.694a1.064 1.064 0 0 0 1.171 0l4.686-2.694zm0 0" class="cls-2" data-name="Path 1734" transform="translate(-244.671 -264.693)"/>
        <path id="Path_1735" fill="#5da364" d="M271.529 349.6a2.168 2.168 0 0 1-3.046.468 3.548 3.548 0 0 1-.468-.468l-2.694.879a1.2 1.2 0 0 0-.82 1.113v3.163l4.686 2.694a1.064 1.064 0 0 0 1.171 0l4.686-2.694v-3.163a1.2 1.2 0 0 0-.82-1.113zm0 0" data-name="Path 1735" transform="translate(-244.671 -324.007)"/>
        <path id="Path_1736" d="M297.671 253.6a1.175 1.175 0 0 0-1.171 1.171v1.757l2.929-.586 2.929.586V253.6zm0 0" class="cls-3" data-name="Path 1736" transform="translate(-274.329 -235.036)"/>
        <g id="Group_1159" data-name="Group 1159" transform="translate(24.514 27.938)">
            <path id="Path_1737" d="M328.5 381.6h1.171v1.171H328.5zm0 0" class="cls-11" data-name="Path 1737" transform="translate(-328.5 -381.602)"/>
            <path id="Path_1738" d="M328.5 413.6h1.171v1.171H328.5zm0 0" class="cls-11" data-name="Path 1738" transform="translate(-328.5 -411.259)"/>
            <path id="Path_1739" d="M360.5 381.6h1.757v1.171H360.5zm0 0" class="cls-11" data-name="Path 1739" transform="translate(-358.157 -381.602)"/>
        </g>
        <path id="Path_1740" fill="#4282b7" d="M264.5 181.6h1.171v1.171H264.5zm0 0" data-name="Path 1740" transform="translate(-244.671 -168.307)"/>
        <path id="Path_1741" fill="#f78b7c" d="M136.5 389.6h1.757v1.171H136.5zm0 0" data-name="Path 1741" transform="translate(-126.043 -361.078)"/>
    </g>
</svg>
