<svg xmlns="http://www.w3.org/2000/svg" id="prefix__call" width="20" height="20" viewBox="0 0 20 20">
    <g id="prefix__Group_87" data-name="Group 87">
        <path id="prefix__Path_311" fill="#27bfc0" d="M18.4 13.128a11.355 11.355 0 0 1-3.566-.568 1.63 1.63 0 0 0-1.585.334L11 14.592a12.428 12.428 0 0 1-5.593-5.587l1.648-2.19a1.617 1.617 0 0 0 .4-1.638A11.373 11.373 0 0 1 6.883 1.6 1.607 1.607 0 0 0 5.278 0H1.6A1.607 1.607 0 0 0 0 1.6 18.416 18.416 0 0 0 18.4 20a1.607 1.607 0 0 0 1.6-1.6v-3.667a1.607 1.607 0 0 0-1.6-1.605z" data-name="Path 311"/>
    </g>
</svg>
