<svg xmlns="http://www.w3.org/2000/svg" id="prefix__Edit_icon" width="30" height="30" data-name="Edit icon" viewBox="0 0 30 30">
    <path id="prefix__Exclusion_1" fill="#707070" d="M15 30A15 15 0 0 1 4.394 4.393a15 15 0 1 1 21.213 21.214A14.9 14.9 0 0 1 15 30zM8.571 18.685L6.857 24l5.315-1.715-3.6-3.6zm9.568-9.595l-8.364 8.364 3.636 3.637 8.363-8.363-3.635-3.638zm2.6-2.233a.85.85 0 0 0-.6.257l-.771.771 3.6 3.6.772-.772a.827.827 0 0 0 0-1.2l-2.4-2.4a.846.846 0 0 0-.598-.256z" data-name="Exclusion 1"/>
</svg>
