<svg xmlns="http://www.w3.org/2000/svg" width="20.04" height="20" viewBox="0 0 20.04 20">
    <defs>
        <style>
            .prefix__cls-1{fill:#27bfc0}
        </style>
    </defs>
    <g id="prefix__global" transform="translate(0 -.316)">
        <path id="prefix__Path_312" d="M231.816 348.532c1.532-.218 2.876-1.817 3.721-4.179a18.189 18.189 0 0 0-3.721-.438zm0 0" class="prefix__cls-1" data-name="Path 312" transform="translate(-221.438 -328.215)"/>
        <path id="prefix__Path_313" d="M279.81 361.241c.091-.026.181-.053.27-.082s.15-.051.225-.077.176-.062.263-.095.148-.058.222-.088l.255-.107c.074-.032.147-.066.22-.1s.165-.079.247-.12l.215-.112q.12-.065.239-.132c.072-.041.141-.081.211-.123l.232-.143c.069-.044.137-.088.2-.134s.15-.1.224-.157l.2-.143c.072-.055.145-.112.217-.17s.127-.1.19-.154l.21-.183.182-.163c.06-.055.135-.13.2-.2s.116-.113.173-.172l.031-.034a12.041 12.041 0 0 0-2.454-.944 8.888 8.888 0 0 1-2.289 3.717l.087-.021c.08-.017.155-.04.23-.063zm0 0" class="prefix__cls-1" data-name="Path 313" transform="translate(-266.983 -341.301)"/>
        <path id="prefix__Path_314" d="M340.576 231.684h-4.294a18.574 18.574 0 0 1-.723 4.955 12.455 12.455 0 0 1 2.718 1.082 10.007 10.007 0 0 0 2.299-6.037zm0 0" class="prefix__cls-1" data-name="Path 314" transform="translate(-320.536 -221.009)"/>
        <path id="prefix__Path_315" d="M231.816 113.721h4.651a17.917 17.917 0 0 0-.705-4.779 18.865 18.865 0 0 1-3.946.471zm0 0" class="prefix__cls-1" data-name="Path 315" transform="translate(-221.438 -103.762)"/>
        <path id="prefix__Path_316" d="M231.816.316v4.618a18.2 18.2 0 0 0 3.721-.438c-.845-2.362-2.189-3.962-3.721-4.179zm0 0" class="prefix__cls-1" data-name="Path 316" transform="translate(-221.438)"/>
        <path id="prefix__Path_317" d="M231.816 235.992a18.877 18.877 0 0 1 3.946.471 17.918 17.918 0 0 0 .705-4.779h-4.651zm0 0" class="prefix__cls-1" data-name="Path 317" transform="translate(-221.437 -221.009)"/>
        <path id="prefix__Path_318" d="M338.276 80.844a12.456 12.456 0 0 1-2.718 1.082 18.572 18.572 0 0 1 .723 4.955h4.294a10.01 10.01 0 0 0-2.3-6.037zm0 0" class="prefix__cls-1" data-name="Path 318" transform="translate(-320.535 -76.922)"/>
        <path id="prefix__Path_319" d="M284.2 9.569l-.031-.033-.173-.172-.2-.2c-.067-.068-.121-.108-.182-.163s-.139-.124-.21-.183-.125-.1-.188-.152-.145-.116-.219-.171-.13-.1-.2-.143-.15-.108-.226-.159l-.2-.132c-.065-.043-.155-.1-.234-.146l-.209-.122-.241-.134c-.081-.044-.143-.075-.215-.111s-.165-.082-.251-.121l-.218-.1c-.074-.033-.171-.072-.256-.107s-.147-.06-.222-.088l-.263-.095-.225-.077c-.076-.025-.179-.055-.271-.082-.074-.022-.149-.044-.225-.064l-.087-.022a8.888 8.888 0 0 1 2.289 3.717 12.019 12.019 0 0 0 2.457-.945zm0 0" class="prefix__cls-1" data-name="Path 319" transform="translate(-266.946 -6.19)"/>
        <path id="prefix__Path_320" d="M0 86.881h4.294a18.581 18.581 0 0 1 .723-4.955A12.441 12.441 0 0 1 2.3 80.844 10.007 10.007 0 0 0 0 86.881zm0 0" class="prefix__cls-1" data-name="Path 320" transform="translate(0 -76.922)"/>
        <path id="prefix__Path_321" d="M136.416 348.531v-4.617a18.2 18.2 0 0 0-3.721.438c.845 2.362 2.189 3.962 3.721 4.179zm0 0" class="prefix__cls-1" data-name="Path 321" transform="translate(-126.754 -328.215)"/>
        <path id="prefix__Path_322" d="M116.572 231.684h-4.651a17.911 17.911 0 0 0 .705 4.779 18.853 18.853 0 0 1 3.946-.471zm0 0" class="prefix__cls-1" data-name="Path 322" transform="translate(-106.91 -221.009)"/>
        <path id="prefix__Path_323" d="M136.416.316c-1.532.218-2.876 1.817-3.721 4.179a18.178 18.178 0 0 0 3.721.438zm0 0" class="prefix__cls-1" data-name="Path 323" transform="translate(-126.754)"/>
        <path id="prefix__Path_324" d="M116.573 109.412a18.866 18.866 0 0 1-3.946-.471 17.91 17.91 0 0 0-.705 4.779h4.651zm0 0" class="prefix__cls-1" data-name="Path 324" transform="translate(-106.911 -103.762)"/>
        <path id="prefix__Path_325" d="M66.933 6.789l-.087.021c-.076.02-.151.043-.226.065l-.269.081c-.09.028-.151.051-.226.077s-.175.062-.262.095-.149.058-.223.089l-.255.107c-.074.032-.147.066-.22.1s-.165.079-.247.12l-.215.112q-.12.065-.239.132t-.211.123c-.078.047-.155.1-.231.143s-.137.088-.2.134-.15.1-.224.157l-.2.143c-.073.055-.143.112-.217.17s-.128.1-.19.154-.14.12-.209.182-.123.108-.183.164-.134.129-.2.195-.116.113-.173.172l-.031.034a12.024 12.024 0 0 0 2.454.945 8.884 8.884 0 0 1 2.288-3.715zm0 0" class="prefix__cls-1" data-name="Path 325" transform="translate(-59.407 -6.183)"/>
        <path id="prefix__Path_326" d="M62.431 358.711l.2.2c.067.068.121.107.182.162s.139.124.21.183.125.1.188.152.143.116.219.172.13.1.2.143.15.107.227.159l.2.133c.065.044.155.1.234.146l.209.122c.07.04.16.09.241.133s.143.075.215.111.165.082.251.121l.218.1c.074.033.17.072.256.107s.147.06.222.088.175.065.263.095l.225.077c.076.025.179.056.271.082.075.022.149.044.225.064l.087.022a8.89 8.89 0 0 1-2.289-3.717 12.024 12.024 0 0 0-2.454.945l.031.033c.053.056.111.111.169.167zm0 0" class="prefix__cls-1" data-name="Path 326" transform="translate(-59.445 -341.252)"/>
        <path id="prefix__Path_327" d="M2.3 237.72a12.457 12.457 0 0 1 2.718-1.082 18.581 18.581 0 0 1-.723-4.955H0a10.008 10.008 0 0 0 2.3 6.037zm0 0" class="prefix__cls-1" data-name="Path 327" transform="translate(0 -221.008)"/>
    </g>
</svg>
