<svg xmlns="http://www.w3.org/2000/svg" width="20" height="16.682" viewBox="0 0 20 16.682">
    <defs>
        <style>
            .cls-1{fill:#27bfc0}
        </style>
    </defs>
    <g id="education" transform="translate(0 -42.468)">
        <path id="Path_1768" d="M19.609 45.823L10.195 42.5a.586.586 0 0 0-.39 0L.391 45.823a.586.586 0 0 0 0 1.1L9.8 50.274a.586.586 0 0 0 .392 0l9.414-3.347a.586.586 0 0 0 0-1.1z" class="cls-1" data-name="Path 1768"/>
        <path id="Path_1769" d="M432.611 202.845v-5.111l-1.172.417v4.694a1.176 1.176 0 0 0 0 2.041v2.88a.586.586 0 0 0 1.172 0v-2.879a1.177 1.177 0 0 0 0-2.041z" class="cls-1" data-name="Path 1769" transform="translate(-414.018 -149.201)"/>
        <path id="Path_1770" d="M111.325 224.395a1.753 1.753 0 0 1-.589-.1l-5.292-1.881v2.578c0 .631.658 1.164 1.956 1.586a13.813 13.813 0 0 0 7.85 0c1.3-.421 1.956-.955 1.956-1.586v-2.578l-5.292 1.881a1.754 1.754 0 0 1-.589.1z" class="cls-1" data-name="Path 1770" transform="translate(-101.325 -172.915)"/>
    </g>
</svg>
