<svg xmlns="http://www.w3.org/2000/svg" width="20" height="19.143" viewBox="0 0 20 19.143">
    <defs>
        <style>
            .cls-1{fill:#27bfc0}
        </style>
    </defs>
    <g id="star_1_" data-name="star (1)" transform="translate(0 -10.971)">
        <path id="Path_1777" d="M65.3 21.248l-5.224-.485L58 15.945a.419.419 0 0 0-.769 0l-2.075 4.819-5.224.485a.419.419 0 0 0-.238.731l3.942 3.463-1.157 5.117a.419.419 0 0 0 .622.452l4.511-2.679 4.511 2.679a.419.419 0 0 0 .622-.452l-1.154-5.118 3.942-3.463a.419.419 0 0 0-.233-.731z" class="cls-1" data-name="Path 1777" transform="translate(-47.612 -4.536)"/>
        <g id="Group_1219" data-name="Group 1219" transform="translate(0 10.971)">
            <path id="Path_1778" d="M90.173 11.243c.266.37 1.018 1.959 1.448 2.884a.145.145 0 0 1-.232.167c-.742-.7-2.01-1.918-2.276-2.288a.653.653 0 1 1 1.06-.763z" class="cls-1" data-name="Path 1778" transform="translate(-85.514 -10.971)"/>
            <path id="Path_1779" d="M356.747 11.243c-.266.37-1.018 1.959-1.448 2.884a.145.145 0 0 0 .232.167c.742-.7 2.01-1.918 2.276-2.288a.653.653 0 1 0-1.06-.763z" class="cls-1" data-name="Path 1779" transform="translate(-341.406 -10.971)"/>
            <path id="Path_1780" d="M418 283.224c-.433-.141-2.175-.375-3.188-.5a.145.145 0 0 0-.089.271c.893.494 2.438 1.332 2.871 1.473a.653.653 0 0 0 .4-1.242z" class="cls-1" data-name="Path 1780" transform="translate(-398.449 -272.105)"/>
            <path id="Path_1781" d="M.451 283.224c.433-.141 2.175-.375 3.188-.5a.145.145 0 0 1 .089.271c-.893.494-2.438 1.332-2.871 1.473a.653.653 0 0 1-.405-1.242z" class="cls-1" data-name="Path 1781" transform="translate(0 -272.105)"/>
            <path id="Path_1782" d="M239.794 403.008c0-.456.318-2.184.51-3.187a.145.145 0 0 1 .285 0c.192 1 .51 2.731.51 3.187a.653.653 0 0 1-1.306 0z" class="cls-1" data-name="Path 1782" transform="translate(-230.427 -384.518)"/>
        </g>
        <path id="Path_1783" d="M58.751 17.7L58 15.945a.419.419 0 0 0-.769 0l-2.075 4.819-5.224.485a.419.419 0 0 0-.238.731l3.942 3.463-1.157 5.117a.419.419 0 0 0 .622.452l.6-.357a32.5 32.5 0 0 1 5.05-12.955z" class="cls-1" data-name="Path 1783" transform="translate(-47.612 -4.536)"/>
    </g>
</svg>
