<svg xmlns="http://www.w3.org/2000/svg" width="25" height="25" viewBox="0 0 25 25">
    <defs>
        <style>
            .cls-1{fill:#27bfc0}
        </style>
    </defs>
    <g id="translate">
        <path id="Path_1773" d="M167.49 208.867h-9.414a2.7 2.7 0 0 0-2.694 2.694v5.115l-2.439 1.742a.732.732 0 0 0 0 1.192l2.468 1.763a2.7 2.7 0 0 0 2.664 2.3h9.414a2.7 2.7 0 0 0 2.694-2.694v-9.419a2.7 2.7 0 0 0-2.694-2.694zm-3.165 10.292c-.173 0-.306-.055-.345-.2l-.3-1.044h-1.8l-.3 1.044c-.039.149-.173.2-.345.2-.275 0-.643-.172-.643-.423a.454.454 0 0 1 .016-.079l1.514-4.935a.637.637 0 0 1 .651-.345c.3 0 .588.11.659.345l1.514 4.935a.347.347 0 0 1 .016.079c.006.242-.362.422-.637.422zm0 0" class="cls-1" data-name="Path 1773" transform="translate(-145.184 -198.668)"/>
        <path id="Path_1774" d="M346.375 330.787h1.365l-.683-2.408zm0 0" class="cls-1" data-name="Path 1774" transform="translate(-329.462 -312.345)"/>
        <path id="Path_1775" d="M8.734 12.892a4.138 4.138 0 0 1 .917-2.6A3.93 3.93 0 0 1 7.4 9.586a3.929 3.929 0 0 1-2.25.706.413.413 0 0 1 0-.826 3.109 3.109 0 0 0 1.6-.443 3.94 3.94 0 0 1-1.031-2.271H5.15a.413.413 0 1 1 0-.826h1.838v-1a.413.413 0 1 1 .826 0v1h1.837a.413.413 0 1 1 0 .826h-.569a3.94 3.94 0 0 1-1.033 2.271 3.105 3.105 0 0 0 1.6.443.413.413 0 0 1 .412.383 4.142 4.142 0 0 1 2.83-1.115H14.8V6.993l2.44-1.742a.733.733 0 0 0 0-1.192L14.772 2.3A2.7 2.7 0 0 0 12.107 0H2.694A2.7 2.7 0 0 0 0 2.693v9.414A2.7 2.7 0 0 0 2.694 14.8h6.04zm0 0" class="cls-1" data-name="Path 1775"/>
        <path id="Path_1776" d="M135.033 140.033a3.118 3.118 0 0 0 .849-1.755h-1.7a3.121 3.121 0 0 0 .851 1.755zm0 0" class="cls-1" data-name="Path 1776" transform="translate(-127.632 -131.526)"/>
    </g>
</svg>
