<svg xmlns="http://www.w3.org/2000/svg" id="facebook" width="20" height="20" viewBox="0 0 20 20">
    <defs>
        <style>
            .cls-1{fill:#27bfc0}
        </style>
    </defs>
    <path id="Path_1673" d="M297.277 508.668q-3.2.521-6.422.961 3.223-.44 6.422-.961zm0 0" class="cls-1" data-name="Path 1673" transform="translate(-283.044 -492)"/>
    <path id="Path_1674" d="M302.4 507.793c-1.02.188-2.039.359-3.059.535 1.018-.176 2.037-.348 3.059-.535zm0 0" class="cls-1" data-name="Path 1674" transform="translate(-289.375 -492)"/>
    <path id="Path_1675" d="M285.137 510.34q-3.744.422-7.527.742 3.779-.316 7.527-.742zm0 0" class="cls-1" data-name="Path 1675" transform="translate(-270.746 -492)"/>
    <path id="Path_1676" d="M290.055 509.738c-1.2.16-2.406.309-3.609.449 1.203-.14 2.41-.287 3.609-.449zm0 0" class="cls-1" data-name="Path 1676" transform="translate(-277.211 -492)"/>
    <path id="Path_1677" d="M309.367 506.41c-.9.191-1.8.383-2.7.566.899-.183 1.802-.376 2.7-.566zm0 0" class="cls-1" data-name="Path 1677" transform="translate(-296.249 -492)"/>
    <path id="Path_1678" d="M326.664 502.113c-.727.207-1.453.4-2.18.605.727-.203 1.453-.398 2.18-.605zm0 0" class="cls-1" data-name="Path 1678" transform="translate(-313.142 -492)"/>
    <path id="Path_1679" d="M321.434 503.543c-.789.207-1.582.418-2.375.617q1.189-.299 2.375-.617zm0 0" class="cls-1" data-name="Path 1679" transform="translate(-308.025 -492)"/>
    <path id="Path_1680" d="M314.59 505.254c-.836.2-1.68.379-2.523.566.843-.187 1.687-.371 2.523-.566zm0 0" class="cls-1" data-name="Path 1680" transform="translate(-301.362 -492)"/>
    <path id="Path_1681" d="M277.527 511.09q-2.021.17-4.047.3 2.027-.13 4.047-.3zm0 0" class="cls-1" data-name="Path 1681" transform="translate(-264.891 -492)"/>
    <path id="Path_1682" d="M20 10a10 10 0 1 0-10 10h.176v-7.787H8.027v-2.5h2.148V7.867a3.008 3.008 0 0 1 3.211-3.3 17.686 17.686 0 0 1 1.926.1V6.9H14c-1.037 0-1.238.493-1.238 1.216v1.593h2.48l-.323 2.5H12.76v7.4A10.005 10.005 0 0 0 20 10zm0 0" class="cls-1" data-name="Path 1682"/>
    <path id="Path_1683" d="M272.914 511.43q-4 .258-8.023.4 4.025-.136 8.023-.4zm0 0" class="cls-1" data-name="Path 1683" transform="translate(-258.596 -492)"/>
    <path id="Path_1684" d="M264.754 511.836q-2.121.07-4.25.105 2.127-.035 4.25-.105zm0 0" class="cls-1" data-name="Path 1684" transform="translate(-252.423 -492)"/>
</svg>
