<svg xmlns="http://www.w3.org/2000/svg" id="linkedin_1_" width="20" height="20" data-name="linkedin (1)" viewBox="0 0 20 20">
    <path id="Path_1685" fill="#27bfc0" d="M10 0A10 10 0 1 1 0 10 10 10 0 0 1 10 0z" data-name="Path 1685"/>
    <path id="Path_1686" fill="#fff" d="M81.943 81.57h1.873v-6.241h-1.873zm7.3-6.457a2.811 2.811 0 0 0-2.3 1.064v-.869H85.06v6.262h1.879v-3.386a1.487 1.487 0 0 1 1.477-1.414c.821 0 1.024.7 1.024 1.4v3.4h1.873v-3.543c-.001-2.461-1.166-2.914-2.075-2.914zm-6.372-.413a.937.937 0 1 0-.938-.937.938.938 0 0 0 .938.937z" data-name="Path 1686" transform="translate(-76.308 -67.83)"/>
</svg>
