<svg xmlns="http://www.w3.org/2000/svg" id="prefix__register" width="25" height="25" viewBox="0 0 25 25">
    <defs>
        <style>
            .prefix__cls-1{fill:#fff}
        </style>
    </defs>
    <path id="prefix__Path_1227" d="M12.594 2.083h-1.146a2.87 2.87 0 0 0-5.521 0H4.781A.787.787 0 0 0 4 2.865v1.562A1.832 1.832 0 0 0 5.823 6.25h5.729a1.832 1.832 0 0 0 1.823-1.823V2.865a.787.787 0 0 0-.781-.782z" class="prefix__cls-1" data-name="Path 1227" transform="translate(.167)"/>
    <path id="prefix__Path_1228" d="M14.844 3h-.26v1.3a2.863 2.863 0 0 1-2.865 2.865H5.99A2.863 2.863 0 0 1 3.125 4.3V3h-.26A2.863 2.863 0 0 0 0 5.865v13.02a2.863 2.863 0 0 0 2.865 2.865h6.864a9.1 9.1 0 0 1-.864-3.65H3.906a.781.781 0 0 1 0-1.562h5.042a9.533 9.533 0 0 1 .458-1.823h-5.5a.781.781 0 0 1 0-1.562h6.25a9.066 9.066 0 0 1 1.444-1.82H3.9a.781.781 0 0 1 0-1.563h9.84a8.981 8.981 0 0 1 3.968-1.03V5.865A2.863 2.863 0 0 0 14.844 3z" class="prefix__cls-1" data-name="Path 1228" transform="translate(0 .125)"/>
    <path id="prefix__Path_1229" d="M17.531 10.5a7.031 7.031 0 1 0 7.031 7.031 7.039 7.039 0 0 0-7.031-7.031zm3.388 5.634L17.273 20.3a1.04 1.04 0 0 1-.749.355h-.034a1.041 1.041 0 0 1-.736-.305l-2.084-2.082a1.042 1.042 0 0 1 1.473-1.473l1.3 1.3 2.913-3.329a1.042 1.042 0 1 1 1.568 1.373z" class="prefix__cls-1" data-name="Path 1229" transform="translate(.438 .438)"/>
</svg>
