<?xml version="1.0" encoding="utf-8"?>
<!-- Generator: Adobe Illustrator 23.0.3, SVG Export Plug-In . SVG Version: 6.00 Build 0)  -->
<svg version="1.1" id="dashboard" xmlns="http://www.w3.org/2000/svg" xmlns:xlink="http://www.w3.org/1999/xlink" x="0px" y="0px"
	 viewBox="0 0 20 20" style="enable-background:new 0 0 20 20;" xml:space="preserve">
<style type="text/css">
	.st0{fill:#FFFFFF;}
</style>
<path id="Path_339" class="st0" d="M7.7,0H1.5C0.7,0,0,0.7,0,1.5v3.8C0,6,0.7,6.7,1.5,6.7h6.3c0.8,0,1.5-0.7,1.5-1.5V1.5
	C9.2,0.7,8.5,0,7.7,0z"/>
<path id="Path_340" class="st0" d="M7.7,8.3H1.5C0.7,8.3,0,9,0,9.8v8.8C0,19.3,0.7,20,1.5,20h6.3c0.8,0,1.5-0.7,1.5-1.5V9.8
	C9.2,9,8.5,8.3,7.7,8.3z"/>
<path id="Path_341" class="st0" d="M18.5,13.3h-6.3c-0.8,0-1.5,0.7-1.5,1.5v3.8c0,0.8,0.7,1.5,1.5,1.5h6.3c0.8,0,1.5-0.7,1.5-1.5
	v-3.8C20,14,19.3,13.3,18.5,13.3z"/>
<path id="Path_342" class="st0" d="M18.5,0h-6.3c-0.8,0-1.5,0.7-1.5,1.5v8.8c0,0.8,0.7,1.5,1.5,1.5h6.3c0.8,0,1.5-0.7,1.5-1.5V1.5
	C20,0.7,19.3,0,18.5,0z"/>
</svg>
