<?xml version="1.0" encoding="utf-8"?>
<!-- Generator: Adobe Illustrator 23.0.3, SVG Export Plug-In . SVG Version: 6.00 Build 0)  -->
<svg version="1.1" id="Layer_1" xmlns="http://www.w3.org/2000/svg" xmlns:xlink="http://www.w3.org/1999/xlink" x="0px" y="0px"
	 viewBox="0 0 20 20" style="enable-background:new 0 0 20 20;" xml:space="preserve">
<style type="text/css">
	.st0{fill:#FFFFFF;}
</style>
<g id="equalizer" transform="rotate(90 10 10)">
	<g id="Group_1046" transform="translate(0 7.143)">
		<g id="Group_1045">
			<path id="Path_1255" class="st0" d="M19.3,2.1H7.8C7.4,0.6,5.8-0.3,4.3,0.1c-1,0.3-1.8,1-2.1,2.1H0.7C0.3,2.1,0,2.5,0,2.9
				c0,0.4,0.3,0.7,0.7,0.7h1.5C2.6,5.1,4.2,6,5.7,5.6c1-0.3,1.8-1,2.1-2.1h11.5c0.4,0,0.7-0.3,0.7-0.7C20,2.5,19.7,2.1,19.3,2.1
				L19.3,2.1z M5,4.3c-0.8,0-1.4-0.6-1.4-1.4S4.2,1.4,5,1.4s1.4,0.6,1.4,1.4S5.8,4.3,5,4.3L5,4.3z"/>
		</g>
	</g>
	<g id="Group_1048">
		<g id="Group_1047">
			<path id="Path_1256" class="st0" d="M19.3,2.1H17c-0.4-1.5-1.9-2.4-3.5-2.1c-1,0.3-1.8,1-2.1,2.1H0.7C0.3,2.1,0,2.5,0,2.9
				s0.3,0.7,0.7,0.7h10.8C11.9,5.1,13.5,6,15,5.6c1-0.3,1.8-1,2.1-2.1h2.2c0.4,0,0.7-0.3,0.7-0.7S19.7,2.1,19.3,2.1L19.3,2.1
				L19.3,2.1z M14.3,4.3c-0.8,0-1.4-0.6-1.4-1.4s0.6-1.4,1.4-1.4s1.4,0.6,1.4,1.4v0C15.7,3.6,15.1,4.3,14.3,4.3L14.3,4.3z"/>
		</g>
	</g>
	<g id="Group_1050" transform="translate(0 14.285)">
		<g id="Group_1049">
			<path id="Path_1257" class="st0" d="M19.3,2.1h-3.7c-0.4-1.5-1.9-2.4-3.5-2.1c-1,0.3-1.8,1-2.1,2.1H0.7C0.3,2.1,0,2.5,0,2.9
				c0,0.4,0.3,0.7,0.7,0.7h9.4C10.5,5.1,12,6,13.6,5.6c1-0.3,1.8-1,2.1-2.1h3.7c0.4,0,0.7-0.3,0.7-0.7C20,2.5,19.7,2.1,19.3,2.1
				L19.3,2.1L19.3,2.1z M12.9,4.3c-0.8,0-1.4-0.6-1.4-1.4s0.6-1.4,1.4-1.4s1.4,0.6,1.4,1.4l0,0C14.3,3.6,13.6,4.3,12.9,4.3L12.9,4.3
				z"/>
		</g>
	</g>
</g>
</svg>
