<?xml version="1.0" encoding="utf-8"?>
<!-- Generator: Adobe Illustrator 23.0.3, SVG Export Plug-In . SVG Version: 6.00 Build 0)  -->
<svg version="1.1" id="Layer_1" xmlns="http://www.w3.org/2000/svg" xmlns:xlink="http://www.w3.org/1999/xlink" x="0px" y="0px"
	 viewBox="0 0 23.6 20" style="enable-background:new 0 0 23.6 20;" xml:space="preserve">
<style type="text/css">
	.st0{fill:#FFFFFF;}
</style>
<g id="group" transform="translate(0 -38.84)">
	<g id="Group_48" transform="translate(18.35 49.638)">
		<g id="Group_47">
			<path id="Path_254" class="st0" d="M1.8,0H0c0.2,0.5,0.3,1.1,0.3,1.6v6.9c0,0.2,0,0.5-0.1,0.7h3c1.1,0,2-0.9,2-2V3.4
				C5.2,1.5,3.7,0,1.8,0L1.8,0z"/>
		</g>
	</g>
	<g id="Group_50" transform="translate(0 49.638)">
		<g id="Group_49">
			<path id="Path_255" class="st0" d="M4.9,1.6C4.9,1.1,5,0.5,5.2,0H3.4C1.5,0,0,1.5,0,3.4v3.8c0,1.1,0.9,2,2,2h3
				C5,9,4.9,8.7,4.9,8.5L4.9,1.6z"/>
		</g>
	</g>
	<g id="Group_52" transform="translate(6.301 47.864)">
		<g id="Group_51">
			<path id="Path_256" class="st0" d="M7.6,0H3.4C1.5,0,0,1.5,0,3.4v6.9C0,10.7,0.3,11,0.7,11h9.6c0.4,0,0.7-0.3,0.7-0.7V3.4
				C11,1.5,9.5,0,7.6,0z"/>
		</g>
	</g>
	<g id="Group_54" transform="translate(7.695 38.84)">
		<g id="Group_53">
			<path id="Path_257" class="st0" d="M4.1,0C1.8,0,0,1.8,0,4.1c0,2.3,1.8,4.1,4.1,4.1c2.3,0,4.1-1.8,4.1-4.1C8.2,1.8,6.4,0,4.1,0z"
				/>
		</g>
	</g>
	<g id="Group_56" transform="translate(1.54 42.655)">
		<g id="Group_55">
			<path id="Path_258" class="st0" d="M3.1,0C1.4,0,0,1.4,0,3.1c0,1.7,1.4,3.1,3.1,3.1c1.7,0,3.1-1.4,3.1-3.1C6.1,1.4,4.7,0,3.1,0z"
				/>
		</g>
	</g>
	<g id="Group_58" transform="translate(15.915 42.655)">
		<g id="Group_57">
			<path id="Path_259" class="st0" d="M3.1,0C1.4,0,0,1.4,0,3.1s1.4,3.1,3.1,3.1c1.7,0,3.1-1.4,3.1-3.1C6.1,1.4,4.8,0,3.1,0z"/>
		</g>
	</g>
</g>
</svg>
