<?xml version="1.0" encoding="utf-8"?>
<!-- Generator: Adobe Illustrator 23.0.3, SVG Export Plug-In . SVG Version: 6.00 Build 0)  -->
<svg version="1.1" id="list" xmlns="http://www.w3.org/2000/svg" xmlns:xlink="http://www.w3.org/1999/xlink" x="0px" y="0px"
	 viewBox="0 0 20 20" style="enable-background:new 0 0 20 20;" xml:space="preserve">
<style type="text/css">
	.st0{fill:#FFFFFF;}
</style>
<path id="Path_1274" class="st0" d="M2.8,5.6C1.3,5.6,0,4.4,0,2.8S1.3,0,2.8,0s2.8,1.3,2.8,2.8c0,0,0,0,0,0C5.6,4.4,4.4,5.6,2.8,5.6
	z M2.8,1.3c-0.9,0-1.6,0.7-1.6,1.6c0,0.9,0.7,1.6,1.6,1.6s1.6-0.7,1.6-1.6c0,0,0,0,0,0C4.4,2,3.7,1.3,2.8,1.3z"/>
<path id="Path_1275" class="st0" d="M2.8,12.8C1.3,12.8,0,11.6,0,10s1.3-2.8,2.8-2.8S5.6,8.4,5.6,10c0,0,0,0,0,0
	C5.6,11.6,4.4,12.8,2.8,12.8z M2.8,8.4c-0.9,0-1.6,0.7-1.6,1.6s0.7,1.6,1.6,1.6c0.9,0,1.6-0.7,1.6-1.6C4.4,9.1,3.7,8.4,2.8,8.4z"/>
<path id="Path_1276" class="st0" d="M2.8,20C1.3,20,0,18.7,0,17.2c0-1.6,1.3-2.8,2.8-2.8s2.8,1.3,2.8,2.8c0,0,0,0,0,0
	C5.6,18.7,4.4,20,2.8,20z M2.8,15.6c-0.9,0-1.6,0.7-1.6,1.6s0.7,1.6,1.6,1.6s1.6-0.7,1.6-1.6l0,0C4.4,16.3,3.7,15.6,2.8,15.6z"/>
<path id="Path_1277" class="st0" d="M17.2,5.6H9.7c-1.6,0-2.8-1.3-2.8-2.9C7,1.2,8.2,0,9.7,0h7.5c1.6,0,2.8,1.3,2.8,2.9
	C19.9,4.4,18.7,5.6,17.2,5.6z"/>
<path id="Path_1278" class="st0" d="M17.2,12.8H9.7c-1.6,0-2.8-1.3-2.8-2.9c0-1.5,1.2-2.7,2.8-2.8h7.5c1.6,0,2.8,1.3,2.8,2.9
	C19.9,11.6,18.7,12.8,17.2,12.8z"/>
<path id="Path_1279" class="st0" d="M17.2,20H9.7c-1.6,0-2.8-1.3-2.8-2.9c0-1.5,1.2-2.7,2.8-2.8h7.5c1.6,0,2.8,1.3,2.8,2.9
	C19.9,18.8,18.7,20,17.2,20z"/>
</svg>
