<?xml version="1.0" encoding="utf-8"?>
<!-- Generator: Adobe Illustrator 23.0.3, SVG Export Plug-In . SVG Version: 6.00 Build 0)  -->
<svg version="1.1" id="register" xmlns="http://www.w3.org/2000/svg" xmlns:xlink="http://www.w3.org/1999/xlink" x="0px" y="0px"
	 viewBox="0 0 25 25" style="enable-background:new 0 0 25 25;" xml:space="preserve">
<style type="text/css">
	.st0{fill:#FFFFFF;}
</style>
<path id="Path_1227" class="st0" d="M12.8,2.1h-1.1c-0.4-1.5-2-2.4-3.5-2c-1,0.3-1.7,1-2,2H4.9c-0.4,0-0.8,0.4-0.8,0.8v1.6
	c0,1,0.8,1.8,1.8,1.8h5.7c1,0,1.8-0.8,1.8-1.8V2.9C13.5,2.4,13.2,2.1,12.8,2.1z"/>
<path id="Path_1228" class="st0" d="M14.8,3.1h-0.3v1.3c0,1.6-1.3,2.9-2.9,2.9c0,0,0,0,0,0H6C4.4,7.3,3.1,6,3.1,4.4c0,0,0,0,0,0V3.1
	H2.9C1.3,3.1,0,4.4,0,6c0,0,0,0,0,0v13c0,1.6,1.3,2.9,2.9,2.9c0,0,0,0,0,0h6.9c-0.5-1.1-0.8-2.4-0.9-3.6h-5c-0.4,0-0.8-0.3-0.8-0.8
	s0.3-0.8,0.8-0.8h5C9,16,9.2,15.4,9.4,14.8H3.9c-0.4,0-0.8-0.3-0.8-0.8s0.3-0.8,0.8-0.8h6.3c0.4-0.7,0.9-1.3,1.4-1.8H3.9
	c-0.4,0-0.8-0.3-0.8-0.8s0.3-0.8,0.8-0.8h9.8c1.2-0.6,2.6-1,4-1V6C17.7,4.4,16.4,3.1,14.8,3.1C14.8,3.1,14.8,3.1,14.8,3.1z"/>
<path id="Path_1229" class="st0" d="M18,10.9c-3.9,0-7,3.1-7,7s3.1,7,7,7s7-3.1,7-7l0,0C25,14.1,21.9,10.9,18,10.9z M21.4,16.6
	l-3.6,4.2c-0.2,0.2-0.5,0.3-0.7,0.4h0c-0.3,0-0.5-0.1-0.7-0.3l-2.1-2.1c-0.4-0.4-0.4-1.1,0-1.5c0.4-0.4,1-0.4,1.4,0l1.3,1.3l2.9-3.3
	c0.4-0.4,1-0.5,1.5-0.1C21.7,15.5,21.7,16.1,21.4,16.6L21.4,16.6z"/>
</svg>
