<?xml version="1.0" encoding="utf-8"?>
<!-- Generator: Adobe Illustrator 23.0.3, SVG Export Plug-In . SVG Version: 6.00 Build 0)  -->
<svg version="1.1" id="Layer_1" xmlns="http://www.w3.org/2000/svg" xmlns:xlink="http://www.w3.org/1999/xlink" x="0px" y="0px"
	 viewBox="0 0 20 20" style="enable-background:new 0 0 20 20;" xml:space="preserve">
<style type="text/css">
	.st0{fill:#FFFFFF;}
</style>
<g id="scan_-_fill">
	<path id="Path_1272" class="st0" d="M0,17.8C0,19,1,20,2.2,20h15.7c1.2,0,2.2-1,2.2-2.2v-7.3H0V17.8z M13.3,15.6h1.9
		c0.3,0,0.5-0.2,0.5-0.5v-1.9c0-0.3,0.3-0.6,0.6-0.6s0.6,0.3,0.6,0.6v1.9c0,0.9-0.7,1.6-1.6,1.6h-1.9c-0.3,0-0.6-0.3-0.6-0.6
		C12.8,15.9,13,15.6,13.3,15.6z M3.2,13.3c0-0.3,0.3-0.6,0.6-0.6c0.3,0,0.6,0.3,0.6,0.6v1.9c0,0.3,0.2,0.5,0.5,0.5h1.9
		c0.3,0,0.6,0.3,0.6,0.6c0,0.3-0.3,0.6-0.6,0.6H4.8c-0.9,0-1.6-0.7-1.6-1.6L3.2,13.3z"/>
	<path id="Path_1273" class="st0" d="M17.8,0H2.2C1,0,0,1,0,2.2v7.3h20V2.2C20,1,19,0,17.8,0z M6.7,4.3H4.8c-0.3,0-0.5,0.2-0.5,0.5
		v1.9c0,0.3-0.3,0.6-0.6,0.6c-0.3,0-0.6-0.3-0.6-0.6V4.8c0-0.9,0.7-1.6,1.6-1.6h1.9c0.3,0,0.6,0.3,0.6,0.6S7,4.3,6.7,4.3L6.7,4.3z
		 M16.8,6.6c0,0.3-0.3,0.6-0.6,0.6c-0.3,0-0.6-0.3-0.6-0.6V4.8c0-0.3-0.2-0.5-0.5-0.5h-1.9c-0.3,0-0.6-0.3-0.6-0.6
		c0-0.3,0.3-0.6,0.6-0.6h1.9c0.9,0,1.6,0.7,1.6,1.6L16.8,6.6z"/>
</g>
</svg>
