<svg xmlns="http://www.w3.org/2000/svg" width="20" height="16.667" viewBox="0 0 20 16.667">
    <defs>
        <style>
            .cls-1{fill:#fff}
        </style>
    </defs>
    <g id="work" transform="translate(0 -2)">
        <path id="Path_1267" d="M13.833 5.75A.834.834 0 0 1 13 4.917v-1.25H9.667v1.25a.833.833 0 1 1-1.667 0v-1.25A1.668 1.668 0 0 1 9.667 2H13a1.668 1.668 0 0 1 1.667 1.667v1.25a.834.834 0 0 1-.834.833z" class="cls-1" data-name="Path 1267" transform="translate(-1.333)"/>
        <path id="Path_1268" d="M10.592 14.753a1.716 1.716 0 0 1-.592.1 1.826 1.826 0 0 1-.642-.117L0 11.62v6.358a2.29 2.29 0 0 0 2.292 2.292h15.416A2.29 2.29 0 0 0 20 17.978V11.62z" class="cls-1" data-name="Path 1268" transform="translate(0 -1.603)"/>
        <path id="Path_1269" d="M20 7.292V9.2l-9.8 3.267a.617.617 0 0 1-.4 0L0 9.2V7.292A2.29 2.29 0 0 1 2.292 5h15.416A2.29 2.29 0 0 1 20 7.292z" class="cls-1" data-name="Path 1269" transform="translate(0 -.5)"/>
    </g>
</svg>
