<svg xmlns="http://www.w3.org/2000/svg" width="600" height="467.304" viewBox="0 0 600 467.304">
    <defs>
        <style>
            .cls-1{fill:#ebebeb}.cls-2{fill:#f5f5f5}.cls-3{fill:#e6e6e6}.cls-12,.cls-18,.cls-5{fill:#fff}.cls-5{opacity:.5}.cls-6{fill:#fafafa}.cls-7{fill:#e0e0e0}.cls-9{fill:#274483}.cls-10{fill:#7f3e3b}.cls-11{fill:#263238}.cls-12{opacity:.4}.cls-13{opacity:.2}.cls-15{opacity:.3}.cls-16{fill:#ffc3bd}.cls-18{opacity:.1}
        </style>
    </defs>
    <g id="Business_deal-rafiki" data-name="Business deal-rafiki" transform="translate(0 -38.14)">
        <g id="freepik--background-complete--inject-62" transform="translate(0 38.14)">
            <path id="Rectangle_119" d="M0 0H600V0.3H0z" class="cls-1" data-name="Rectangle 119" transform="translate(0 413.112)"/>
            <path id="Rectangle_120" d="M0 0H39.744V0.3H0z" class="cls-1" data-name="Rectangle 120" transform="translate(394.656 422.64)"/>
            <path id="Rectangle_121" d="M0 0H49.368V0.3H0z" class="cls-1" data-name="Rectangle 121" transform="translate(479.736 422.796)"/>
            <path id="Rectangle_122" d="M0 0H23.028V0.3H0z" class="cls-1" data-name="Rectangle 122" transform="translate(428.112 430.632)"/>
            <path id="Rectangle_123" d="M0 0H62.004V0.3H0z" class="cls-1" data-name="Rectangle 123" transform="translate(208.8 428.364)"/>
            <path id="Rectangle_124" d="M0 0H41.268V0.3H0z" class="cls-1" data-name="Rectangle 124" transform="translate(156.852 428.364)"/>
            <path id="Rectangle_125" d="M0 0H56.208V0.3H0z" class="cls-1" data-name="Rectangle 125" transform="translate(75.948 423.3)"/>
            <path id="Path_1405" d="M276.758 394.36H45.05a6.852 6.852 0 0 1-6.84-6.852V61.792A6.852 6.852 0 0 1 45.05 55h231.708a6.852 6.852 0 0 1 6.852 6.852v325.656a6.852 6.852 0 0 1-6.852 6.852zM45.05 55.24a6.552 6.552 0 0 0-6.54 6.552v325.716a6.552 6.552 0 0 0 6.54 6.552h231.708a6.564 6.564 0 0 0 6.552-6.552V61.792a6.564 6.564 0 0 0-6.552-6.552z" class="cls-1" data-name="Path 1405" transform="translate(7.642 -34.768)"/>
            <path id="Path_1406" d="M493.072 394.36h-231.72a6.864 6.864 0 0 1-6.852-6.852V61.792A6.864 6.864 0 0 1 261.352 55h231.72a6.852 6.852 0 0 1 6.828 6.792v325.716a6.852 6.852 0 0 1-6.828 6.852zM261.352 55.24a6.564 6.564 0 0 0-6.552 6.552v325.716a6.564 6.564 0 0 0 6.552 6.552h231.72a6.564 6.564 0 0 0 6.552-6.552V61.792a6.564 6.564 0 0 0-6.552-6.552z" class="cls-1" data-name="Path 1406" transform="translate(50.9 -34.768)"/>
            <path id="Rectangle_126" d="M0 0H167.148V326.088H0z" class="cls-2" data-name="Rectangle 126" transform="translate(41.736)"/>
            <path id="Path_1407" d="M109.266 344.736H65.67V149.9l43.6-14.244z" class="cls-1" data-name="Path 1407" transform="translate(13.134 -18.636)"/>
            <path id="Path_1408" d="M139.6 336.958H96V188.794l43.6-14.244z" class="cls-3" data-name="Path 1408" transform="translate(19.2 -10.858)"/>
            <path id="Path_1409" d="M129.724 189.428h-10.4v-35.352l10.4-3.4z" class="cls-3" data-name="Path 1409" transform="translate(23.864 -15.632)"/>
            <path id="Rectangle_127" d="M0 0H167.148V326.088H0z" class="cls-2" data-name="Rectangle 127" transform="translate(216.072)"/>
            <path id="Rectangle_128" d="M0 0H49.068V115.824H0z" class="cls-3" data-name="Rectangle 128" transform="translate(216.072 210.276)"/>
            <path id="Rectangle_129" d="M0 0H167.148V326.088H0z" class="cls-2" data-name="Rectangle 129" transform="translate(391.128)"/>
            <path id="Path_1410" d="M440.8 351.34h-35.47V116.9l35.47-14.26z" class="cls-1" data-name="Path 1410" transform="translate(81.066 -25.24)"/>
            <path id="Path_1411" d="M472.486 336.958h-43.6V188.794l43.6-14.244z" class="cls-3" data-name="Path 1411" transform="translate(85.778 -10.858)"/>
            <path id="Path_1412" d="M335 330.924h87.192V215.736L335 204.66z" class="cls-3" data-name="Path 1412" transform="translate(67 -4.836)"/>
            <path id="Path_1413" d="M461.758 189.428h-5.208v-35.352l5.208-3.4z" class="cls-3" data-name="Path 1413" transform="translate(91.31 -15.632)"/>
            <path id="Path_1414" d="M447.576 196.52h-5.2v-35.352l5.2-3.408z" class="cls-3" data-name="Path 1414" transform="translate(88.476 -14.216)"/>
            <path id="Path_1415" d="M58.716 229.22h19.86v96.8H45.78v-83.864a12.936 12.936 0 0 1 12.936-12.936z" class="cls-1" data-name="Path 1415" transform="translate(9.156 .076)"/>
            <path id="Rectangle_130" d="M0 0H43.572V93.408H0z" class="cls-1" data-name="Rectangle 130" transform="translate(165.312 232.692)"/>
            <path id="Path_1416" d="M264.522 246.522L220.95 232.05v93.408h43.572z" class="cls-1" data-name="Path 1416" transform="translate(44.19 .642)"/>
            <path id="Path_1417" d="M278.272 246.522L234.7 232.05v93.408h43.572z" class="cls-3" data-name="Path 1417" transform="translate(46.94 .642)"/>
            <path id="Path_1418" fill="#f0f0f0" d="M271.01 234.162l43.572-14.472v108.24H271.01z" data-name="Path 1418" transform="translate(54.202 -1.83)"/>
            <path id="Path_1419" d="M118.336 364.228H73.42L166 38.14h44.916z" class="cls-5" data-name="Path 1419" transform="translate(14.684 -38.14)"/>
            <path id="Path_1420" d="M230.536 364.228H185.62L278.188 38.14h44.928z" class="cls-5" data-name="Path 1420" transform="translate(37.124 -38.14)"/>
            <path id="Path_1421" d="M277.386 364.228H232.47L325.05 38.14h44.916z" class="cls-5" data-name="Path 1421" transform="translate(46.494 -38.14)"/>
            <path id="Path_1422" d="M363.742 364.228H341.29L433.87 38.14h22.452z" class="cls-5" data-name="Path 1422" transform="translate(68.258 -38.14)"/>
            <path id="Path_1423" d="M110.84 352.788c12.96-69.5 47.112-102.12 76.176-118.728-27.84 26.328-46.776 117.42-76.176 118.728z" class="cls-6" data-name="Path 1423" transform="translate(22.168 1.044)"/>
            <path id="Path_1424" d="M95.872 342.04c-9.6-52.392-32.676-72.888-52.212-81.6 18.852 16.488 32.652 84.9 52.212 81.6z" class="cls-6" data-name="Path 1424" transform="translate(8.732 6.32)"/>
            <path id="Path_1425" d="M110.852 360.722c-3.7-75.36-32.4-108.444-58.212-124.332 23.424 26.71 30.12 125.352 58.212 124.332z" class="cls-6" data-name="Path 1425" transform="translate(10.528 1.51)"/>
            <path id="Path_1426" d="M101.15 356.134c6-75.72 38.016-111.156 66.48-129.144-26.136 28.61-36 127.872-66.48 129.144z" class="cls-6" data-name="Path 1426" transform="translate(20.23 -.37)"/>
            <path id="Path_1427" d="M110.616 369.952c9.6-77.784-11.628-124.656-33.156-152.832 17.448 37.944 6.552 140.64 33.156 152.832z" class="cls-6" data-name="Path 1427" transform="translate(15.492 -2.344)"/>
            <path id="Path_1428" d="M130 334.3c24.228-45.312 54.624-56.112 78-57.216-24.732 8.588-57.864 67.316-78 57.216z" class="cls-6" data-name="Path 1428" transform="translate(26 9.648)"/>
            <path id="Path_1429" d="M125.81 340.074c15.276-51.348 44.2-73.2 67.956-83.3-23.556 17.588-45.072 84.74-67.956 83.3z" class="cls-6" data-name="Path 1429" transform="translate(25.162 5.586)"/>
            <path id="Path_1430" d="M105.032 371.428C131.144 290.9 119.348 241.24 103.34 211c9.76 40.236-22.872 146.64 1.692 160.428z" class="cls-6" data-name="Path 1430" transform="translate(19.132 -3.568)"/>
            <path id="Path_1431" d="M66.55 320.56v50.664c0 12.948 23.364 23.544 51.936 23.544 28.56 0 51.936-10.6 51.936-23.544V320.56z" class="cls-2" data-name="Path 1431" transform="translate(13.31 18.344)"/>
            <path id="Path_1432" d="M406.986 362.06c-2.868-47.8-23.448-70.224-41.916-81.6 16.848 18.06 21.936 80.724 41.916 81.6z" class="cls-7" data-name="Path 1432" transform="translate(73.014 10.324)"/>
            <path id="Path_1433" d="M416.64 354.706c11.064-36 28.68-50.136 42.816-56.136-14.34 11.316-29.7 58.392-42.816 56.136z" class="cls-7" data-name="Path 1433" transform="translate(83.328 13.946)"/>
            <path id="Path_1434" d="M406.07 367.548c9.036-51.816 31.548-74.568 50.6-85.488-18.284 18.348-31.484 86.172-50.6 85.488z" class="cls-7" data-name="Path 1434" transform="translate(81.214 10.644)"/>
            <path id="Path_1435" d="M412.27 364.39c2.4-52.08-16.44-76.44-34.38-88.8 15.432 19.692 13.61 87.924 34.38 88.8z" class="cls-7" data-name="Path 1435" transform="translate(75.578 9.35)"/>
            <path id="Path_1436" d="M403 373.886c.132-53.484 18.732-85.716 35.916-105.1C423.7 294.89 422.26 365.5 403 373.886z" class="cls-7" data-name="Path 1436" transform="translate(80.6 7.99)"/>
            <path id="Path_1437" d="M395.734 349.368c-12.708-31.2-32.592-38.592-48.5-39.348 16.184 5.904 33.812 46.296 48.5 39.348z" class="cls-7" data-name="Path 1437" transform="translate(69.446 16.236)"/>
            <path id="Path_1438" d="M396.926 353.348c-6-35.316-23.94-50.3-39.336-57.288 14.604 12.096 23.544 58.272 39.336 57.288z" class="cls-7" data-name="Path 1438" transform="translate(71.518 13.444)"/>
            <path id="Path_1439" d="M404.779 374.9c-10.932-55.38 1.44-89.52 15.012-110.3-10.152 27.648 2.964 100.812-15.012 110.3z" class="cls-7" data-name="Path 1439" transform="translate(80.117 7.152)"/>
            <path id="Path_1440" d="M441.142 340v34.8c0 8.892-16.044 16.164-35.652 16.164s-35.64-7.272-35.64-16.164V340z" class="cls-2" data-name="Path 1440" transform="translate(73.97 22.232)"/>
        </g>
        <g id="freepik--Shadow--inject-62" transform="translate(67.332 478.276)">
            <ellipse id="freepik--path--inject-62" cx="232.668" cy="13.584" class="cls-2" rx="232.668" ry="13.584"/>
        </g>
        <g id="freepik--Contract--inject-62" transform="translate(272.808 100.936)">
            <path id="Path_1441" fill="#fff" d="M274.83 136.468V152.2a4.2 4.2 0 0 1-4.188 4.188h-38.6a4.2 4.2 0 0 1-4.188-4.188V95.164A4.2 4.2 0 0 1 232.038 91h38.544a4.2 4.2 0 0 1 4.248 4.164v24.888" data-name="Path 1441" transform="translate(-227.238 -90.364)"/>
            <path id="Path_1442" d="M270.684 157.178H232.14a4.8 4.8 0 0 1-4.8-4.8V95.27a4.8 4.8 0 0 1 4.8-4.8h38.544a4.8 4.8 0 0 1 4.8 4.8v24.888h-1.272V95.27a3.6 3.6 0 0 0-3.6-3.6H232.14a3.6 3.6 0 0 0-3.6 3.6v57.036a3.6 3.6 0 0 0 3.6 3.6h38.544a3.6 3.6 0 0 0 3.6-3.6v-15.732h1.272v15.732a4.8 4.8 0 0 1-4.872 4.872z" class="cls-9" data-name="Path 1442" transform="translate(-227.34 -90.47)"/>
            <path id="Path_1443" d="M245.148 139.546a22.169 22.169 0 0 1 2.46-1.332 12.011 12.011 0 0 1 1.2-.468 4.5 4.5 0 0 1 1.416-.324l-.492-.276c-.084-.132-.132.2-.156.288l-.168.42a3.708 3.708 0 0 0-.3.936.744.744 0 0 0 .78.936 9.828 9.828 0 0 0 3.54-1.38h-.444c.132 0 .288.18.42.228a2.052 2.052 0 0 0 .612.12 9.143 9.143 0 0 1 1.4 0c.732.072.72-1.068 0-1.128a6.854 6.854 0 0 1-1.488 0c-.48-.108-.624-.444-1.128-.216s-.912.528-1.4.732a6.86 6.86 0 0 1-.7.252l-.456.132c-.132 0-.372 0-.18.192l.168.4c0-.768.816-1.488.6-2.28s-1.2-.444-1.788-.3a16.8 16.8 0 0 0-4.5 2.064.567.567 0 1 0 .564.984z" class="cls-7" data-name="Path 1443" transform="translate(-223.956 -81.31)"/>
            <path id="Rectangle_131" d="M0 0H37.98V1.26H0z" class="cls-7" data-name="Rectangle 131" transform="translate(5.076 9.144)"/>
            <path id="Rectangle_132" d="M0 0H33.684V1.26H0z" class="cls-7" data-name="Rectangle 132" transform="translate(5.076 18.084)"/>
            <path id="Rectangle_133" d="M0 0H37.98V1.26H0z" class="cls-7" data-name="Rectangle 133" transform="translate(5.076 27.036)"/>
            <path id="Rectangle_134" d="M0 0H10.44V1.26H0z" class="cls-7" data-name="Rectangle 134" transform="translate(5.076 35.988)"/>
            <path id="Rectangle_135" d="M0 0H13.884V1.26H0z" class="cls-7" data-name="Rectangle 135" transform="translate(19.896 35.988)"/>
            <path id="Rectangle_136" d="M0 0H37.98V1.26H0z" class="cls-7" data-name="Rectangle 136" transform="translate(5.076 44.928)"/>
            <path id="Path_1444" d="M236.9 143.182a5.856 5.856 0 1 1 5.856-5.856 5.856 5.856 0 0 1-5.856 5.856zm0-10.44a4.6 4.6 0 1 0 4.6 4.584 4.6 4.6 0 0 0-4.6-4.584z" class="cls-9" data-name="Path 1444" transform="translate(-226.6 -82.27)"/>
            <path id="Path_1445" d="M239.952 136.924a3.456 3.456 0 1 1-3.456-3.444 3.456 3.456 0 0 1 3.456 3.444z" class="cls-9" data-name="Path 1445" transform="translate(-226.2 -81.868)"/>
            <path id="Path_1446" d="M255.08 140.39a10.656 10.656 0 0 1 1.7-4.6c.864-1.308 1.908-2.4 2.868-3.684q2.9-3.6 6-7.2c4.056-4.716 8.172-9.384 12.66-13.764a.648.648 0 0 1 1 .792c-3.24 5.364-6.852 10.44-10.524 15.468-1.848 2.5-3.72 4.98-5.64 7.428-.972 1.2-1.86 2.5-2.94 3.6a10.632 10.632 0 0 1-4.08 2.712.768.768 0 0 1-.96-.456.8.8 0 0 1-.084-.296z" class="cls-9" data-name="Path 1446" transform="translate(-221.792 -86.366)"/>
            <path id="Rectangle_137" d="M0 0H10.464V1.26H0z" class="cls-9" data-name="Rectangle 137" transform="rotate(-41.09 152.191 13.666)"/>
            <path id="Rectangle_138" d="M0 0H15.252V1.26H0z" class="cls-9" data-name="Rectangle 138" transform="rotate(-77.35 74.742 35.584)"/>
            <path id="Rectangle_139" d="M0 0H1.26V6.42H0z" class="cls-9" data-name="Rectangle 139" transform="rotate(-43.12 131.346 30.927)"/>
        </g>
        <g id="freepik--character-2--inject-62" transform="translate(288.324 88.866)">
            <path id="Path_1447" d="M318.97 412.23h-10.212l-1.248-23.64h10.2z" class="cls-10" data-name="Path 1447" transform="translate(-226.822 -18.776)"/>
            <path id="Path_1448" d="M362.328 412.23h-10.212l-4-23.64h10.2z" class="cls-10" data-name="Path 1448" transform="translate(-218.7 -18.776)"/>
            <path id="Path_1449" d="M353.95 407.3h11.46a.84.84 0 0 1 .84.7l1.584 9.072a1.6 1.6 0 0 1-1.584 1.824c-4-.072-5.928-.312-10.98-.312-3.1 0-11.46.324-15.744.324s-4.644-4.236-2.88-4.62c7.956-1.716 12.984-4.092 15.6-6.348a2.6 2.6 0 0 1 1.7-.636z" class="cls-11" data-name="Path 1449" transform="translate(-221.194 -15.034)"/>
            <path id="Path_1450" d="M311.911 407.3h11.136a.84.84 0 0 1 .84.7l1.584 9.072a1.572 1.572 0 0 1-1.56 1.824c-4.008-.072-9.816-.312-14.868-.312-5.9 0-7.4.324-14.34.324-4.188 0-5.148-4.236-3.372-4.62 8.064-1.74 10.98-1.932 18.072-6.18a4.92 4.92 0 0 1 2.508-.808z" class="cls-11" data-name="Path 1450" transform="translate(-230.227 -15.034)"/>
            <path id="Path_1451" d="M318.855 144.092L304.911 140s-14.208 33.756-19.02 36c-6.54 3-24 12.2-31.392 16.548-.5 1.668-.516 6.24.288 7.56 12.108-.96 36.948-9.18 41.724-13.764 10.896-10.464 22.344-42.252 22.344-42.252z" class="cls-10" data-name="Path 1451" transform="translate(-237.495 -68.494)"/>
            <path id="Path_1452" d="M317.662 140.143c3.96 8.832-23.232 47.568-23.232 47.568l-13.2-13.7s11.676-29.316 18-40.56c6.456-11.56 14.124-3.028 18.432 6.692z" class="cls-9" data-name="Path 1452" transform="translate(-232.078 -70.918)"/>
            <path id="Path_1453" d="M317.662 140.143c3.96 8.832-23.232 47.568-23.232 47.568l-13.2-13.7s11.676-29.316 18-40.56c6.456-11.56 14.124-3.028 18.432 6.692z" class="cls-12" data-name="Path 1453" transform="translate(-232.078 -70.918)"/>
            <path id="Path_1454" d="M280.932 165.32c-.828.492-2.6 3.72-3 5.328s8.892 14.016 12.5 13.512 7.74-4.02 8.484-5.916-16.244-13.944-17.984-12.924z" class="cls-9" data-name="Path 1454" transform="translate(-232.74 -63.442)"/>
            <path id="Path_1455" d="M257.13 183.406l-8.4-1.536.5 12s2.952 1.2 9.312-2.736z" class="cls-10" data-name="Path 1455" transform="translate(-238.578 -60.12)"/>
            <path id="Path_1456" d="M240.27 185.864l1.536 7.38 9.06.672-.5-12.036z" class="cls-10" data-name="Path 1456" transform="translate(-240.27 -60.118)"/>
            <path id="Path_1457" d="M307.51 388.6l.648 12.18h10.2l-.636-12.18z" class="cls-13" data-name="Path 1457" transform="translate(-226.822 -18.774)"/>
            <path id="Path_1458" d="M358.332 388.6H348.12l2.064 12.18H360.4z" class="cls-13" data-name="Path 1458" transform="translate(-218.7 -18.774)"/>
            <path id="Path_1459" d="M302.083 128.59s-13.62 35.064-4.908 92.46h54.588c.768-8.4-2.4-53.508 7.524-92.988a139.262 139.262 0 0 0-18.168-2.316 202.206 202.206 0 0 0-23.208 0 105.335 105.335 0 0 0-15.828 2.844z" class="cls-9" data-name="Path 1459" transform="translate(-229.471 -71.412)"/>
            <path id="Path_1460" d="M302.083 128.59s-13.62 35.064-4.908 92.46h54.588c.768-8.4-2.4-53.508 7.524-92.988a139.262 139.262 0 0 0-18.168-2.316 202.206 202.206 0 0 0-23.208 0 105.335 105.335 0 0 0-15.828 2.844z" class="cls-13" data-name="Path 1460" transform="translate(-229.471 -71.412)"/>
            <path id="Path_1461" d="M338.249 136.742c-1.2 6.5.084 22.044 5.424 40.008a262.726 262.726 0 0 1 6-45.828v-.072c-3.624-.372-10.26-.204-11.424 5.892z" class="cls-13" data-name="Path 1461" transform="translate(-220.757 -70.348)"/>
            <path id="Path_1462" d="M335.483 107.61c-1.824 7.464-2.988 16.716 1.992 21.7 0 0-3.36 7.584-17.232 7.584-12.684 0-6-7.584-6-7.584 8.4-1.98 8.484-12.276 7.308-18.084z" class="cls-10" data-name="Path 1462" transform="translate(-225.827 -74.972)"/>
            <path id="Path_1463" d="M319 133.708c8.172 2.556 9.792 5.172 9.792 5.172s10.188-4.14 9.8-13.116a20.53 20.53 0 0 0-3.984-2.3s-.86 6.644-15.608 10.244z" class="cls-9" data-name="Path 1463" transform="translate(-224.524 -71.802)"/>
            <path id="Path_1464" d="M320.622 133.5c-4.584.432-8.4 4.356-8.4 4.356s-2.916-3.06-.12-11.94c0 0 2.724-.924 4.98-1.4-.06.006-1.896 7.062 3.54 8.984z" class="cls-9" data-name="Path 1464" transform="translate(-226.146 -71.592)"/>
            <path id="Path_1465" d="M320.168 111.234c.7 3.4.96 8.4-.648 12.252a13.728 13.728 0 0 0 3.78-1.2c4.8-2.208 7.272-5.7 9.936-10.8.24-1.332.528-2.628.84-3.876z" class="cls-13" data-name="Path 1465" transform="translate(-224.42 -74.972)"/>
            <path id="Path_1466" d="M319.795 87.756c-3.264 1.068-10.56 7.332-3.6 10.488s9.288-12.336 3.6-10.488z" class="cls-11" data-name="Path 1466" transform="translate(-225.667 -78.974)"/>
            <path id="Path_1467" d="M342.195 102.961c-3.18 9.792-4.548 15.6-10.8 19.68-9.4 6-20.256-1.2-20-11.544.216-9.372 5.376-23.808 15.948-25.668s18.032 7.771 14.852 17.532z" class="cls-10" data-name="Path 1467" transform="translate(-226.047 -79.455)"/>
            <path id="Path_1468" d="M326.24 93.2c-5.4.912-9.9.624-11.532-3.864s5.8-9.192 10.92-7.08c3.78-3.936 14.1-.912 15.432 2.868 6-.384 11.676 6.528 7.608 10.068a7.128 7.128 0 0 1 1.2 11.172c1.752 5.208-4.56 10.4-9.54 8.292-4.908-1.464-7.584-.264-8.268-3.432s1.044-6.228 5.22-6.84c-2.112-2.52-2.628-6.5-1.2-8.22-5.052 2.294-9.192-.586-9.84-2.964z" class="cls-11" data-name="Path 1468" transform="translate(-225.428 -80.412)"/>
            <path id="Path_1469" d="M319.072 109.014a7.272 7.272 0 0 0 5.316-1.7.252.252 0 0 0 0-.348.228.228 0 0 0-.336 0 6.9 6.9 0 0 1-5.832 1.44.252.252 0 0 0-.288.192.216.216 0 0 0 .18.276 9.6 9.6 0 0 0 .96.14z" class="cls-11" data-name="Path 1469" transform="translate(-224.74 -75.117)"/>
            <path id="Path_1470" d="M339.2 112.565a10.044 10.044 0 0 1-7.2 2.076c-3.348-.372-3.6-3.672-1.5-6.168 1.9-2.256 5.928-4.8 8.724-3.144s2.488 5.244-.024 7.236z" class="cls-10" data-name="Path 1470" transform="translate(-222.492 -75.535)"/>
            <path id="Path_1471" d="M333.459 205.114s-1.392 12.84-3.168 30.228c-2.04 19.716-4.572 45.312-6.18 64.8v.264c-.312 3.708-.588 7.2-.816 10.344-2.28 31.812 1.8 124.356 1.8 124.356h-17.3s-15.936-94.44-15.54-126.816c.372-31.116 5.316-103.2 5.316-103.2z" class="cls-9" data-name="Path 1471" transform="translate(-229.875 -55.476)"/>
            <path id="Path_1472" d="M324.256 391.256c.084 0-.3 7.128-.3 7.128h-19.932l-.5-7.824z" class="cls-11" data-name="Path 1472" transform="translate(-227.62 -18.382)"/>
            <path id="Path_1473" d="M325.718 232.68c-2.04 19.716-4.572 45.312-6.18 64.8v.264c-3.8-18.492-4.992-41.484-3.516-79.344z" class="cls-13" data-name="Path 1473" transform="translate(-225.242 -52.814)"/>
            <path id="Path_1474" d="M312.82 205.11s7.968 73.752 12.924 102.972c5.436 32 26.892 127.032 26.892 127.032h18.7s-12.6-92.4-15.072-124.128c-2.664-34.392-8.172-105.876-8.172-105.876z" class="cls-9" data-name="Path 1474" transform="translate(-225.76 -55.472)"/>
            <path id="Path_1475" d="M365.336 391.63c.084 0 .648 6.7.648 6.7H345.44l-1.5-7.476z" class="cls-11" data-name="Path 1475" transform="translate(-219.536 -18.324)"/>
            <path id="Path_1476" d="M323.256 99.923c-.216.8-.8 1.368-1.32 1.2s-.768-.864-.564-1.668.8-1.368 1.32-1.2.768.9.564 1.668z" class="cls-11" data-name="Path 1476" transform="translate(-224.064 -76.849)"/>
            <path id="Path_1477" d="M315.776 98.283c-.216.8-.8 1.368-1.32 1.2s-.768-.852-.564-1.668.8-1.368 1.32-1.2.768.864.564 1.668z" class="cls-11" data-name="Path 1477" transform="translate(-225.56 -77.177)"/>
            <path id="Path_1478" fill="#630f0f" d="M319.87 98.86a31.885 31.885 0 0 1-5.58 6.084c1.056 1.632 3.6 1.548 3.6 1.548z" data-name="Path 1478" transform="translate(-225.466 -76.722)"/>
            <path id="Path_1479" d="M327.548 98.259a.492.492 0 0 1-.324-.276 3.6 3.6 0 0 0-2.568-2.232.456.456 0 0 1-.384-.552.5.5 0 0 1 .564-.408 4.488 4.488 0 0 1 3.288 2.784.516.516 0 0 1-.264.648.48.48 0 0 1-.312.036z" class="cls-11" data-name="Path 1479" transform="translate(-223.472 -77.537)"/>
            <path id="Path_1480" d="M314.054 95a.719.719 0 0 1-.18-.108.48.48 0 0 1 0-.684 4.9 4.9 0 0 1 4.14-1.68.456.456 0 0 1 .384.552.516.516 0 0 1-.564.408 3.924 3.924 0 0 0-3.276 1.368.528.528 0 0 1-.504.144z" class="cls-11" data-name="Path 1480" transform="translate(-225.578 -77.993)"/>
            <path id="Path_1481" d="M355.638 139.23l-12.888 7.8s14.4 31.2 14.316 36.444c-.24 9.792 3.972 31.02 2.832 42.2 1.584.564 6 .7 7.392-.084 2.556-10.116 6.1-36.7 5.076-43.356-2.232-14.48-16.728-43.004-16.728-43.004z" class="cls-10" data-name="Path 1481" transform="translate(-219.774 -68.648)"/>
            <path id="Path_1482" d="M350.928 127.651c9.6 1.4 23.28 50.124 23.28 50.124l-17.76 6.732s-15.468-26.4-19.26-38.268c-4.08-12.384 3.456-20.1 13.74-18.588z" class="cls-9" data-name="Path 1482" transform="translate(-221.112 -71.002)"/>
            <path id="Path_1483" d="M350.928 127.651c9.6 1.4 23.28 50.124 23.28 50.124l-17.76 6.732s-15.468-26.4-19.26-38.268c-4.08-12.384 3.456-20.1 13.74-18.588z" class="cls-12" data-name="Path 1483" transform="translate(-221.112 -71.002)"/>
            <path id="Path_1484" d="M348.4 409.221a2.892 2.892 0 0 1-1.932-.528 1.356 1.356 0 0 1-.444-1.272.816.816 0 0 1 .444-.684c1.2-.576 4.356 1.44 4.716 1.68a.216.216 0 0 1 .1.24.264.264 0 0 1-.192.192 11.712 11.712 0 0 1-2.688.372zm-1.4-2.148a.636.636 0 0 0-.312.06.312.312 0 0 0-.168.276.972.972 0 0 0 .288.888c.528.468 1.86.528 3.6.18a9.192 9.192 0 0 0-3.408-1.404z" class="cls-9" data-name="Path 1484" transform="translate(-219.124 -15.167)"/>
            <path id="Path_1485" d="M350.67 409.254a.192.192 0 0 1-.108 0c-1.032-.564-2.964-2.808-2.688-3.948a.828.828 0 0 1 .792-.624 1.308 1.308 0 0 1 1.02.3c1.14.972 1.2 3.924 1.2 4.044a.276.276 0 0 1-.12.228.324.324 0 0 1-.1 0zm-1.86-4.188h-.11c-.312 0-.348.18-.36.24-.168.672 1.056 2.4 2.064 3.156a5.46 5.46 0 0 0-1.044-3.192.828.828 0 0 0-.55-.204z" class="cls-9" data-name="Path 1485" transform="translate(-218.754 -15.56)"/>
            <path id="Path_1486" d="M305.209 409.226a3.78 3.78 0 0 1-2.46-.624 1.356 1.356 0 0 1-.4-1.2.84.84 0 0 1 .432-.648c1.272-.7 5.28 1.392 5.736 1.632a.228.228 0 0 1 .108.252.252.252 0 0 1-.2.2 17.9 17.9 0 0 1-3.216.388zm-1.752-2.148a1 1 0 0 0-.456.084.348.348 0 0 0-.168.264.864.864 0 0 0 .264.78c.6.552 2.268.648 4.548.276a12.781 12.781 0 0 0-4.188-1.404z" class="cls-9" data-name="Path 1486" transform="translate(-227.857 -15.172)"/>
            <path id="Path_1487" d="M307.952 409.256h-.108c-1.2-.552-3.6-2.76-3.3-3.912 0-.276.276-.612.936-.672a1.668 1.668 0 0 1 1.32.408c1.2 1.068 1.392 3.816 1.4 3.936a.264.264 0 0 1-.12.216.18.18 0 0 1-.128.024zm-2.3-4.188h-.152c-.432 0-.468.216-.48.264-.144.7 1.428 2.4 2.652 3.18a5.5 5.5 0 0 0-1.2-3.144 1.2 1.2 0 0 0-.824-.3z" class="cls-9" data-name="Path 1487" transform="translate(-227.42 -15.562)"/>
            <rect id="Rectangle_140" width="71.676" height="50.208" class="cls-11" data-name="Rectangle 140" rx="4.09" transform="rotate(-7.43 1403.986 -718.066)"/>
            <rect id="Rectangle_141" width="71.676" height="50.208" class="cls-15" data-name="Rectangle 141" rx="4.09" transform="rotate(-7.43 1403.986 -718.066)"/>
            <path id="Path_1488" d="M355.647 233.765a4.62 4.62 0 0 1-2.832-.972 4.7 4.7 0 0 1-1.788-3.1l-1.08-8.328a4.656 4.656 0 0 1 4.02-5.22l13.86-1.812a4.668 4.668 0 0 1 5.232 4.02l1.092 8.328a4.692 4.692 0 0 1-4.02 5.232l-13.872 1.8a5.252 5.252 0 0 1-.612.048zm12.792-16.8h-.252l-13.872 1.812a1.944 1.944 0 0 0-1.68 2.184l1.08 8.328a1.968 1.968 0 0 0 .756 1.3 1.932 1.932 0 0 0 1.44.384l13.86-1.8a1.98 1.98 0 0 0 1.692-2.2l-1.044-8.232a1.944 1.944 0 0 0-.744-1.3 1.98 1.98 0 0 0-1.236-.444zm1.512 13.572z" class="cls-11" data-name="Path 1488" transform="translate(-218.343 -53.635)"/>
            <rect id="Rectangle_142" width="71.676" height="50.208" class="cls-11" data-name="Rectangle 142" rx="4.09" transform="rotate(-7.43 1401.054 -763.425)"/>
            <path id="Path_1489" d="M358.172 210.228l-3.912 7.62 11.472.528a9.144 9.144 0 0 0-1.488-10.3z" class="cls-10" data-name="Path 1489" transform="translate(-217.472 -54.878)"/>
            <path id="Path_1490" d="M358.64 222.124l6.84-.936.252-4.44-11.472-.528.18 2.484a3.708 3.708 0 0 0 4.2 3.42z" class="cls-10" data-name="Path 1490" transform="translate(-217.472 -53.25)"/>
            <path id="Path_1491" d="M350.823 173.6c-.18.936 1.092 4.4 2.028 5.748s16.416 2.532 18.408-.516 2.076-8.472 1.128-10.284-21.192 3.022-21.564 5.052z" class="cls-9" data-name="Path 1491" transform="translate(-218.163 -62.865)"/>
        </g>
        <g id="freepik--character-1--inject-62" transform="translate(135.004 91.11)">
            <path id="Path_1492" d="M168.319 143.028c-1.932 2.532-4.032 5.3-6 8.028s-3.864 5.5-5.676 8.3a107.28 107.28 0 0 0-9.372 17.052c-.3.708-.576 1.416-.816 2.124q-.192.528-.36 1.044l-.168.528-.072.252v.072a7.536 7.536 0 0 0-.132 2.808 46.235 46.235 0 0 0 2.124 8.868c2.052 6.2 4.8 12.6 7.5 18.8l-6.132 3.888a102.855 102.855 0 0 1-11.88-18.348 48.923 48.923 0 0 1-4.116-11.1 19.464 19.464 0 0 1-.288-7.608l.1-.576.1-.384.18-.744c.108-.492.228-.984.372-1.464.264-.972.552-1.908.864-2.844a102.624 102.624 0 0 1 9.768-20.172c1.92-3.108 3.888-6.156 6-9.1s4.2-5.8 6.636-8.724z" class="cls-11" data-name="Path 1492" transform="translate(-108.467 -71.99)"/>
            <path id="Path_1493" d="M151.168 196.2l6.312 3.348-7.2 8.508s-4.536-3.072-4.8-7.752z" class="cls-16" data-name="Path 1493" transform="translate(-105.908 -59.498)"/>
            <path id="Path_1494" d="M165.186 204.234l-7.776 6.18-7.98-2.916 7.26-8.508z" class="cls-16" data-name="Path 1494" transform="translate(-105.118 -58.94)"/>
            <path id="Path_1495" d="M241.75 181l7.464 3.852-.66 2.688-6 6s-4.32-3.36-4.224-8.04z" class="cls-16" data-name="Path 1495" transform="translate(-87.338 -62.538)"/>
            <path id="Path_1496" d="M242.08 182.094l6.84-1.284 4.392 1.872-2.928.492-1.92 1.74z" class="cls-16" data-name="Path 1496" transform="translate(-86.588 -62.576)"/>
            <path id="Path_1497" d="M255.992 193.53l-7.416 1.6a3.6 3.6 0 0 1-2.3-.276l-4.452-2.16 6-6 3.972-1.2 4.968 5.7a1.464 1.464 0 0 1-.768 2.34z" class="cls-16" data-name="Path 1497" transform="translate(-86.64 -61.64)"/>
            <path id="Path_1498" d="M185.179 101.221c.168.8.72 1.368 1.2 1.2a1.415 1.415 0 0 0 .66-1.656c-.156-.8-.732-1.368-1.2-1.2a1.374 1.374 0 0 0-.66 1.656z" class="cls-11" data-name="Path 1498" transform="translate(-97.979 -78.831)"/>
            <path id="Path_1499" fill="#ff5652" d="M185.71 102.09a29.448 29.448 0 0 0 5.244 6.108c-1.2 1.62-3.7 1.5-3.7 1.5z" data-name="Path 1499" transform="translate(-97.862 -78.32)"/>
            <path id="Path_1500" d="M182.077 98.116a.516.516 0 0 1-.324-.132.492.492 0 0 1 0-.684 4.8 4.8 0 0 1 4.1-1.6.492.492 0 0 1-.156.96 3.828 3.828 0 0 0-3.24 1.3.468.468 0 0 1-.38.156z" class="cls-11" data-name="Path 1500" transform="translate(-98.681 -79.602)"/>
            <path id="Path_1501" d="M167.454 112.79c1.392 7.08 2.22 16.884-2.724 21.6 0 0 1.932 7.2 15.084 7.2 14.472 0 6.96-6.312 6.96-6.312-6-1.86-6-8.712-4.584-14.208z" class="cls-16" data-name="Path 1501" transform="translate(-102.058 -76.18)"/>
            <path id="Path_1502" d="M163.118 136.409c-1.2-1.9-.8-7.644.636-8.58 2.3-1.512 11.808-1.344 24.42 2.34-1.7 5.5 1.068 8.592 1.068 8.592z" class="cls-9" data-name="Path 1502" transform="translate(-102.522 -73.351)"/>
            <path id="Path_1503" d="M155.1 143.32c-4.5 4.44-5.808 13.536-5.316 19.74 1.1-1.884 2.28-3.768 3.492-5.6 1.812-2.82 3.744-5.568 5.688-8.328.54-.756 1.092-1.524 1.656-2.292.108-.492.2-.984.3-1.464z" class="cls-13" data-name="Path 1503" transform="translate(-105.066 -70.074)"/>
            <path id="Path_1504" d="M128.064 407.341a3.156 3.156 0 0 0 2.4-.132.936.936 0 0 0 .228-1.068 1.08 1.08 0 0 0-.588-.672c-1.308-.624-4.32.6-4.44.648a.229.229 0 0 0-.012.42 12 12 0 0 0 2.412.804zm1.584-1.548l.264.084a.624.624 0 0 1 .348.4c.12.408 0 .54-.084.588-.516.444-2.4 0-3.8-.516a7.465 7.465 0 0 1 3.324-.588z" class="cls-9" data-name="Path 1504" transform="translate(-109.9 -17.679)"/>
            <path id="Path_1505" d="M125.713 406.969h.108c1.1-.312 3.444-1.98 3.468-3.072a.744.744 0 0 0-.588-.744 1.2 1.2 0 0 0-1.02.084c-1.284.66-2.1 3.336-2.136 3.444a.177.177 0 0 0 .168.288zm2.736-3.432h.108c.276.1.276.24.276.3 0 .648-1.56 1.944-2.7 2.472a5.556 5.556 0 0 1 1.767-2.709.768.768 0 0 1 .6-.06z" class="cls-9" data-name="Path 1505" transform="translate(-109.9 -18.123)"/>
            <path id="Path_1506" d="M187.713 408.709c1.2 0 2.4-.168 2.844-.732a.864.864 0 0 0 0-1 1.2 1.2 0 0 0-.732-.54c-1.608-.432-4.992 1.488-5.136 1.572a.216.216 0 0 0-.108.24.228.228 0 0 0 .18.192 17.35 17.35 0 0 0 2.952.268zm1.536-1.872a1.738 1.738 0 0 1 .444 0 .672.672 0 0 1 .444.324c.168.288.108.42 0 .5-.444.624-2.892.636-4.692.384a10.451 10.451 0 0 1 3.804-1.208z" class="cls-9" data-name="Path 1506" transform="translate(-98.089 -17.462)"/>
            <path id="Path_1507" d="M184.788 408.827h.1c1.2-.516 3.48-2.616 3.312-3.708 0-.264-.228-.576-.852-.648a1.74 1.74 0 0 0-1.272.4c-1.2 1.02-1.5 3.6-1.512 3.732a.252.252 0 0 0 .1.2.228.228 0 0 0 .124.024zm2.4-3.924h.144c.408 0 .432.2.444.252.108.66-1.464 2.3-2.652 3.012a5.352 5.352 0 0 1 1.272-2.976 1.2 1.2 0 0 1 .756-.288z" class="cls-9" data-name="Path 1507" transform="translate(-98.092 -17.845)"/>
            <path id="Path_1508" d="M175.89 411.646h9.672l.96-22.416h-9.672z" class="cls-16" data-name="Path 1508" transform="translate(-99.826 -20.892)"/>
            <path id="Path_1509" d="M116.83 408.034l9.336 1.98 8.472-21.444-9.336-1.98z" class="cls-16" data-name="Path 1509" transform="translate(-111.638 -21.42)"/>
            <path id="Path_1510" d="M127.9 405.477l-10.632-2.3a.84.84 0 0 0-.936.468l-3.7 8a1.428 1.428 0 0 0 1.02 1.992c3.732.732 5.58.912 10.248 1.92 2.88.624 9.372 2.208 13.344 3.06s5.328-2.952 3.78-3.66c-6.936-3.168-9.84-6-11.724-8.568a2.328 2.328 0 0 0-1.4-.912z" class="cls-11" data-name="Path 1510" transform="translate(-112.503 -18.107)"/>
            <path id="Path_1511" d="M186.124 407h-10.572a.864.864 0 0 0-.828.66l-1.908 8.6a1.416 1.416 0 0 0 1.392 1.728c3.816-.072 9.324-.288 14.112-.288 5.6 0 7.6.3 14.16.3 3.972 0 5.076-4.008 3.42-4.38-7.572-1.656-10.908-1.836-17.448-5.868a4.548 4.548 0 0 0-2.328-.752z" class="cls-11" data-name="Path 1511" transform="translate(-100.447 -17.338)"/>
            <path id="Path_1512" d="M186.446 389.24l-.492 11.544h-9.684l.492-11.544z" class="cls-13" data-name="Path 1512" transform="translate(-99.75 -20.89)"/>
            <path id="Path_1513" d="M124.618 386.59l9.336 1.98-4.368 11.052-9.336-1.968z" class="cls-13" data-name="Path 1513" transform="translate(-110.954 -21.42)"/>
            <path id="Path_1514" d="M194.392 202.75s-10.992 73.968-17.016 101.676c-6.6 30.348-42 130.8-42 130.8L118 431.41s24.768-81.816 30.3-124.236c4.26-32.58 12.648-104.4 12.648-104.4z" class="cls-11" data-name="Path 1514" transform="translate(-111.404 -58.188)"/>
            <path id="Path_1515" d="M194.392 202.75s-10.992 73.968-17.016 101.676c-6.6 30.348-42 130.8-42 130.8L118 431.41s24.768-81.816 30.3-124.236c4.26-32.58 12.648-104.4 12.648-104.4z" class="cls-18" data-name="Path 1515" transform="translate(-111.404 -58.188)"/>
            <path id="Path_1516" d="M139.716 392.246c.072 0-3.228 6.264-3.228 6.264L117 394.286l1.644-5.856z" class="cls-11" data-name="Path 1516" transform="translate(-111.604 -21.052)"/>
            <path id="Path_1517" d="M177.667 224.726c-12.7 2.5-11.352 49.86-9.828 74.22 3.6-17.22 9.024-50.4 12.7-73.872a4.428 4.428 0 0 0-2.868-.348z" class="cls-15" data-name="Path 1517" transform="translate(-101.627 -53.812)"/>
            <path id="Path_1518" d="M202.686 202.75s1.332 72.36.276 101.88c-1.092 30.7-11.808 131.22-11.808 131.22H174.7s-.6-98.724-1.332-128.88c-.792-32.868-4.8-104.22-4.8-104.22z" class="cls-11" data-name="Path 1518" transform="translate(-101.29 -58.188)"/>
            <path id="Path_1519" d="M202.686 202.75s1.332 72.36.276 101.88c-1.092 30.7-11.808 131.22-11.808 131.22H174.7s-.6-98.724-1.332-128.88c-.792-32.868-4.8-104.22-4.8-104.22z" class="cls-18" data-name="Path 1519" transform="translate(-101.29 -58.188)"/>
            <path id="Path_1520" d="M193.574 391.56c.072 0-.936 6.8-.936 6.8H172.67l-.54-6.072z" class="cls-11" data-name="Path 1520" transform="translate(-100.578 -20.426)"/>
            <path id="Path_1521" d="M207.412 142.745c1.98 10.464 5.652 39.7-.084 82.224l-56.016-.864c-.324-7.428 5.58-47.748.12-83.544a7.728 7.728 0 0 1 6.636-8.808c2.832-.384 6.12-.744 9.36-.9a192 192 0 0 1 22 0c2.4.228 4.8.576 6.936.948a13.7 13.7 0 0 1 11.048 10.944z" class="cls-11" data-name="Path 1521" transform="translate(-104.744 -72.63)"/>
            <path id="Path_1522" d="M200.922 149.37l-9.432 2.34c-.72 8.808 5.088 18.78 10.9 26.4a252.458 252.458 0 0 0-1.464-28.74z" class="cls-13" data-name="Path 1522" transform="translate(-96.718 -68.864)"/>
            <path id="Path_1523" d="M198.282 136.79c1.6 2.868 3.324 6 5.1 8.916s3.6 5.9 5.436 8.784a117.321 117.321 0 0 0 12 15.984c.552.564 1.092 1.14 1.644 1.668l.408.4.324.288c.18.192.492.408.72.612a41.345 41.345 0 0 0 3.828 2.652c2.82 1.74 5.844 3.444 8.916 5.088 6.144 3.3 12.5 6.54 18.78 9.816l-2.484 6.828a181.339 181.339 0 0 1-20.94-6.372c-3.432-1.284-6.876-2.676-10.32-4.368a48.729 48.729 0 0 1-5.316-2.952c-.468-.336-.912-.6-1.416-1l-.72-.552-.588-.492c-.8-.648-1.536-1.32-2.28-1.992a83.114 83.114 0 0 1-7.92-8.5c-2.4-2.916-4.644-6-6.768-8.988s-4.14-6.156-6-9.336-3.708-6.3-5.436-9.756z" class="cls-11" data-name="Path 1523" transform="translate(-97.954 -71.38)"/>
            <path id="Path_1524" d="M162.576 106.98c2.616 9.768 3.6 15.6 9.684 19.68 9.072 6.12 20.4-.9 20.712-11.256.312-9.312-4.02-23.724-14.5-25.692a13.788 13.788 0 0 0-15.9 17.268z" class="cls-16" data-name="Path 1524" transform="translate(-102.592 -80.846)"/>
            <path id="Path_1525" d="M184.284 108.536c2.328-3.42 3.216-8.676 1.584-11.208 1.524.636 12.516 1.392 8.208-6.432s-12.948-9.984-20.472-7.824l3.66 1.056s-10.284-.744-15.288 3.42a26.934 26.934 0 0 0 2.844 0s-11.016 5.2-6.216 9.144c-7.74 5.892-2.5 14.052 10.248 26.22 2.22 2 8.508 1.272 9.9.072-.888-5.304 4.224-12.504 5.532-14.448z" class="cls-11" data-name="Path 1525" transform="translate(-104.007 -82.282)"/>
            <path id="Path_1526" d="M180.954 98.61c2.28 1.668 5.1 6.576 6.408 9.024s2.688 2.136 3.348 3.108 3.36 17.412.468 20.04-11.592-1.524-12.732-4.548.948-10.44 1.512-12.132a17.268 17.268 0 0 0-.5-8.784c-1.012-2.868 1.496-6.708 1.496-6.708z" class="cls-11" data-name="Path 1526" transform="translate(-99.382 -79.016)"/>
            <path id="Path_1527" d="M176.237 105.409a9.24 9.24 0 0 0 4.38 5.712c2.652 1.2 2.976-1.884 2.46-4.8-.468-2.652-1.2-4.8-3.348-5.832-2.529-1.308-4.368 2.011-3.492 4.92z" class="cls-16" data-name="Path 1527" transform="translate(-99.801 -78.699)"/>
        </g>
    </g>
</svg>
