<svg xmlns="http://www.w3.org/2000/svg" width="600" height="428.136" viewBox="0 0 600 428.136">
    <defs>
        <style>
            .prefix__cls-1{fill:#ebebeb}.prefix__cls-2{fill:#f5f5f5}.prefix__cls-14,.prefix__cls-3,.prefix__cls-9{fill:#fff}.prefix__cls-4{fill:#e6e6e6}.prefix__cls-6{fill:#f0f0f0}.prefix__cls-7{fill:#292941}.prefix__cls-14,.prefix__cls-8{opacity:.3}.prefix__cls-9{opacity:.5}.prefix__cls-10{fill:#263238}.prefix__cls-11{opacity:.2}.prefix__cls-12{fill:#ffc3bd}.prefix__cls-15{fill:#7f3e3b}
        </style>
    </defs>
    <g id="prefix__Group_22" data-name="Group 22" transform="translate(-643 -188.936)">
        <path id="prefix__Rectangle_6" d="M0 0H600V0.3H0z" class="prefix__cls-1" data-name="Rectangle 6" transform="translate(643 562.88)"/>
        <path id="prefix__Rectangle_7" d="M0 0H39.744V0.3H0z" class="prefix__cls-1" data-name="Rectangle 7" transform="translate(1143.136 582.188)"/>
        <path id="prefix__Rectangle_8" d="M0 0H84.972V0.3H0z" class="prefix__cls-1" data-name="Rectangle 8" transform="translate(1043.056 582.188)"/>
        <path id="prefix__Rectangle_9" d="M0 0H23.028V0.3H0z" class="prefix__cls-1" data-name="Rectangle 9" transform="translate(973.168 571.052)"/>
        <path id="prefix__Rectangle_10" d="M0 0H41.148V0.3H0z" class="prefix__cls-1" data-name="Rectangle 10" transform="translate(705.952 573.068)"/>
        <path id="prefix__Rectangle_11" d="M0 0H74.82V0.3H0z" class="prefix__cls-1" data-name="Rectangle 11" transform="translate(757.78 573.068)"/>
        <path id="prefix__Rectangle_12" d="M0 0H44.172V0.3H0z" class="prefix__cls-1" data-name="Rectangle 12" transform="translate(868.996 578.132)"/>
        <path id="prefix__Rectangle_13" d="M0 0H116.028V320.04H0z" class="prefix__cls-2" data-name="Rectangle 13" transform="translate(717.46 211.844)"/>
        <path id="prefix__Rectangle_14" d="M0 0H1.176V320.04H0z" class="prefix__cls-1" data-name="Rectangle 14" transform="rotate(180 417.332 265.948)"/>
        <path id="prefix__Rectangle_15" d="M0 0H93.636V295.62H0z" class="prefix__cls-3" data-name="Rectangle 15" transform="translate(728.656 224.06)"/>
        <path id="prefix__Rectangle_16" d="M0 0H273.708V203.364H0z" class="prefix__cls-4" data-name="Rectangle 16" transform="rotate(180 578.468 200.644)"/>
        <path id="prefix__Rectangle_17" d="M0 0H273.708V203.364H0z" class="prefix__cls-2" data-name="Rectangle 17" transform="rotate(180 576.35 200.644)"/>
        <path id="prefix__Rectangle_18" d="M0 0H186.288V258.504H0z" class="prefix__cls-3" data-name="Rectangle 18" transform="rotate(90 469.312 675.78)"/>
        <path id="prefix__Rectangle_19" d="M0 0H186.288V3.204H0z" class="prefix__cls-4" data-name="Rectangle 19" transform="rotate(90 341.662 548.118)"/>
        <path id="prefix__Rectangle_20" d="M0 0H267.42V11.472H0z" class="prefix__cls-2" data-name="Rectangle 20" transform="rotate(180 574.772 176.476)"/>
        <g id="prefix__Group_8" data-name="Group 8" opacity="0.4" transform="translate(870.496 188.936)">
            <path id="prefix__Rectangle_21" d="M0 0H25.836V65.364H0z" class="prefix__cls-4" data-name="Rectangle 21"/>
            <path id="prefix__Rectangle_22" d="M0 0H12.816V60.108H0z" class="prefix__cls-2" data-name="Rectangle 22" transform="rotate(180 19.326 30.054)"/>
            <path id="prefix__Rectangle_23" d="M0 0H25.836V65.364H0z" class="prefix__cls-4" data-name="Rectangle 23" transform="translate(38.652)"/>
            <path id="prefix__Rectangle_24" d="M0 0H12.816V60.108H0z" class="prefix__cls-2" data-name="Rectangle 24" transform="rotate(180 38.652 30.054)"/>
            <path id="prefix__Rectangle_25" d="M0 0H25.836V65.364H0z" class="prefix__cls-4" data-name="Rectangle 25" transform="translate(77.304)"/>
            <path id="prefix__Rectangle_26" d="M0 0H12.816V60.108H0z" class="prefix__cls-2" data-name="Rectangle 26" transform="rotate(180 57.978 30.054)"/>
            <path id="prefix__Rectangle_27" d="M0 0H25.836V65.364H0z" class="prefix__cls-4" data-name="Rectangle 27" transform="translate(115.956)"/>
            <path id="prefix__Rectangle_28" d="M0 0H12.816V60.108H0z" class="prefix__cls-2" data-name="Rectangle 28" transform="rotate(180 77.304 30.054)"/>
            <path id="prefix__Rectangle_29" d="M0 0H25.836V65.364H0z" class="prefix__cls-4" data-name="Rectangle 29" transform="translate(154.608)"/>
            <path id="prefix__Rectangle_30" d="M0 0H12.816V60.108H0z" class="prefix__cls-2" data-name="Rectangle 30" transform="rotate(180 96.63 30.054)"/>
            <path id="prefix__Rectangle_31" d="M0 0H25.836V65.364H0z" class="prefix__cls-4" data-name="Rectangle 31" transform="translate(193.26)"/>
            <path id="prefix__Rectangle_32" d="M0 0H12.816V60.108H0z" class="prefix__cls-2" data-name="Rectangle 32" transform="rotate(180 115.956 30.054)"/>
            <path id="prefix__Rectangle_33" d="M0 0H25.836V65.364H0z" class="prefix__cls-4" data-name="Rectangle 33" transform="translate(231.912)"/>
            <path id="prefix__Rectangle_34" d="M0 0H12.816V60.108H0z" class="prefix__cls-2" data-name="Rectangle 34" transform="rotate(180 135.282 30.054)"/>
            <path id="prefix__Rectangle_35" d="M0 0H25.836V65.364H0z" class="prefix__cls-4" data-name="Rectangle 35" transform="translate(270.564)"/>
        </g>
        <path id="prefix__Rectangle_36" d="M0 0H32.028V119.28H0z" class="prefix__cls-4" data-name="Rectangle 36" transform="rotate(180 459.74 281.44)"/>
        <path id="prefix__Path_128" d="M209.048 384.19h-5.328v-10.74h10.92z" class="prefix__cls-6" data-name="Path 128" transform="translate(683.744 178.69)"/>
        <path id="prefix__Rectangle_37" d="M0 0H32.028V119.28H0z" class="prefix__cls-4" data-name="Rectangle 37" transform="rotate(180 574.97 281.44)"/>
        <path id="prefix__Rectangle_38" d="M0 0H235.092V115.152H0z" class="prefix__cls-6" data-name="Rectangle 38" transform="rotate(180 561.278 279.376)"/>
        <path id="prefix__Rectangle_39" d="M0 0H226.824V31.584H0z" class="prefix__cls-4" data-name="Rectangle 39" transform="rotate(180 559.214 240.142)"/>
        <path id="prefix__Path_129" d="M257.3 297.23h112.064c5.2 0 10.176-3.9 13.752-10.8H243.52c3.58 6.9 8.544 10.8 13.78 10.8z" class="prefix__cls-6" data-name="Path 129" transform="translate(691.704 161.286)"/>
        <path id="prefix__Path_130" d="M396.122 384.19h5.328v-10.74h-10.92z" class="prefix__cls-6" data-name="Path 130" transform="translate(721.106 178.69)"/>
        <path id="prefix__Rectangle_40" d="M0 0H226.824V31.584H0z" class="prefix__cls-4" data-name="Rectangle 40" transform="rotate(180 559.214 258.484)"/>
        <path id="prefix__Path_131" d="M257.3 327.8h112.064c5.2 0 10.176-3.888 13.752-10.8H243.52c3.58 6.912 8.544 10.8 13.78 10.8z" class="prefix__cls-6" data-name="Path 131" transform="translate(691.704 167.4)"/>
        <path id="prefix__Rectangle_41" d="M0 0H226.824V31.584H0z" class="prefix__cls-4" data-name="Rectangle 41" transform="rotate(180 559.214 276.826)"/>
        <path id="prefix__Path_132" d="M257.3 358.37h112.064c5.2 0 10.176-3.888 13.752-10.8H243.52c3.58 6.912 8.544 10.8 13.78 10.8z" class="prefix__cls-6" data-name="Path 132" transform="translate(691.704 173.514)"/>
        <g id="prefix__freepik--Shadow--inject-31" transform="translate(710.332 589.904)">
            <ellipse id="prefix__freepik--path--inject-31" cx="232.668" cy="13.584" class="prefix__cls-2" rx="232.668" ry="13.584"/>
        </g>
        <g id="prefix__freepik--character-2--inject-31" transform="translate(944.112 324.469)">
            <path id="prefix__Path_133" d="M371.58 419.868h-1.28a1.1 1.1 0 0 1-1.02-1.044l-7.9-54.984h6l5.232 54.624a1.2 1.2 0 0 1-1.032 1.4z" class="prefix__cls-7" data-name="Path 133" transform="translate(-228.836 -147.701)"/>
            <path id="prefix__Path_134" d="M371.58 419.868h-1.28a1.1 1.1 0 0 1-1.02-1.044l-7.9-54.984h6l5.232 54.624a1.2 1.2 0 0 1-1.032 1.4z" class="prefix__cls-8" data-name="Path 134" transform="translate(-228.836 -147.701)"/>
            <path id="prefix__Path_135" d="M385.3 419.868h-1.284a1.1 1.1 0 0 1-1.02-1.044l-7.9-54.984h6l5.244 54.624a1.2 1.2 0 0 1-1.044 1.4z" class="prefix__cls-7" data-name="Path 135" transform="translate(-226.092 -147.701)"/>
            <path id="prefix__Path_136" d="M385.3 419.868h-1.284a1.1 1.1 0 0 1-1.02-1.044l-7.9-54.984h6l5.244 54.624a1.2 1.2 0 0 1-1.044 1.4z" class="prefix__cls-8" data-name="Path 136" transform="translate(-226.092 -147.701)"/>
            <path id="prefix__Path_137" d="M307.335 419.868h1.284a1.1 1.1 0 0 0 1.02-1.044l7.9-54.984h-6l-5.239 54.624a1.2 1.2 0 0 0 1.032 1.4z" class="prefix__cls-7" data-name="Path 137" transform="translate(-239.856 -147.701)"/>
            <path id="prefix__Path_138" d="M307.335 419.868h1.284a1.1 1.1 0 0 0 1.02-1.044l7.9-54.984h-6l-5.239 54.624a1.2 1.2 0 0 0 1.032 1.4z" class="prefix__cls-8" data-name="Path 138" transform="translate(-239.856 -147.701)"/>
            <path id="prefix__Path_139" d="M293.615 419.868h1.285a1.1 1.1 0 0 0 1.02-1.044l7.9-54.984h-6l-5.232 54.624a1.2 1.2 0 0 0 1.032 1.4z" class="prefix__cls-7" data-name="Path 139" transform="translate(-242.6 -147.701)"/>
            <path id="prefix__Path_140" d="M293.615 419.868h1.285a1.1 1.1 0 0 0 1.02-1.044l7.9-54.984h-6l-5.232 54.624a1.2 1.2 0 0 0 1.032 1.4z" class="prefix__cls-8" data-name="Path 140" transform="translate(-242.6 -147.701)"/>
            <path id="prefix__Path_141" d="M276.669 316.934h40.416c7.2-24.9 32.976-44.544 59.4-44.544h13.128c27.6 0 45.5 21.516 39.864 48.072a53.568 53.568 0 0 1-5.148 14l-6.372 38.628c-.816 4.992-4.8 9.036-8.88 9.036H287.421c-4.08 0-8.064-4.044-8.88-9.036l-7.776-47.172c-.828-4.94 1.824-8.984 5.904-8.984z" class="prefix__cls-7" data-name="Path 141" transform="translate(-246.99 -165.991)"/>
            <path id="prefix__Path_142" d="M276.669 316.934h40.416c7.2-24.9 32.976-44.544 59.4-44.544h13.128c27.6 0 45.5 21.516 39.864 48.072a53.568 53.568 0 0 1-5.148 14l-6.372 38.628c-.816 4.992-4.8 9.036-8.88 9.036H287.421c-4.08 0-8.064-4.044-8.88-9.036l-7.776-47.172c-.828-4.94 1.824-8.984 5.904-8.984z" class="prefix__cls-9" data-name="Path 142" transform="translate(-246.99 -165.991)"/>
            <path id="prefix__Path_143" d="M270.491 399.173l10.008 4.584a.708.708 0 0 1 .384.912l-3.156 8.148a1.728 1.728 0 0 1-2.28.864c-3.456-1.656-5.028-2.628-9.432-4.644a117.791 117.791 0 0 1-13.464-7.8c-3.264-2.4-.864-5.64.756-4.92 7.32 3.228 12 3.516 15.4 2.7a2.675 2.675 0 0 1 1.788.156z" class="prefix__cls-10" data-name="Path 143" transform="translate(-250.927 -141.226)"/>
            <path id="prefix__Path_144" d="M338.34 296.43s-64 .792-64.992 26.016c-1.416 36.264-6.768 96.468-6.768 96.468l10.8 4.8s18.912-60.408 19.584-88.728c18-4.464 64.284 0 69.72-14.712a48.516 48.516 0 0 0 2.052-23.844z" class="prefix__cls-7" data-name="Path 144" transform="translate(-247.796 -161.183)"/>
            <path id="prefix__Path_145" d="M338.34 296.43s-64 .792-64.992 26.016c-1.416 36.264-6.768 96.468-6.768 96.468l10.8 4.8s18.912-60.408 19.584-88.728c18-4.464 64.284 0 69.72-14.712a48.516 48.516 0 0 0 2.052-23.844z" class="prefix__cls-11" data-name="Path 145" transform="translate(-247.796 -161.183)"/>
            <path id="prefix__Path_146" d="M348.8 242.64c-.564 2.328-1.128 4.428-1.764 6.612s-1.3 4.308-1.992 6.444c-1.4 4.272-2.952 8.52-4.728 12.72a103.976 103.976 0 0 1-6.18 12.48 60.78 60.78 0 0 1-4.056 6.132 34.8 34.8 0 0 1-5.58 5.88l-.18.156-.384.288a9.18 9.18 0 0 1-4.032 1.44 11.22 11.22 0 0 1-2.724 0 16.586 16.586 0 0 1-3.684-.888 39.355 39.355 0 0 1-5.364-2.4 90.5 90.5 0 0 1-8.916-5.664c-2.784-2-5.472-4.08-8.088-6.24s-5.124-4.368-7.608-6.744a3.672 3.672 0 0 1 4.32-5.856h.06c2.832 1.572 5.688 3.24 8.556 4.8s5.7 3.132 8.544 4.6 5.7 2.856 8.4 3.984a24.564 24.564 0 0 0 3.828 1.272 3.78 3.78 0 0 0 1.2.156h-.252a3.78 3.78 0 0 0-1.7.636l-.576.432a21.119 21.119 0 0 0 3.1-3.832 51.822 51.822 0 0 0 2.892-4.908 114.758 114.758 0 0 0 4.932-11.14c1.476-3.864 2.856-7.824 4.14-11.832s2.484-8.124 3.6-12v-.144a7.344 7.344 0 1 1 14.221 3.672z" class="prefix__cls-10" data-name="Path 146" transform="translate(-244.632 -173.765)"/>
            <path id="prefix__Path_147" d="M319.1 403h12a.756.756 0 0 1 .792.732l.588 9.492a1.908 1.908 0 0 1-1.872 1.908c-4.176-.072-6.18-.324-11.46-.324-3.24 0-9.792.336-14.28.336s-4.356-4.428-2.46-4.8c8.532-1.8 11.832-4.284 14.844-6.66A3.1 3.1 0 0 1 319.1 403z" class="prefix__cls-10" data-name="Path 147" transform="translate(-240.88 -139.869)"/>
            <path id="prefix__Path_148" d="M350.19 296.432s-58.044 4.9-56.616 30.108c1.56 27.6 27.048 97.8 27.048 97.8h11.736s-10.044-64.284-13.584-92.4c16.368 0 54.312 3.072 59.76-11.676a48.42 48.42 0 0 0 2.04-23.844z" class="prefix__cls-7" data-name="Path 148" transform="translate(-242.403 -161.185)"/>
            <path id="prefix__Path_149" d="M288.842 263.068a19.526 19.526 0 0 0-3.264-4.008c-2.4 2.232-3.708 8.724-3.708 8.724l3.276.288s3.768-1.224 3.696-5.004z" class="prefix__cls-7" data-name="Path 149" transform="translate(-244.738 -168.657)"/>
            <path id="prefix__Path_150" d="M279.065 257.84l-3.732-1.62a2.184 2.184 0 0 0-2.736.876l-1.776 2.928a2.2 2.2 0 0 0 .3 2.64l5.124 5.34 8.544-.348a2.7 2.7 0 0 0 2.316-1.476l.984-1.932a2.676 2.676 0 0 0-.852-3.468c-2.772-1.824-8.172-2.94-8.172-2.94z" class="prefix__cls-12" data-name="Path 150" transform="translate(-247.01 -169.261)"/>
            <path id="prefix__Path_151" d="M326.266 240.68c-1.7 10.8-3.924 34.116.6 69.276l47.58-.444c-.288-24.372 3.528-47.244 7.26-69.6a6.648 6.648 0 0 0-5.652-7.692 176.794 176.794 0 0 0-41.076 0 10.236 10.236 0 0 0-8.712 8.46z" class="prefix__cls-10" data-name="Path 151" transform="translate(-236.274 -174.264)"/>
            <path id="prefix__Path_152" d="M377.869 236.671c1.4 3.468 2.52 6.792 3.672 10.224s2.136 6.876 3.084 10.368 1.776 7.056 2.4 10.692a87.664 87.664 0 0 1 1.452 11.244c.072.972.084 1.98.1 2.988v1.536a9.421 9.421 0 0 1-1.2 4.5 8.243 8.243 0 0 1-1.992 2.328 7.848 7.848 0 0 1-1.2.792 7.312 7.312 0 0 1-1.2.528 9.961 9.961 0 0 1-3.528.624 16.033 16.033 0 0 1-4.2-.66 37.322 37.322 0 0 1-5.808-2.292c-1.74-.864-3.372-1.764-4.968-2.7a131.414 131.414 0 0 1-17.6-12.588 3.66 3.66 0 0 1 3.924-6.12h.084c6.2 2.952 12.516 6 18.66 8.532 1.536.624 3.06 1.2 4.56 1.716a24.7 24.7 0 0 0 4.092 1.116c.552.1 1.044.084.984 0a1.812 1.812 0 0 0-.948.168 4.921 4.921 0 0 0-.552.252 4.028 4.028 0 0 0-.648.432 5.148 5.148 0 0 0-1.2 1.332 4.428 4.428 0 0 0-.624 1.968l-.06-1.092c-.072-.744-.132-1.476-.24-2.244a127.942 127.942 0 0 0-4.488-19.2c-1.92-6.444-4.128-13.02-6.372-19.272v-.06a7.344 7.344 0 0 1 13.716-5.232z" class="prefix__cls-10" data-name="Path 152" transform="translate(-232.005 -174.059)"/>
            <path id="prefix__Path_153" d="M360.316 211.91l-5.748 4.8-7.848 6.516a22.679 22.679 0 0 1 .5 3.156c.372 3.792-.456 7.272-5.052 9.036a6 6 0 0 0-3.792 3.708c-.624 2 .108 4.248 6.42 4.248 9.276 0 14.112-4.128 15.936-6.156a1.644 1.644 0 0 0 .084-2.052c-3.656-5.232-2-16.752-.5-23.256z" class="prefix__cls-12" data-name="Path 153" transform="translate(-233.472 -178.087)"/>
            <path id="prefix__Path_154" d="M343.92 236.41a3.6 3.6 0 0 1 .8 1.632 6.588 6.588 0 0 1 1.74-1.632 6.216 6.216 0 0 1 3.324 3.888 17.533 17.533 0 0 1-4.992-1.848 8.531 8.531 0 0 1-3.336 1.032c.076-2.076 2.464-3.072 2.464-3.072z" class="prefix__cls-7" data-name="Path 154" transform="translate(-232.82 -173.187)"/>
            <path id="prefix__Path_155" d="M345.63 237.772a14.592 14.592 0 0 1 3.18 7s15.36-3.84 14.64-13.86a15.6 15.6 0 0 0-4.26-1.308s-3.3 5.996-13.56 8.168z" class="prefix__cls-7" data-name="Path 155" transform="translate(-231.986 -174.549)"/>
            <path id="prefix__Path_156" d="M344.667 237.682a16.152 16.152 0 0 0-3.384 7s-7.872-7.2-.2-13.776a20.522 20.522 0 0 1 4.068-.852s-5.104 4.136-.484 7.628z" class="prefix__cls-7" data-name="Path 156" transform="translate(-233.568 -174.459)"/>
            <path id="prefix__Path_157" d="M345.3 222.394a23.138 23.138 0 0 1 .5 3.168c2.928-.588 6.828-3.7 7.2-6.684a13.774 13.774 0 0 0 .108-2.988z" class="prefix__cls-11" data-name="Path 157" transform="translate(-232.052 -177.291)"/>
            <path id="prefix__Path_158" d="M338.942 194.834c-7.2 5.124-3.192 17.136 2.976 12.54s2.904-16.716-2.976-12.54z" class="prefix__cls-10" data-name="Path 158" transform="translate(-234.094 -181.674)"/>
            <path id="prefix__Path_159" d="M363.282 206.15c-2 9.192-2.7 14.664-8.136 18.864a12.24 12.24 0 0 1-19.8-8.808c-.72-8.568 2.676-22.176 12.348-24.78a12.384 12.384 0 0 1 15.588 14.724z" class="prefix__cls-12" data-name="Path 159" transform="translate(-234.062 -182.287)"/>
            <path id="prefix__Path_160" d="M359.167 200.759c-5.1-1.4-18.252 1.944-22.92-3.036-5-5.34 2.292-7.944 4.452-6.084-2.724-3.12-1.716-6.456 2.148-6.156 2.82.216 3.708 3.336 3.708 3.336s-.468-5.46 4.38-5.076c4.392.336 4.4 6.264 4.4 6.264s10.488-2.964 13.992 7.044c6.6-.144 6.456 13.752-6.828 18.7-5.384-2.668-5.636-12.151-3.332-14.992z" class="prefix__cls-10" data-name="Path 160" transform="translate(-234.207 -183.724)"/>
            <path id="prefix__Path_161" d="M362.586 197.86a1.332 1.332 0 0 1-.24-2.652 1.92 1.92 0 0 0 .78-.972 3.144 3.144 0 0 0 .144-2.5 1.332 1.332 0 1 1 2.4-1.1 5.844 5.844 0 0 1-.288 5 3.864 3.864 0 0 1-2.58 2.2.779.779 0 0 1-.216.024z" class="prefix__cls-10" data-name="Path 161" transform="translate(-228.878 -182.529)"/>
            <path id="prefix__Path_162" d="M361.162 211.632a8.4 8.4 0 0 1-5.052 3.12c-2.6.468-3.4-1.932-2.244-4.248 1.032-2.1 3.6-4.86 6-4.26s2.834 3.324 1.296 5.388z" class="prefix__cls-12" data-name="Path 162" transform="translate(-230.442 -179.237)"/>
            <path id="prefix__Path_163" d="M345.784 204.549c-.12.756-.612 1.32-1.1 1.26s-.8-.72-.7-1.476.612-1.32 1.116-1.2.792.66.684 1.416z" class="prefix__cls-10" data-name="Path 163" transform="translate(-232.32 -179.845)"/>
            <path id="prefix__Path_164" d="M338.644 203.717c-.12.756-.612 1.32-1.1 1.2s-.8-.72-.7-1.476.612-1.32 1.116-1.26.804.78.684 1.536z" class="prefix__cls-10" data-name="Path 164" transform="translate(-233.748 -180.033)"/>
            <path id="prefix__Path_165" fill="#ed847e" d="M341.12 203.71a24.36 24.36 0 0 1-3.6 5.388 3.7 3.7 0 0 0 3.06.732z" data-name="Path 165" transform="translate(-233.608 -179.727)"/>
            <path id="prefix__Path_166" d="M343.176 212.437a6.624 6.624 0 0 0 4.8-1.968.228.228 0 0 0-.336-.3 6.3 6.3 0 0 1-5.268 1.764.24.24 0 0 0-.252.192.228.228 0 0 0 .2.252 7.53 7.53 0 0 0 .856.06z" class="prefix__cls-10" data-name="Path 166" transform="translate(-232.689 -178.445)"/>
            <path id="prefix__Path_167" d="M349.007 201.055a.421.421 0 0 0 .192-.1.444.444 0 0 0 0-.636 4.284 4.284 0 0 0-3.756-1.488.45.45 0 1 0 .144.888 3.432 3.432 0 0 1 2.952 1.2.444.444 0 0 0 .468.132z" class="prefix__cls-10" data-name="Path 167" transform="translate(-232.099 -180.707)"/>
            <path id="prefix__Path_168" d="M335.843 200.589a.456.456 0 0 0 .408-.084 3.708 3.708 0 0 1 3.2-.864.456.456 0 0 0 .552-.312.444.444 0 0 0-.312-.552 4.6 4.6 0 0 0-4.008 1.044.444.444 0 0 0-.06.624.432.432 0 0 0 .22.144z" class="prefix__cls-10" data-name="Path 168" transform="translate(-234.007 -180.734)"/>
            <path id="prefix__Path_169" d="M350.636 257.568l-5.256-3.268a3.324 3.324 0 0 0-4.608 1.1l-.612 1.032a3.312 3.312 0 0 0 .336 3.9l3.6 4.164s3.156 7.356 6.816 5.412l2.784-4.8z" class="prefix__cls-12" data-name="Path 169" transform="translate(-233.177 -169.709)"/>
            <path id="prefix__Path_170" d="M354.584 265.6a22.547 22.547 0 0 0-2.784-4.9c-2.64 2.256-4.8 9.456-4.8 9.456l3.228.7a6 6 0 0 0 4.356-5.256z" class="prefix__cls-7" data-name="Path 170" transform="translate(-231.712 -168.329)"/>
            <path id="prefix__Path_171" d="M398.223 309.51h-62.3c-4.08 0-6.72 4.044-5.9 9.036l7.776 47.124c.828 4.992 4.8 9.036 8.892 9.036h43.824z" class="prefix__cls-7" data-name="Path 171" transform="translate(-235.139 -158.567)"/>
            <path id="prefix__Path_172" d="M398.223 309.51h-62.3c-4.08 0-6.72 4.044-5.9 9.036l7.776 47.124c.828 4.992 4.8 9.036 8.892 9.036h43.824z" class="prefix__cls-9" data-name="Path 172" transform="translate(-235.139 -158.567)"/>
        </g>
        <g id="prefix__freepik--Table--inject-31" transform="translate(790.336 447.776)">
            <path id="prefix__Path_173" d="M147.476 438.88h1.8a1.2 1.2 0 0 0 1.2-1.2L160.34 289h-7.428l-6.6 148.512a1.2 1.2 0 0 0 1.164 1.368z" class="prefix__cls-7" data-name="Path 173" transform="translate(-118.076 -285.976)"/>
            <path id="prefix__Path_174" d="M147.476 438.88h1.8a1.2 1.2 0 0 0 1.2-1.2L160.34 289h-7.428l-6.6 148.512a1.2 1.2 0 0 0 1.164 1.368z" class="prefix__cls-14" data-name="Path 174" transform="translate(-118.076 -285.976)"/>
            <path id="prefix__Path_175" d="M130.476 438.88h1.8a1.2 1.2 0 0 0 1.2-1.2L143.34 289h-7.44l-6.588 148.512a1.2 1.2 0 0 0 1.164 1.368z" class="prefix__cls-7" data-name="Path 175" transform="translate(-121.476 -285.976)"/>
            <path id="prefix__Path_176" d="M130.476 438.88h1.8a1.2 1.2 0 0 0 1.2-1.2L143.34 289h-7.44l-6.588 148.512a1.2 1.2 0 0 0 1.164 1.368z" class="prefix__cls-14" data-name="Path 176" transform="translate(-121.476 -285.976)"/>
            <path id="prefix__Path_177" d="M342.074 438.88h-1.8a1.2 1.2 0 0 1-1.2-1.2L329.21 289h7.428l6.6 148.512a1.2 1.2 0 0 1-1.164 1.368z" class="prefix__cls-7" data-name="Path 177" transform="translate(-81.494 -285.976)"/>
            <path id="prefix__Path_178" d="M342.074 438.88h-1.8a1.2 1.2 0 0 1-1.2-1.2L329.21 289h7.428l6.6 148.512a1.2 1.2 0 0 1-1.164 1.368z" class="prefix__cls-14" data-name="Path 178" transform="translate(-81.494 -285.976)"/>
            <path id="prefix__Path_179" d="M359.074 438.88h-1.8a1.2 1.2 0 0 1-1.2-1.2L346.21 289h7.44l6.588 148.512a1.2 1.2 0 0 1-1.164 1.368z" class="prefix__cls-7" data-name="Path 179" transform="translate(-78.094 -285.976)"/>
            <path id="prefix__Path_180" d="M359.074 438.88h-1.8a1.2 1.2 0 0 1-1.2-1.2L346.21 289h7.44l6.588 148.512a1.2 1.2 0 0 1-1.164 1.368z" class="prefix__cls-14" data-name="Path 180" transform="translate(-78.094 -285.976)"/>
            <path id="prefix__Rectangle_42" d="M0 0H289.56V3.06H0z" class="prefix__cls-7" data-name="Rectangle 42"/>
        </g>
        <g id="prefix__freepik--character-1--inject-31" transform="translate(740.999 314.198)">
            <path id="prefix__Path_181" d="M121.416 247.284l-2.736 20.124c-.864 6.7-1.764 13.416-2.4 20.016-.084.828-.144 1.632-.216 2.4l-.1 1.2a3.023 3.023 0 0 0 0-.6 2.593 2.593 0 0 0-.132-.564 2.927 2.927 0 0 0-.18-.42 1.848 1.848 0 0 0-.168-.276c-.216-.276-.24-.24-.18-.18a2.4 2.4 0 0 0 .408.348 12.657 12.657 0 0 0 1.584.924 64.254 64.254 0 0 0 8.82 3.276c6.288 1.908 12.9 3.6 19.428 5.172l-.744 5.724a143.765 143.765 0 0 1-20.8-2.148 60.649 60.649 0 0 1-10.692-2.82 23.1 23.1 0 0 1-2.964-1.392 13.028 13.028 0 0 1-1.68-1.14 9.4 9.4 0 0 1-1.908-2.04 7.931 7.931 0 0 1-.912-1.836 9.231 9.231 0 0 1-.288-1.2 12 12 0 0 1-.072-1.2v-1.332c0-.888 0-1.776.072-2.652.288-7.008.924-13.848 1.668-20.688s1.608-13.62 2.676-20.4z" class="prefix__cls-15" data-name="Path 181" transform="translate(-76.903 -161.082)"/>
            <path id="prefix__Path_182" d="M154.958 296.187l-4.4 4.02a3.42 3.42 0 0 1-3.78.552l-4.86-2.34s-7.2-.3-8.244-4.7l1.872-3.42 11.172-1.2a5.256 5.256 0 0 1 3.288.732l4.608 2.82a2.256 2.256 0 0 1 .348 3.54z" class="prefix__cls-15" data-name="Path 182" transform="translate(-71.265 -152.385)"/>
            <path id="prefix__Path_183" d="M129.922 212.56c1.2 6.912 2.112 19.524-2.832 24 0 0 12 6.312 19.956 17.328 8.4-6.7 1.38-16.692 1.38-16.692-7.608-2.052-7.2-7.728-5.748-13.02z" class="prefix__cls-15" data-name="Path 183" transform="translate(-72.581 -167.686)"/>
            <path id="prefix__Path_184" d="M153.268 238.28s-.636-5.856-3.828-8.748c-2.676-2.4-16.8-1.08-21.2-.588a2.46 2.46 0 0 0-1.92 1.368l-3.216 6.72z" class="prefix__cls-7" data-name="Path 184" transform="translate(-73.379 -164.57)"/>
            <path id="prefix__Path_185" fill="#fff" d="M153.268 238.28s-.636-5.856-3.828-8.748c-2.676-2.4-16.8-1.08-21.2-.588a2.46 2.46 0 0 0-1.92 1.368l-3.216 6.72z" data-name="Path 185" opacity="0.8" transform="translate(-73.379 -164.57)"/>
            <path id="prefix__Path_186" d="M117.385 234.045c-8.688 2.832-10.56 14.484-9.768 23.544l17.532 10.8s4.26-13.2 4.224-20.3c-.036-7.516-6.084-15.94-11.988-14.044z" class="prefix__cls-7" data-name="Path 186" transform="translate(-76.509 -163.443)"/>
            <path id="prefix__Path_187" d="M118.835 260.976a1.68 1.68 0 0 1-1.2-.468 1.751 1.751 0 0 1-.192-.252 1.1 1.1 0 0 1-.156-.288 2.192 2.192 0 0 1-.1-.3 1.38 1.38 0 0 1 0-.312 1.644 1.644 0 0 1 .48-1.2 1.68 1.68 0 0 1 2.3 0 1.644 1.644 0 0 1 .48 1.2 1.38 1.38 0 0 1 0 .312 1.2 1.2 0 0 1-.1.3 1.08 1.08 0 0 1-.144.288l-.2.252a1.632 1.632 0 0 1-1.168.468z" class="prefix__cls-3" data-name="Path 187" transform="translate(-74.562 -158.658)"/>
            <path id="prefix__Path_188" d="M117.243 260.689a1.632 1.632 0 0 1-1.044-1.464 1.608 1.608 0 0 1-1.764.264 1.644 1.644 0 0 1-.948-1.512 1.6 1.6 0 0 1-1.776.156 1.62 1.62 0 0 1-.852-1.56 1.632 1.632 0 0 1-1.788.06 1.632 1.632 0 0 1-.552-2.232 1.644 1.644 0 0 1 2.244-.552 1.68 1.68 0 0 1 .78 1.524 1.608 1.608 0 0 1 1.7-.108 1.644 1.644 0 0 1 .864 1.476 1.62 1.62 0 0 1 1.692-.2 1.632 1.632 0 0 1 .948 1.416 1.656 1.656 0 0 1 1.68-.3 1.632 1.632 0 0 1 .912 2.112 1.62 1.62 0 0 1-1.512 1.032 1.763 1.763 0 0 1-.588-.108z" class="prefix__cls-3" data-name="Path 188" transform="translate(-76.342 -159.475)"/>
            <path id="prefix__Path_189" d="M107.859 255.536a1.488 1.488 0 0 1-.324 0 1.2 1.2 0 0 1-.3-.1 1.08 1.08 0 0 1-.288-.144l-.24-.2a1.272 1.272 0 0 1-.2-.24c0-.1-.108-.192-.156-.288a2.888 2.888 0 0 1-.1-.3 2.94 2.94 0 0 1 0-.324 2.533 2.533 0 0 1 0-.312 3.1 3.1 0 0 1 .1-.312 1.2 1.2 0 0 1 .156-.276 1.881 1.881 0 0 1 .2-.252l.24-.2a1.606 1.606 0 0 1 .288-.144l.3-.1a1.68 1.68 0 0 1 1.464.444 1.886 1.886 0 0 1 .2.252 2.052 2.052 0 0 1 .156.276 1.5 1.5 0 0 1 .084.312 1.308 1.308 0 0 1 0 .312 1.488 1.488 0 0 1 0 .324 1.4 1.4 0 0 1-.084.3c0 .1-.1.192-.156.288a1.272 1.272 0 0 1-.2.24 1.644 1.644 0 0 1-1.14.444z" class="prefix__cls-3" data-name="Path 189" transform="translate(-76.75 -159.734)"/>
            <path id="prefix__Path_190" d="M171.827 251.273c-.732 9.984-2.952 26.784-8.4 55.08l-46.968-1.392c1.2-17.34-.636-30.264-4.884-60.612a9.876 9.876 0 0 1 8.772-11.172c3.012-.312 6.444-.564 9.888-.636a150 150 0 0 1 21.336.636c2.28.276 4.644.648 6.9 1.032a16.1 16.1 0 0 1 13.356 17.064z" class="prefix__cls-7" data-name="Path 190" transform="translate(-75.702 -163.715)"/>
            <path id="prefix__Path_191" d="M149.7 202.3c.108.924.7 1.62 1.3 1.536s1.008-.876.9-1.8-.7-1.62-1.3-1.548-1.005.855-.9 1.812z" class="prefix__cls-10" data-name="Path 191" transform="translate(-68.062 -170.101)"/>
            <path id="prefix__Path_192" d="M150.23 200.692l2.148-.912s-.936 1.872-2.148.912z" class="prefix__cls-10" data-name="Path 192" transform="translate(-67.953 -170.242)"/>
            <path id="prefix__Path_193" fill="#630f0f" d="M150 203.17a25.02 25.02 0 0 0 4.008 5.52 4 4 0 0 1-3.228 1.02z" data-name="Path 193" transform="translate(-67.999 -169.564)"/>
            <path id="prefix__Path_194" d="M150.433 195.353a.564.564 0 0 0 0-.552.552.552 0 0 0-.732-.252 5.424 5.424 0 0 0-3.12 3.912.545.545 0 1 0 1.08.144 4.368 4.368 0 0 1 2.508-3.072.456.456 0 0 0 .264-.18z" class="prefix__cls-10" data-name="Path 194" transform="translate(-68.684 -171.299)"/>
            <path id="prefix__Path_195" d="M123.108 204.91c2.064 11.292 2.7 16.116 9.144 21.276 9.7 7.752 23.124 2.748 24.48-8.94 1.2-10.524-2.4-27.228-14.04-30.42a15.672 15.672 0 0 0-19.584 18.084z" class="prefix__cls-15" data-name="Path 195" transform="translate(-73.435 -172.947)"/>
            <path id="prefix__Path_196" d="M150.34 210.3c1.9 6.2 6.432 21.2-3.6 24.552-7.836 2.616-32.4 4.7-35.22-9.684-2.92-14.868 10.344-25.468 10.344-25.468s-10.512-8.616-3.78-18c8.676-12.1 29.46-5.256 35.616 3.288 6.012 8.312-3.36 25.312-3.36 25.312z" class="prefix__cls-10" data-name="Path 196" transform="translate(-75.779 -175.165)"/>
            <path id="prefix__Path_197" d="M131.8 232.9a35.1 35.1 0 0 1-13.2-2.592c-5.568-2.4-8.82-6.108-9.408-10.728-1.968-15.684 12.624-24.3 12.78-24.384l.576 1c-.144.084-14.076 8.328-12.2 23.244.672 5.292 5.112 8.256 8.724 9.8 7.128 3.072 16.332 3.048 18.564 1.416l.684.936c-1.134.856-3.582 1.308-6.52 1.308z" class="prefix__cls-10" data-name="Path 197" transform="translate(-76.197 -171.158)"/>
            <path id="prefix__Path_198" d="M116.354 193.992c-.132 2-1.788 4.8 5.16 5.8s16.62.936 18.612-.732 3.936-5.676-.216-5.316-23.328-3.184-23.556.248z" class="prefix__cls-7" data-name="Path 198" transform="translate(-74.781 -171.702)"/>
            <path id="prefix__Path_199" d="M140.723 206.938a9.06 9.06 0 0 0 5.328 4.356c3.024.888 4.584-1.812 3.78-4.692-.732-2.592-3.192-6.18-6.24-5.808s-4.224 3.564-2.868 6.144z" class="prefix__cls-15" data-name="Path 199" transform="translate(-69.966 -170.044)"/>
            <path id="prefix__Path_200" d="M202.538 408.228l11.136-.216-5.388-27.792-11.136.2z" class="prefix__cls-15" data-name="Path 200" transform="translate(-58.569 -134.154)"/>
            <path id="prefix__Path_201" d="M210.006 393.47c2.94 11.1 13.776 22.8 13.776 22.8l-15.456-3.936-6.756-9.6 1.2-2.544z" class="prefix__cls-15" data-name="Path 201" transform="translate(-57.685 -131.504)"/>
            <path id="prefix__Path_202" d="M199.451 398.142a23.57 23.57 0 0 0 .228 3.888c.66 4.584 2.676 16.8 2.676 16.8h1.056a108.5 108.5 0 0 1-.852-11.208c.144-3.012 2.088 2.316 4.44 5.34s6.588 5.772 13.44 6c8.016.252 11.22-.084 8.652-2.088s-8.04-3.3-8.04-3.3a24.372 24.372 0 0 1-10.8-9.06 28.271 28.271 0 0 0-9.948-8.6c-.672.032-.803 1.304-.852 2.228z" class="prefix__cls-10" data-name="Path 202" transform="translate(-58.11 -131.016)"/>
            <path id="prefix__Path_203" d="M236.432 375.956l14.208.444-15.9-23.64-9.84 8.412z" class="prefix__cls-15" data-name="Path 203" transform="translate(-53.019 -139.646)"/>
            <path id="prefix__Path_204" d="M237.32 363.73c10.332 4.8 26.868 3.864 26.868 3.864l-13.44 10.8-11.532-.864-1.2-2.556z" class="prefix__cls-15" data-name="Path 204" transform="translate(-50.535 -137.452)"/>
            <path id="prefix__Path_205" d="M235.708 375.714a23.767 23.767 0 0 0 3 2.472c3.768 2.628 13.956 9.36 13.956 9.36l.648-.828a108.587 108.587 0 0 1-8.748-7c-2.136-2.184 2.988-.06 6.66.156s8.3-1.2 12.684-6.48c5.148-6.132 6.864-8.88 3.816-8.232s-7.392 4.056-7.392 4.056A21.6 21.6 0 0 1 247 371.549a25 25 0 0 0-12.468 1.932c-.324.6.48 1.536 1.176 2.233z" class="prefix__cls-10" data-name="Path 205" transform="translate(-51.107 -137.183)"/>
            <path id="prefix__Path_206" d="M146.653 293.886s76.032-11.22 83.88 8.244c13.7 33.912 33.036 72.768 33.036 72.768l-9.336 7.728s-33.156-30.7-44.94-64.8c-14.088 4.56-58.908 19.2-75.324 19.2-17.532 0-24.7-14.94-18.36-39.768a4.992 4.992 0 0 1 4.8-3.732c11.124.108 26.244.36 26.244.36z" class="prefix__cls-10" data-name="Path 206" transform="translate(-75.332 -152.064)"/>
            <path id="prefix__Path_207" d="M152.936 303.342s62.4-1.872 62.94 20.232c.864 36.564 11.172 88.956 11.172 88.956l-11.388 1.056s-18.612-41.676-23.532-77.364c-22.224 1.44-42.72.444-59.136.444-18.4 0-19.92-20.2-2.016-43.776 10.956-.024 21.96 10.452 21.96 10.452z" class="prefix__cls-10" data-name="Path 207" transform="translate(-74.331 -151.62)"/>
            <path id="prefix__Path_208" d="M115.316 290.611l-1.308 4.14c-.18.324.192.66.744.684l48.336 1.428c.42 0 .78-.18.816-.444l.552-4.188c0-.3-.324-.552-.792-.564l-47.556-1.416a.852.852 0 0 0-.792.36z" class="prefix__cls-3" data-name="Path 208" transform="translate(-75.207 -152.149)"/>
            <path id="prefix__Path_209" d="M120.562 296.144h-1.272c-.252 0-.444-.144-.42-.3l.756-5.448c0-.156.252-.276.5-.276h1.274c.252 0 .444.144.42.3l-.756 5.436c-.022.18-.25.3-.502.288z" class="prefix__cls-10" data-name="Path 209" transform="translate(-74.225 -152.174)"/>
            <path id="prefix__Path_210" d="M152.172 297.094H150.9c-.252 0-.444-.144-.42-.3l.768-5.448c0-.156.24-.276.492-.276h1.272c.264 0 .444.144.432.3l-.768 5.448c-.024.168-.24.276-.504.276z" class="prefix__cls-10" data-name="Path 210" transform="translate(-67.903 -151.984)"/>
            <path id="prefix__Path_211" d="M136.372 296.614H135.1c-.264 0-.444-.144-.42-.3l.756-5.448c0-.156.252-.276.5-.276h1.272c.252 0 .444.144.42.3l-.756 5.448c-.02.168-.248.288-.5.276z" class="prefix__cls-10" data-name="Path 211" transform="translate(-71.063 -152.08)"/>
            <path id="prefix__Path_212" d="M186.464 251.61h30.348a1.464 1.464 0 0 1 1.4 1.86l-11.352 38.94a1.44 1.44 0 0 1-1.392 1.044h-30.36a1.44 1.44 0 0 1-1.392-1.86l11.34-38.94a1.452 1.452 0 0 1 1.408-1.044z" class="prefix__cls-7" data-name="Path 212" transform="translate(-63.267 -159.876)"/>
            <path id="prefix__Path_213" fill="#e0e0e0" d="M186.732 252.8l29.508.7-11.652 36.732-29.508-.708z" data-name="Path 213" transform="translate(-62.983 -159.638)"/>
            <path id="prefix__Path_214" d="M185.842 252.5l29.508.12-10.932 36.948-29.508-.12z" class="prefix__cls-3" data-name="Path 214" transform="translate(-63.017 -159.698)"/>
            <path id="prefix__Path_215" d="M163.776 253.14c0 1.2.18 2.616.276 3.948s.276 2.724.456 4.08q.5 4.068 1.344 8.016a57.365 57.365 0 0 0 2.136 7.56 35.184 35.184 0 0 0 1.464 3.456c.264.552.552 1.068.84 1.6l.444.732a5.328 5.328 0 0 0 1.908 1.116 23.568 23.568 0 0 0 3.456 1.044 68.139 68.139 0 0 0 8.028 1.2c5.544.54 11.34.8 17 .924l.576 5.748a108.62 108.62 0 0 1-17.892 2.028 65.091 65.091 0 0 1-9.348-.384 32.8 32.8 0 0 1-5.028-1.02 14.916 14.916 0 0 1-5.736-2.964 10.415 10.415 0 0 1-1.512-1.62l-.768-1.08c-.492-.72-.972-1.44-1.38-2.172a36.89 36.89 0 0 1-2.268-4.44 57.841 57.841 0 0 1-3.1-9.072 78.735 78.735 0 0 1-1.788-9.168c-.2-1.524-.36-3.06-.492-4.608s-.216-3.024-.24-4.8z" class="prefix__cls-15" data-name="Path 215" transform="translate(-67.567 -159.57)"/>
            <path id="prefix__Path_216" d="M161.084 238.568c7.56 7.116 5.736 25.656 5.736 25.656l-14.472 2.532s-8.94-13.3-5.8-18.864c3.268-5.808 10.452-13.176 14.536-9.324z" class="prefix__cls-7" data-name="Path 216" transform="translate(-68.823 -162.698)"/>
            <path id="prefix__Path_217" d="M163.6 261.687a1.668 1.668 0 0 1-1.2-.48 1.436 1.436 0 0 1-.2-.252 2.009 2.009 0 0 1-.144-.276 2.4 2.4 0 0 1-.048-.348 2.528 2.528 0 0 1 0-.312 1.632 1.632 0 0 1 .468-1.2 2.078 2.078 0 0 1 .252-.2 1.2 1.2 0 0 1 .276-.144 1.549 1.549 0 0 1 .312-.1 1.632 1.632 0 0 1 1.944 1.6 1.309 1.309 0 0 1 0 .312 1.344 1.344 0 0 1-.1.312 1.2 1.2 0 0 1-.144.276 1.44 1.44 0 0 1-.2.252 1.644 1.644 0 0 1-1.216.56z" class="prefix__cls-3" data-name="Path 217" transform="translate(-65.6 -158.529)"/>
            <path id="prefix__Path_218" d="M152.371 262.4a1.632 1.632 0 0 1 1.488-1.764 1.608 1.608 0 0 1 1.524.768 1.656 1.656 0 0 1 1.308-1.1 1.656 1.656 0 0 1 1.572.684 1.608 1.608 0 0 1 1.2-1.2 1.62 1.62 0 0 1 1.608.588 1.632 1.632 0 0 1 1.2-1.2 1.62 1.62 0 0 1 1.992 1.2 1.632 1.632 0 0 1-1.2 1.992 1.644 1.644 0 0 1-1.692-.564 1.644 1.644 0 0 1-1.272 1.26 1.656 1.656 0 0 1-1.656-.672 1.62 1.62 0 0 1-1.332 1.2 1.632 1.632 0 0 1-1.62-.756 1.644 1.644 0 0 1-1.4 1.1h-.132a1.644 1.644 0 0 1-1.588-1.536z" class="prefix__cls-3" data-name="Path 218" transform="translate(-67.526 -158.375)"/>
            <path id="prefix__Path_219" d="M151.538 263.777a1.484 1.484 0 0 1-.324 0l-.3-.1a2.147 2.147 0 0 1-.288-.144l-.24-.2a1.043 1.043 0 0 1-.2-.252 2.052 2.052 0 0 1-.156-.276 1.5 1.5 0 0 1-.084-.312 1.308 1.308 0 0 1 0-.312 1.488 1.488 0 0 1 0-.324 1.4 1.4 0 0 1 .084-.3c0-.1.1-.192.156-.288a1.272 1.272 0 0 1 .2-.24l.24-.2a1.3 1.3 0 0 1 .288-.144 1.2 1.2 0 0 1 .3-.1 1.608 1.608 0 0 1 1.464.444 1.272 1.272 0 0 1 .2.24c.06.1.108.192.156.288a2.9 2.9 0 0 1 .1.3 2.938 2.938 0 0 1 0 .324 2.532 2.532 0 0 1 0 .312 3.1 3.1 0 0 1-.1.312 2.057 2.057 0 0 1-.156.276 1.344 1.344 0 0 1-.2.252 1.644 1.644 0 0 1-1.14.444z" class="prefix__cls-3" data-name="Path 219" transform="translate(-68.013 -158.087)"/>
            <path id="prefix__Path_220" d="M207.17 276.278l-5.016-.336a5.592 5.592 0 0 0-3.528.948l-9.2 6.18-.072 3.9c2.952 3.432 9.48.36 9.48.36l6.06-.2a2.4 2.4 0 0 0 2.2-1.584l2.2-6a2.4 2.4 0 0 0-2.112-3.264z" class="prefix__cls-15" data-name="Path 220" transform="translate(-60.129 -155.012)"/>
            <path id="prefix__Path_221" d="M117.768 428.282h1.356a1.2 1.2 0 0 0 1.08-1.1l8.4-58.128h-6.348l-5.532 57.744a1.26 1.26 0 0 0 1.044 1.488z" class="prefix__cls-7" data-name="Path 221" transform="translate(-74.659 -136.388)"/>
            <path id="prefix__Path_222" d="M117.768 428.282h1.356a1.2 1.2 0 0 0 1.08-1.1l8.4-58.128h-6.348l-5.532 57.744a1.26 1.26 0 0 0 1.044 1.488z" class="prefix__cls-8" data-name="Path 222" transform="translate(-74.659 -136.388)"/>
            <path id="prefix__Path_223" d="M103.268 428.282h1.356a1.2 1.2 0 0 0 1.08-1.1l8.4-58.128h-6.348l-5.532 57.744a1.26 1.26 0 0 0 1.044 1.488z" class="prefix__cls-7" data-name="Path 223" transform="translate(-77.559 -136.388)"/>
            <path id="prefix__Path_224" d="M103.268 428.282h1.356a1.2 1.2 0 0 0 1.08-1.1l8.4-58.128h-6.348l-5.532 57.744a1.26 1.26 0 0 0 1.044 1.488z" class="prefix__cls-8" data-name="Path 224" transform="translate(-77.559 -136.388)"/>
            <path id="prefix__Path_225" d="M185.7 428.282h-1.368a1.2 1.2 0 0 1-1.068-1.1l-8.4-58.128h6.336l5.532 57.744a1.26 1.26 0 0 1-1.032 1.488z" class="prefix__cls-7" data-name="Path 225" transform="translate(-63.027 -136.388)"/>
            <path id="prefix__Path_226" d="M185.7 428.282h-1.368a1.2 1.2 0 0 1-1.068-1.1l-8.4-58.128h6.336l5.532 57.744a1.26 1.26 0 0 1-1.032 1.488z" class="prefix__cls-8" data-name="Path 226" transform="translate(-63.027 -136.388)"/>
            <path id="prefix__Path_227" d="M200.2 428.282h-1.368a1.2 1.2 0 0 1-1.068-1.1l-8.4-58.128h6.336l5.532 57.744a1.26 1.26 0 0 1-1.032 1.488z" class="prefix__cls-7" data-name="Path 227" transform="translate(-60.127 -136.388)"/>
            <path id="prefix__Path_228" d="M200.2 428.282h-1.368a1.2 1.2 0 0 1-1.068-1.1l-8.4-58.128h6.336l5.532 57.744a1.26 1.26 0 0 1-1.032 1.488z" class="prefix__cls-8" data-name="Path 228" transform="translate(-60.127 -136.388)"/>
            <path id="prefix__Path_229" d="M244.283 319.478h-42.72c-7.584-26.328-34.8-47.088-62.784-47.088h-13.872c-29.232 0-48.1 22.8-42.144 50.808a57.816 57.816 0 0 0 5.437 14.808l6.744 40.8c.864 5.268 5.076 9.54 9.384 9.54h128.591c4.308 0 8.52-4.272 9.384-9.54l8.22-49.824c.877-5.232-1.923-9.504-6.24-9.504z" class="prefix__cls-7" data-name="Path 229" transform="translate(-81.666 -155.72)"/>
            <path id="prefix__Path_230" d="M244.283 319.478h-42.72c-7.584-26.328-34.8-47.088-62.784-47.088h-13.872c-29.232 0-48.1 22.8-42.144 50.808a57.816 57.816 0 0 0 5.437 14.808l6.744 40.8c.864 5.268 5.076 9.54 9.384 9.54h128.591c4.308 0 8.52-4.272 9.384-9.54l8.22-49.824c.877-5.232-1.923-9.504-6.24-9.504z" class="prefix__cls-9" data-name="Path 230" transform="translate(-81.666 -155.72)"/>
        </g>
        <g id="prefix__freepik--bubble-speech--inject-31" transform="translate(850.984 225.8)">
            <path id="prefix__Rectangle_43" d="M0 0H9.804V1.2H0z" class="prefix__cls-7" data-name="Rectangle 43" transform="translate(37.26 60.78)"/>
            <path id="prefix__Path_231" d="M174.52 166.288h-1.2v-5.916a8.244 8.244 0 0 1 8.244-8.232h21.876v1.2h-21.876a7.044 7.044 0 0 0-7.044 7.032z" class="prefix__cls-7" data-name="Path 231" transform="translate(-173.32 -91.372)"/>
            <path id="prefix__Path_232" d="M180.864 155.65h109.4a4.032 4.032 0 0 1 4.032 4.032v42.9a4.044 4.044 0 0 1-4.044 4.044H180.864a4.044 4.044 0 0 1-4.044-4.044V159.67a4.032 4.032 0 0 1 4.044-4.02z" class="prefix__cls-7" data-name="Path 232" transform="translate(-172.62 -90.67)"/>
            <path id="prefix__Path_233" d="M284.012 180.054h-99.06a2.712 2.712 0 0 1-2.712-2.712 2.712 2.712 0 0 1 2.712-2.712h99.06a2.712 2.712 0 0 1 2.712 2.712 2.712 2.712 0 0 1-2.712 2.712z" class="prefix__cls-3" data-name="Path 233" transform="translate(-171.536 -86.874)"/>
            <path id="prefix__Path_234" d="M262.808 189.448h-77.856a2.712 2.712 0 0 1-2.712-2.712 2.712 2.712 0 0 1 2.712-2.736h77.856a2.712 2.712 0 0 1 2.712 2.712 2.712 2.712 0 0 1-2.712 2.736z" class="prefix__cls-3" data-name="Path 234" transform="translate(-171.536 -85)"/>
            <path id="prefix__Path_235" d="M218.36 170.664h-33.408a2.712 2.712 0 0 1-2.712-2.712 2.712 2.712 0 0 1 2.712-2.712h33.408a2.712 2.712 0 0 1 2.712 2.712 2.712 2.712 0 0 1-2.712 2.712z" class="prefix__cls-3" data-name="Path 235" transform="translate(-171.536 -88.752)"/>
            <path id="prefix__Path_236" d="M255.26 170.664h-33.408a2.712 2.712 0 0 1-2.712-2.712 2.712 2.712 0 0 1 2.712-2.712h33.408a2.712 2.712 0 0 1 2.712 2.712 2.712 2.712 0 0 1-2.712 2.712z" class="prefix__cls-3" data-name="Path 236" transform="translate(-164.156 -88.752)"/>
            <path id="prefix__Path_237" d="M182.24 195.422v13a3 3 0 0 0 4.8 2.4l19.92-15.408z" class="prefix__cls-7" data-name="Path 237" transform="translate(-171.536 -82.718)"/>
            <path id="prefix__Path_238" d="M341.718 102h-109.4a4.044 4.044 0 0 0-4.044 4.044v42.9a4.044 4.044 0 0 0 4.044 4.044h86.4l15.672 12.12a3 3 0 0 0 4.8-2.4v-9.744h2.46a4.044 4.044 0 0 0 4.044-4.044v-42.876a4.044 4.044 0 0 0-3.977-4.044z" class="prefix__cls-3" data-name="Path 238" transform="translate(-162.33 -101.4)"/>
            <path id="prefix__Path_239" d="M336.346 166.444a3.672 3.672 0 0 1-2.208-.756l-15.5-12h-86.22a4.656 4.656 0 0 1-4.644-4.644v-42.9a4.656 4.656 0 0 1 4.644-4.644h109.4a4.656 4.656 0 0 1 4.644 4.644v42.9a4.656 4.656 0 0 1-4.644 4.644h-1.86v9.144a3.6 3.6 0 0 1-3.6 3.6zM232.414 102.7a3.456 3.456 0 0 0-3.444 3.444v42.9a3.456 3.456 0 0 0 3.444 3.444h86.64l15.792 12.24a2.4 2.4 0 0 0 3.888-1.9V152.5h3.06a3.456 3.456 0 0 0 3.444-3.444v-42.912a3.456 3.456 0 0 0-3.444-3.444z" class="prefix__cls-7" data-name="Path 239" transform="translate(-162.43 -101.5)"/>
            <path id="prefix__Path_240" d="M275.732 126.412H327.6a2.712 2.712 0 0 0 2.712-2.712 2.724 2.724 0 0 0-2.712-2.7h-51.868a2.724 2.724 0 0 0-2.712 2.724 2.712 2.712 0 0 0 2.712 2.688z" class="prefix__cls-7" data-name="Path 240" transform="translate(-153.38 -97.6)"/>
            <path id="prefix__Path_241" d="M245.552 126.412h25.68a2.712 2.712 0 0 0 2.712-2.712 2.724 2.724 0 0 0-2.712-2.7h-25.68a2.724 2.724 0 0 0-2.712 2.724 2.712 2.712 0 0 0 2.712 2.688z" class="prefix__cls-7" data-name="Path 241" transform="translate(-159.416 -97.6)"/>
            <rect id="prefix__Rectangle_44" width="83.292" height="5.424" class="prefix__cls-7" data-name="Rectangle 44" rx="2.26" transform="rotate(180 88.464 20.04)"/>
            <path id="prefix__Path_242" d="M236.452 117.026h99a2.712 2.712 0 0 0 2.712-2.712 2.724 2.724 0 0 0-2.712-2.724h-99a2.724 2.724 0 0 0-2.712 2.724 2.712 2.712 0 0 0 2.712 2.712z" class="prefix__cls-7" data-name="Path 242" transform="translate(-161.236 -99.482)"/>
        </g>
    </g>
</svg>
