<?xml version="1.0" encoding="utf-8"?>
<!-- Generator: Adobe Illustrator 23.0.3, SVG Export Plug-In . SVG Version: 6.00 Build 0)  -->
<svg version="1.1" id="Layer_1" xmlns="http://www.w3.org/2000/svg" xmlns:xlink="http://www.w3.org/1999/xlink" x="0px" y="0px"
	 viewBox="0 0 64.62 62.26" style="enable-background:new 0 0 64.62 62.26;" xml:space="preserve">
<style type="text/css">
	.st0{fill:#FFFFFF;}
	.st1{fill:#DC0032;}
	.st2{fill:#0D1E7E;}
</style>
<g>
	<path class="st0" d="M58.99,28.56c-0.09-0.8-0.21-1.6-0.37-2.38h-8.75l6.85-5.84c-0.58-1.27-1.25-2.49-2.01-3.65l-11.21,9.5h-4.74
		l14.12-11.97c-0.43-0.52-0.88-1.02-1.35-1.51L37.46,24.65V4.91c-0.7-0.15-1.4-0.26-2.12-0.35v24H58.99z"/>
	<path class="st0" d="M35.34,58.69c0.72-0.09,1.42-0.21,2.12-0.35v-18.7l13.42,11.57c1.06-1.03,2.04-2.14,2.92-3.33l-11.36-9.81
		h4.74l8.34,7.2c0.3-0.53,0.59-1.06,0.86-1.61l-6.5-5.59h8.52c0.19-0.78,0.34-1.57,0.46-2.37H35.34V58.69z"/>
	<path class="st0" d="M28.98,4.5c-0.72,0.08-1.43,0.18-2.13,0.31l0.01,19.85L12.49,12.43c-0.92,0.93-1.77,1.92-2.55,2.97
		l12.69,10.79h-4.74l-9.64-8.2C7.87,18.64,7.51,19.31,7.19,20l7.26,6.19H5.14c-0.16,0.78-0.28,1.57-0.37,2.38h24.21V4.5z"/>
	<path class="st0" d="M26.86,58.45c0.7,0.13,1.41,0.23,2.12,0.31V35.69H4.9c0.12,0.8,0.28,1.59,0.46,2.37h9.08l-6.87,5.97
		c0.72,1.4,1.55,2.73,2.49,3.97l11.5-9.94h4.74L12.06,50.38c0.36,0.38,0.73,0.75,1.11,1.1l13.69-11.84V58.45z"/>
	<path class="st1" d="M43.5,26.19l11.21-9.5c-0.56-0.86-1.17-1.68-1.82-2.47L38.76,26.19H43.5z"/>
	<path class="st1" d="M42.43,38.06l11.36,9.81c0.62-0.84,1.19-1.71,1.72-2.61l-8.34-7.2H42.43z"/>
	<path class="st1" d="M22.63,26.19L9.94,15.4c-0.61,0.83-1.18,1.69-1.7,2.58l9.64,8.2H22.63z"/>
	<path class="st1" d="M21.55,38.06l-11.5,9.94c0.62,0.83,1.29,1.62,2,2.37L26.3,38.06H21.55z"/>
	<path class="st2" d="M51.54,12.71c-3.73-3.88-8.61-6.66-14.08-7.8v19.74L51.54,12.71z"/>
	<path class="st2" d="M26.85,4.81c-5.57,1.04-10.54,3.76-14.36,7.63l14.37,12.22L26.85,4.81z"/>
	<path class="st2" d="M58.62,26.19c-0.41-2.04-1.05-4-1.89-5.84l-6.85,5.84H58.62z"/>
	<path class="st2" d="M56.37,43.66c0.87-1.76,1.55-3.64,2.02-5.59h-8.52L56.37,43.66z"/>
	<path class="st2" d="M26.86,39.64L13.17,51.48c3.73,3.51,8.45,5.99,13.69,6.96V39.64z"/>
	<path class="st2" d="M37.46,58.34c5.15-1.07,9.78-3.6,13.42-7.13L37.46,39.64V58.34z"/>
	<path class="st2" d="M5.36,38.06c0.51,2.1,1.25,4.1,2.21,5.97l6.87-5.97H5.36z"/>
	<path class="st2" d="M7.19,20c-0.92,1.95-1.61,4.02-2.05,6.19h9.31L7.19,20z"/>
	<path class="st1" d="M28.98,58.76c0.95,0.1,1.92,0.15,2.9,0.15c1.17,0,2.33-0.07,3.46-0.22v-23h23.52c0.2-1.33,0.3-2.69,0.3-4.07
		c0-1.04-0.06-2.06-0.17-3.06H35.34v-24c-1.13-0.14-2.29-0.22-3.46-0.22c-0.98,0-1.95,0.05-2.9,0.15v24.07H4.77
		c-0.11,1.01-0.17,2.03-0.17,3.06c0,1.38,0.1,2.74,0.3,4.07h24.08V58.76z"/>
</g>
</svg>
