<svg xmlns="http://www.w3.org/2000/svg" width="447.141" height="424.867" viewBox="0 0 447.141 424.867">
    <defs>
        <style>
            .cls-2{fill:#ebebeb}.cls-16,.cls-3{fill:#fff}.cls-4{fill:#e0e0e0}.cls-6{fill:#f0f0f0}.cls-8{fill:#263238}.cls-9{fill:#ff8b7b}.cls-10,.cls-17{fill:#274483}.cls-12,.cls-17{opacity:.2}.cls-13{opacity:.3}.cls-16{opacity:.7}.cls-18{fill:#ffc3bd}
        </style>
    </defs>
    <g id="Group_1113" data-name="Group 1113" transform="translate(-459.43 -93)">
        <text id="_404" fill="#e7e7e7" data-name="404" font-family="SegoeUI-Semibold, Segoe UI" font-size="150px" font-weight="600" transform="translate(683 255)">
            <tspan x="-128.064" y="0">404</tspan>
        </text>
        <g id="_404_Error_Page_not_Found_with_people_connecting_a_plug-rafiki" data-name="404 Error Page not Found with people connecting a plug-rafiki" transform="translate(459.43 129.693)">
            <g id="freepik--background-complete--inject-36" transform="translate(0 55)">
                <path id="Rectangle_107" d="M0 0H447.141V0.224H0z" class="cls-2" data-name="Rectangle 107" transform="translate(0 292.788)"/>
                <path id="Path_1288" d="M215.984 307.9H43.307a5.106 5.106 0 0 1-5.1-5.106V60.062a5.106 5.106 0 0 1 5.1-5.062h172.677a5.106 5.106 0 0 1 5.106 5.106V302.8a5.106 5.106 0 0 1-5.106 5.1zM43.307 55.179a4.883 4.883 0 0 0-4.874 4.883V302.8a4.883 4.883 0 0 0 4.874 4.883h172.677a4.892 4.892 0 0 0 4.883-4.883V60.062a4.892 4.892 0 0 0-4.883-4.883z" class="cls-2" data-name="Path 1288" transform="translate(-4.04 -55)"/>
                <path id="Path_1289" d="M432.292 307.9H259.606a5.115 5.115 0 0 1-5.106-5.1V60.062A5.115 5.115 0 0 1 259.606 55h172.686a5.106 5.106 0 0 1 5.088 5.062V302.8a5.106 5.106 0 0 1-5.088 5.1zM259.606 55.179a4.892 4.892 0 0 0-4.883 4.883V302.8a4.892 4.892 0 0 0 4.883 4.883h172.686a4.892 4.892 0 0 0 4.883-4.883V60.062a4.892 4.892 0 0 0-4.883-4.883z" class="cls-2" data-name="Path 1289" transform="translate(-26.905 -55)"/>
                <path id="Rectangle_108" d="M0 0H28.232V0.224H0z" class="cls-2" data-name="Rectangle 108" transform="translate(374.105 301.301)"/>
                <path id="Rectangle_109" d="M0 0H29.878V0.224H0z" class="cls-2" data-name="Rectangle 109" transform="translate(270.01 298.878)"/>
                <path id="Rectangle_110" d="M0 0H55.83V0.224H0z" class="cls-2" data-name="Rectangle 110" transform="translate(354.663 309.609)"/>
                <path id="Rectangle_111" d="M0 0H17.197V0.224H0z" class="cls-2" data-name="Rectangle 111" transform="translate(46.914 308.107)"/>
                <path id="Rectangle_112" d="M0 0H27.088V0.224H0z" class="cls-2" data-name="Rectangle 112" transform="translate(72.079 308.107)"/>
                <path id="Rectangle_113" d="M0 0H48.792V0.224H0z" class="cls-2" data-name="Rectangle 113" transform="translate(169.538 304.333)"/>
                <path id="Path_1290" d="M266.236 118.13L215.28 169.1v169.721h178.847V118.13z" class="cls-3" data-name="Path 1290" transform="translate(-22.759 -61.674)"/>
                <path id="Path_1291" d="M394.069 339.245H215.213a.483.483 0 0 1-.483-.483V169.037a.474.474 0 0 1 .143-.34l50.974-50.974a.51.51 0 0 1 .34-.143h127.882a.483.483 0 0 1 .483.483v220.7a.483.483 0 0 1-.483.483zm-178.369-.956h177.886V118.555h-127.2L215.7 169.234z" class="cls-4" data-name="Path 1291" transform="translate(-22.701 -61.616)"/>
                <path id="Path_1292" fill="#e6e6e6" d="M215.28 169.1l53.469 6.895-2.513-57.86z" data-name="Path 1292" transform="translate(-22.759 -61.674)"/>
                <path id="Path_1293" d="M215.28 169.1h50.956v-50.97z" class="cls-3" data-name="Path 1293" transform="translate(-22.759 -61.674)"/>
                <path id="Path_1294" d="M266.177 169.511H215.2a.483.483 0 0 1-.447-.3.465.465 0 0 1 .107-.519l50.974-50.974a.5.5 0 0 1 .528-.107.492.492 0 0 1 .3.447v50.974a.483.483 0 0 1-.485.479zm-49.794-.957H265.7v-49.32z" class="cls-4" data-name="Path 1294" transform="translate(-22.7 -61.616)"/>
                <path id="Path_1295" d="M320.546 252.119l30.406-30.406a7.316 7.316 0 1 0-10.352-10.346l-30.4 30.405-30.406-30.406a7.316 7.316 0 1 0-10.347 10.347l30.406 30.406-30.406 30.406a7.316 7.316 0 0 0 10.347 10.347l30.406-30.406 30.4 30.405a7.316 7.316 0 0 0 10.347-10.347z" class="cls-6" data-name="Path 1295" transform="translate(-28.259 -71.304)"/>
                <path id="Path_1296" d="M218 224a9.149 9.149 0 0 1-12.931 0l-29.341-29.35 12.931-12.931L218 211.106A9.149 9.149 0 0 1 218 224z" class="cls-6" data-name="Path 1296" transform="translate(-18.578 -68.397)"/>
                <path id="Path_1297" d="M0 0h18.288v1.69a6.609 6.609 0 0 1-6.609 6.61h-5.07A6.609 6.609 0 0 1 0 1.69z" class="cls-4" data-name="Path 1297" transform="rotate(-45 231.047 -126.54)"/>
                <path id="Path_1298" d="M82.514 88.509a63.494 63.494 0 1 0 44.92-18.62 63.494 63.494 0 0 0-44.92 18.62zm86.173 86.173a58.334 58.334 0 1 1 0-82.5 58.334 58.334 0 0 1 0 82.5z" class="cls-4" data-name="Path 1298" transform="translate(-6.76 -56.574)"/>
                <path id="Path_1299" d="M172 172.244a2.128 2.128 0 0 1-1.5-3.631 45.143 45.143 0 0 0 0-63.753 2.128 2.128 0 1 1 3-3 49.382 49.382 0 0 1 0 69.754 2.129 2.129 0 0 1-1.5.635z" class="cls-4" data-name="Path 1299" transform="translate(-17.949 -59.878)"/>
                <path id="Path_1300" d="M83.179 150.665a2.119 2.119 0 0 1-2.066-1.637 49.516 49.516 0 0 1 6.8-38.552 2.138 2.138 0 1 1 3.577 2.343 45.3 45.3 0 0 0-6.26 35.235 2.111 2.111 0 0 1-1.574 2.558 2.361 2.361 0 0 1-.477.053z" class="cls-4" data-name="Path 1300" transform="translate(-8.435 -60.763)"/>
                <path id="Path_1301" d="M96.306 178.666a2.128 2.128 0 0 1-1.5-.626 49.006 49.006 0 0 1-9.39-13.092 2.124 2.124 0 1 1 3.81-1.878 45.17 45.17 0 0 0 8.585 11.966 2.128 2.128 0 0 1 0 3 2.155 2.155 0 0 1-1.5.626z" class="cls-4" data-name="Path 1301" transform="translate(-9.007 -66.3)"/>
                <path id="Path_1302" d="M.009 0h11.822v27.454a5.294 5.294 0 0 1-5.294 5.294H5.294A5.294 5.294 0 0 1 0 27.454V0z" class="cls-6" data-name="Path 1302" transform="rotate(45 -192.14 346.471)"/>
                <path id="Path_1303" d="M.018 0h11.8v.563a4.8 4.8 0 0 1-4.8 4.8H4.8A4.8 4.8 0 0 1 0 .563V0z" class="cls-4" data-name="Path 1303" transform="rotate(45 -192.15 346.485)"/>
                <path id="Path_1304" d="M281.644 269.7l-19.584 19.576a12.287 12.287 0 0 0 17.376 17.358l7.923-7.914a42.094 42.094 0 0 0-5.714-29.019z" class="cls-6" data-name="Path 1304" transform="translate(-27.355 -77.698)"/>
                <path id="Path_1305" d="M282.9 286.3a41.083 41.083 0 1 0-38.132 43.82A41.083 41.083 0 0 0 282.9 286.3zm-78.616 5.473a37.721 37.721 0 1 1 40.243 35.011 37.721 37.721 0 0 1-40.245-35.013z" class="cls-4" data-name="Path 1305" transform="translate(-21.231 -75.409)"/>
                <path id="Path_1306" d="M222.09 318.147a31.819 31.819 0 0 1-10.9-21.838 1.377 1.377 0 1 1 2.745-.188A29.189 29.189 0 0 0 245 323.173a1.371 1.371 0 1 1 .188 2.737 31.774 31.774 0 0 1-23.1-7.762z" class="cls-4" data-name="Path 1306" transform="translate(-22.326 -80.349)"/>
                <path id="Path_1307" d="M276.789 283.492a1.351 1.351 0 0 1-.42-.671 29.261 29.261 0 0 0-14.55-17.975 1.377 1.377 0 0 1 1.27-2.441 32.033 32.033 0 0 1 15.927 19.674 1.368 1.368 0 0 1-.957 1.69 1.4 1.4 0 0 1-1.27-.277z" class="cls-4" data-name="Path 1307" transform="translate(-27.606 -76.913)"/>
                <path id="Path_1308" d="M243.335 260.835a1.4 1.4 0 0 1-.465-.948 1.377 1.377 0 0 1 1.27-1.467 32.087 32.087 0 0 1 10.374.975 1.387 1.387 0 1 1-.706 2.683 29.046 29.046 0 0 0-9.47-.894 1.413 1.413 0 0 1-1.003-.349z" class="cls-4" data-name="Path 1308" transform="translate(-25.676 -76.497)"/>
            </g>
            <g id="freepik--Shadow--inject-36" transform="translate(50.178 367.927)">
                <ellipse id="freepik--path--inject-36" cx="173.392" cy="10.123" fill="#f5f5f5" rx="173.392" ry="10.123"/>
            </g>
            <g id="freepik--character-1--inject-36" transform="translate(61.425 127.706)">
                <path id="Path_1309" d="M137.46 144.867c-7.208 7.253 5.044 18.512-3.049 23.681 6.609 3.318 29.771 7.53 35.771-5.518-4.373-3.4-1.332-11.751-5.366-19.773-6.037-11.893-34.564-6.626-27.356 1.61z" class="cls-8" data-name="Path 1309" transform="translate(-75.635 -136.302)"/>
                <path id="Path_1310" d="M137.813 145.667c-2.245-.376-9.837 3.4-4.185 13.53 4.552 8.192.76 8.773.76 8.773s4.471.125 1.789-5.965c-2.844-6.505-4.177-13.244 1.636-16.338z" class="cls-8" data-name="Path 1310" transform="translate(-75.335 -137.289)"/>
                <path id="Path_1311" d="M194.335 214.263a2.2 2.2 0 0 0-2.951-.894l-.528.277c-.17.089-.492.3-.751.456s-.563.322-.85.465a13.9 13.9 0 0 1-1.744.733 10.981 10.981 0 0 1-3.443.653 9.453 9.453 0 0 1-3.175-.51 11.411 11.411 0 0 1-1.869-.894c-.769-1.7-1.5-3.416-2.128-5.187-.76-2.066-1.431-4.176-2.021-6.314s-1.109-4.3-1.538-6.475c-.224-1.082-.42-2.173-.6-3.255l-.237-1.618c-.08-.519-.152-1.109-.2-1.52V190a4.494 4.494 0 0 0-8.943.894c.063.76.116 1.341.2 1.976s.17 1.243.259 1.86c.2 1.234.42 2.45.671 3.667a68.744 68.744 0 0 0 1.878 7.154c.349 1.18.778 2.343 1.18 3.515s.894 2.316 1.4 3.452a64.713 64.713 0 0 0 3.318 6.7l.107.2a3.479 3.479 0 0 0 1.386 1.377 18.118 18.118 0 0 0 5.41 1.914 15.051 15.051 0 0 0 5.866-.125 15.471 15.471 0 0 0 7.235-3.926 7.37 7.37 0 0 0 .894-.948c.25-.331.554-.644.894-1.109a2.2 2.2 0 0 0 .277-2.334z" class="cls-9" data-name="Path 1311" transform="translate(-78.692 -141.551)"/>
                <path id="Path_1312" d="M203.58 208.25h-.259a5.571 5.571 0 0 0-4.471 2.093l-4.319 5.419v3.7c3.47 1.377 7.87-2.334 7.87-2.334l2.227-.563a3.121 3.121 0 0 0 2.334-3.47l-.322-2.173a3.112 3.112 0 0 0-3.06-2.672z" class="cls-9" data-name="Path 1312" transform="translate(-81.99 -143.908)"/>
                <path id="Path_1313" d="M171.882 184.68c2.889 2.969 3.067 11.831 3.067 11.831l-11.554 9.3s-4.749-13.146-2.119-17.787c2.224-3.934 6.924-7.124 10.606-3.344z" class="cls-10" data-name="Path 1313" transform="translate(-78.391 -141.237)"/>
                <g id="Group_1110" data-name="Group 1110" opacity="0.2" transform="translate(82.092 41.75)">
                    <path id="Path_1314" d="M171.882 184.68c2.889 2.969 3.067 11.831 3.067 11.831l-11.554 9.3s-4.749-13.146-2.119-17.787c2.224-3.934 6.924-7.124 10.606-3.344z" class="cls-3" data-name="Path 1314" transform="translate(-160.483 -182.987)"/>
                </g>
                <path id="Path_1315" d="M151.85 405.618l6.385.7.876-17.349-6.385-.706z" class="cls-9" data-name="Path 1315" transform="translate(-77.478 -162.938)"/>
                <path id="Path_1316" d="M159.143 403.79h-7.5a.581.581 0 0 0-.6.545l-.5 7.092a1.422 1.422 0 0 0 1.386 1.422h17.805c3.273 0 3.282-3.318 1.869-3.622-6.358-1.341-8.835-3.2-11.08-4.972a2.236 2.236 0 0 0-1.38-.465z" class="cls-8" data-name="Path 1316" transform="translate(-77.34 -164.58)"/>
                <path id="Path_1317" d="M159.157 388.977l-.456 8.943h-6.421l.492-9.649z" class="cls-12" data-name="Path 1317" transform="translate(-77.524 -162.939)"/>
                <path id="Path_1318" d="M161.183 233.932s5.527 46.261 5.527 66.83c-4.355 28.617-8.049 78.84-8.049 78.84l-8.836-.233s-4.015-54.694-.3-78.312c-4.761-21.157-10.645-69.987-10.645-69.987z" class="cls-8" data-name="Path 1318" transform="translate(-76.107 -146.32)"/>
                <path id="Path_1319" d="M144.408 248.67a26.389 26.389 0 0 0-3.058 1.592c1.216 9.131 2.817 20.622 4.516 31.228 2.898-8.728 1.334-27.919-1.458-32.82z" class="cls-12" data-name="Path 1319" transform="translate(-76.368 -148.181)"/>
                <path id="Path_1320" d="M74.53 387.909l5.267 3.676 9.086-14.809-5.267-3.676z" class="cls-9" data-name="Path 1320" transform="translate(-69.304 -161.336)"/>
                <path id="Path_1321" d="M80.512 390.859l-4.471-6.019a.572.572 0 0 0-.787-.152l-5.992 3.845a1.413 1.413 0 0 0-.313 1.958c1.869 2.549 1.9 2.567 4.257 5.732 1.458 1.941 4.364 5.849 6.367 8.54s4.623.653 4.015-.671c-2.683-5.893-2.683-8.943-2.629-11.84a2.271 2.271 0 0 0-.447-1.4z" class="cls-8" data-name="Path 1321" transform="translate(-68.686 -162.551)"/>
                <path id="Path_1322" d="M89.35 376.776l-4.677 7.637-5.643-3.076 5.062-8.236z" class="cls-12" data-name="Path 1322" transform="translate(-69.78 -161.336)"/>
                <path id="Path_1323" d="M108.976 384.572c-4.57 0-14.085 0-14.246-6.725-.125-5.276 6.4-7.467 12.037-7.736a4.758 4.758 0 0 1 4.981 4.525v.358c6.385-.3 10.517-1.7 12.028-4.078 3.407-5.366-3.121-19.218-9.426-32.605-7.423-15.748-15.829-33.589-15.99-50.679a4.758 4.758 0 0 1 4.713-4.8 4.767 4.767 0 0 1 4.758 4.713c.143 15.006 8.049 31.845 15.078 46.708 8.049 17.152 15.069 31.971 8.853 41.763-3.604 5.757-11.071 8.556-22.786 8.556z" class="cls-10" data-name="Path 1323" transform="translate(-71.439 -151.792)"/>
                <path id="Path_1324" d="M147.784 232.891s-15.256 52.87-22.706 72.043C110.645 330.027 86.7 368.428 86.7 368.428l-7.646-4.471s17.886-44.356 29.914-65.014c3.228-21.463 15.435-69.092 15.435-69.092z" class="cls-8" data-name="Path 1324" transform="translate(-69.782 -146.191)"/>
                <path id="Path_1325" d="M83.3 396.134a2.549 2.549 0 0 0 1.324 1.082.894.894 0 0 0 .894-.3.626.626 0 0 0 .2-.546c-.107-1.073-2.88-2.468-3.434-2.736a.143.143 0 0 0-.179.063.206.206 0 0 0 0 .224 13.217 13.217 0 0 0 1.2 2.209zm1.9 0a.742.742 0 0 1 .152.34.215.215 0 0 1-.072.188.617.617 0 0 1-.59.2c-.59-.116-1.368-1.073-2.119-2.585a9.426 9.426 0 0 1 2.629 1.824z" class="cls-10" data-name="Path 1325" transform="translate(-70.102 -163.506)"/>
                <path id="Path_1326" d="M82.056 393.842l.054.045c.894.492 3.219.894 3.729.152a.778.778 0 0 0-.045-.894c-.894-1.583-3.577.277-3.693.358a.215.215 0 0 0-.08.179.3.3 0 0 0 .036.161zm3.4-.519a.9.9 0 0 1 .072.1c.1.17.116.3.063.367-.3.429-2.012.277-3.014-.116.668-.404 2.233-1.218 2.877-.35z" class="cls-10" data-name="Path 1326" transform="translate(-70.096 -163.387)"/>
                <path id="Path_1327" d="M164.681 405.212a2.585 2.585 0 0 0 1.663-.42.894.894 0 0 0 .277-.894.671.671 0 0 0-.322-.492c-.894-.546-3.693.841-4.239 1.127a.152.152 0 0 0-.072.179.241.241 0 0 0 .17.152 12.453 12.453 0 0 0 2.523.348zm1.109-1.547a.679.679 0 0 1 .367.081c.045 0 .089.063.107.17a.608.608 0 0 1-.2.59c-.438.4-1.672.456-3.336.161a9.318 9.318 0 0 1 3.014-1z" class="cls-10" data-name="Path 1327" transform="translate(-78.549 -164.526)"/>
                <path id="Path_1328" d="M162.154 404.7h.063c.894-.411 2.638-2.048 2.352-2.9a.778.778 0 0 0-.715-.474c-1.789-.206-1.914 3.032-1.923 3.166a.2.2 0 0 0 .224.206zm1.61-3.041h.125c.188 0 .3.081.331.17.17.492-.975 1.789-1.9 2.352.08-.778.367-2.522 1.458-2.522z" class="cls-10" data-name="Path 1328" transform="translate(-78.544 -164.319)"/>
                <path id="Path_1329" d="M129.76 224.414l30.459 3.9c6.868-23.126 9.131-34.3 9.739-39.67a5.84 5.84 0 0 0-4.042-6.26c-1.789-.572-4.1-1.252-6.385-1.789-.778-.206-1.574-.393-2.352-.572a97.548 97.548 0 0 0-13.826-1.789c-.689-.063-1.368-.1-2.057-.134-1.35-.072-2.683-.089-3.9-.089a6.573 6.573 0 0 0-6.555 7.154c.241 2.683.429 5.178.572 7.467.34 5.366.447 9.658.367 13.414a115.686 115.686 0 0 1-2.021 18.369z" class="cls-10" data-name="Path 1329" transform="translate(-75.143 -140.711)"/>
                <g id="Group_1111" class="cls-13" data-name="Group 1111" transform="translate(54.617 37.299)">
                    <path id="Path_1330" d="M129.76 224.414l30.459 3.9c6.868-23.126 9.131-34.3 9.739-39.67a5.84 5.84 0 0 0-4.042-6.26c-1.789-.572-4.1-1.252-6.385-1.789-.778-.206-1.574-.393-2.352-.572a97.548 97.548 0 0 0-13.826-1.789c-.689-.063-1.368-.1-2.057-.134-1.35-.072-2.683-.089-3.9-.089a6.573 6.573 0 0 0-6.555 7.154c.241 2.683.429 5.178.572 7.467.34 5.366.447 9.658.367 13.414a115.686 115.686 0 0 1-2.021 18.369z" class="cls-3" data-name="Path 1330" transform="translate(-129.76 -178.01)"/>
                </g>
                <path id="Path_1331" fill="#274483" d="M131.957 207.613c4.024-5.2 5.482-11.161 4.176-14.443l-4.543 1.019c.367 5.348.465 9.659.367 13.424z" data-name="Path 1331" opacity="0.3" transform="translate(-75.336 -142.314)"/>
                <path id="Path_1332" d="M160.754 180.54c-.787-.206-1.574-.393-2.352-.572a98.95 98.95 0 0 0-13.835-1.789c-.689-.054-1.368-.089-2.048-.125L141.33 178l.894 1.565c.125.215 3.166 5.187 10.731 10.535l1.619 1.127 1.556-1.189a11.751 11.751 0 0 0 4.9-9.417z" class="cls-3" data-name="Path 1332" transform="translate(-76.366 -140.71)"/>
                <path id="Path_1333" d="M148.313 167.649c-.286 3.765-1.172 7.6-3.363 9.211 0 0 2.79 4.641 10.016 9.712a8.852 8.852 0 0 0 3.819-7.941c-4.811-1.789-4.471-5.124-2.441-10.445l-3.756-2.021a2.459 2.459 0 0 0-4.275 1.485z" class="cls-9" data-name="Path 1333" transform="translate(-76.749 -139.373)"/>
                <path id="Path_1334" d="M152.99 166.164a2.459 2.459 0 0 0-4.23 1.145 15.2 15.2 0 0 0 6.573 6.716 16.285 16.285 0 0 1 1.4-5.84z" class="cls-12" data-name="Path 1334" transform="translate(-77.152 -139.373)"/>
                <path id="Path_1335" d="M142.127 153.191c1.869 7.271 2.5 10.383 6.949 13.414 6.68 4.6 15.2.715 15.534-6.958.313-6.913-2.79-17.644-10.553-19.182a10.24 10.24 0 0 0-11.93 12.726z" class="cls-9" data-name="Path 1335" transform="translate(-76.412 -136.72)"/>
                <path id="Path_1336" d="M160.342 141.838a39.259 39.259 0 0 1-15.2 8.379s5.553 11.813-4.838 8.836c-3.014-10.061 0-15.283 2.683-17.743 8.26-2.683 14.073-3.577 17.355.528z" class="cls-8" data-name="Path 1336" transform="translate(-76.125 -136.59)"/>
                <path id="Path_1337" d="M141.747 162.3a5.491 5.491 0 0 0 3.076 2.844c1.789.644 2.853-.894 2.468-2.683-.349-1.6-1.708-3.872-3.577-3.756a2.459 2.459 0 0 0-1.967 3.6z" class="cls-9" data-name="Path 1337" transform="translate(-76.38 -138.67)"/>
                <path id="Path_1338" d="M129.3 227.819l-1.726 2.549c-.134.2.089.447.438.492l31.944 4.1c.277 0 .519-.072.563-.241l.626-2.683c0-.188-.179-.376-.474-.42l-30.853-3.953a.537.537 0 0 0-.518.156z" class="cls-10" data-name="Path 1338" transform="translate(-74.908 -145.958)"/>
                <path id="Path_1339" d="M133.513 231.819l-.823-.107c-.161 0-.277-.125-.25-.224l.841-3.5a.3.3 0 0 1 .34-.143l.832.107c.161 0 .277.116.25.224l-.841 3.488c-.027.111-.179.173-.349.155z" class="cls-8" data-name="Path 1339" transform="translate(-75.426 -145.979)"/>
                <path id="Path_1340" d="M161.023 235.34l-.823-.1c-.161 0-.277-.125-.25-.232l.841-3.488c0-.1.179-.17.34-.152l.832.107c.161 0 .277.125.25.224l-.841 3.5c-.027.101-.179.168-.349.141z" class="cls-8" data-name="Path 1340" transform="translate(-78.334 -146.352)"/>
                <path id="Path_1341" d="M147.272 233.58l-.823-.107c-.17 0-.286-.116-.259-.224l.841-3.488c0-.107.179-.17.349-.152l.823.107c.161 0 .277.125.259.224l-.85 3.5c-.018.096-.179.16-.34.14z" class="cls-8" data-name="Path 1341" transform="translate(-76.879 -146.166)"/>
                <path id="Path_1342" d="M156.1 154.225c.107.6.519 1.028.894.948s.617-.617.5-1.216-.528-1.028-.894-.948-.592.617-.5 1.216z" class="cls-8" data-name="Path 1342" transform="translate(-77.925 -138.067)"/>
                <path id="Path_1343" d="M163.657 152.774c.116.6.528 1.019.894.948s.617-.626.5-1.225-.528-1.019-.894-.948-.607.626-.5 1.225z" class="cls-8" data-name="Path 1343" transform="translate(-78.724 -137.913)"/>
                <path id="Path_1344" d="M164 151.548l1.359-.7s-.465 1.272-1.359.7z" class="cls-8" data-name="Path 1344" transform="translate(-78.763 -137.84)"/>
                <path id="Path_1345" fill="#ff5652" d="M161.66 154.42a16.571 16.571 0 0 0 2.871 3.407 2.6 2.6 0 0 1-2.057.814z" data-name="Path 1345" transform="translate(-78.515 -138.217)"/>
                <path id="Path_1346" d="M156.935 161.769a.179.179 0 0 0 .215.277 4.8 4.8 0 0 1 4.364 0 .179.179 0 0 0 .241-.063.188.188 0 0 0-.054-.25 5.169 5.169 0 0 0-4.713 0s.001.018-.053.036z" class="cls-8" data-name="Path 1346" transform="translate(-78.011 -138.93)"/>
                <path id="Path_1347" d="M153.424 152.019a.322.322 0 0 0 .125-.143 2.835 2.835 0 0 1 2.021-1.6.358.358 0 0 0 .313-.4.349.349 0 0 0-.393-.313 3.577 3.577 0 0 0-2.584 2 .358.358 0 0 0 .519.456z" class="cls-8" data-name="Path 1347" transform="translate(-77.586 -137.703)"/>
                <path id="Path_1348" d="M165.5 147.1l.045-.045a.358.358 0 0 0-.089-.5 3.577 3.577 0 0 0-3.237-.483.367.367 0 0 0-.2.465.358.358 0 0 0 .465.2 2.826 2.826 0 0 1 2.558.411.349.349 0 0 0 .458-.048z" class="cls-8" data-name="Path 1348" transform="translate(-78.551 -137.314)"/>
                <path id="Path_1349" d="M156.47 153l1.359-.689s-.529 1.26-1.359.689z" class="cls-8" data-name="Path 1349" transform="translate(-77.967 -137.994)"/>
                <path id="Path_1350" d="M103.547 286.877a4.758 4.758 0 0 1-4.758-4.713c-.125-12.7 4.1-23.421 12.234-31 10.007-9.336 25.612-13.674 43.963-12.225 12.869 1.019 21.123-2.111 30.674-5.75 1.574-.59 3.157-1.2 4.784-1.789a4.758 4.758 0 0 1 3.255 8.943c-1.583.572-3.121 1.163-4.65 1.744-9.739 3.7-19.8 7.521-34.814 6.34-15.65-1.243-28.689 2.2-36.719 9.694-6.26 5.795-9.309 13.852-9.211 23.958a4.758 4.758 0 0 1-4.713 4.8z" class="cls-10" data-name="Path 1350" transform="translate(-71.869 -146.324)"/>
                <path id="Path_1351" d="M0 0h20.381a6.412 6.412 0 0 1 6.412 6.412v22.974a6.412 6.412 0 0 1-6.412 6.414H0V0z" class="cls-10" data-name="Path 1351" transform="rotate(159.88 61.918 62.936)"/>
                <path id="Path_1352" d="M0 0h20.381a6.412 6.412 0 0 1 6.412 6.412v22.974a6.412 6.412 0 0 1-6.412 6.414H0V0z" class="cls-16" data-name="Path 1352" transform="rotate(159.88 61.918 62.936)"/>
                <path id="Path_1353" d="M203.837 214.471l8.54-3.121 12.305 33.607-8.54 3.13a5.16 5.16 0 0 1-1.27-1.967l-10.731-29.32a5.1 5.1 0 0 1-.304-2.329z" class="cls-17" data-name="Path 1353" transform="translate(-82.971 -144.236)"/>
                <path id="Rectangle_114" d="M0 0H0.894V5.956H0z" class="cls-10" data-name="Rectangle 114" transform="rotate(-20.12 287.483 -378.503)"/>
                <path id="Path_1354" d="M230.311 215.516l-3.014-8.245a7.3 7.3 0 0 0-6.841-4.767 7.154 7.154 0 0 0-2.486.438l-5.437 1.994-.313-.841 5.446-1.994a8.049 8.049 0 0 1 2.79-.492 8.21 8.21 0 0 1 7.682 5.366l3.014 8.245z" class="cls-10" data-name="Path 1354" transform="translate(-83.861 -143.206)"/>
                <rect id="Rectangle_115" width="18.547" height="41.933" class="cls-10" data-name="Rectangle 115" rx="5.62" transform="rotate(160 68.661 62.829)"/>
                <path id="Path_1355" d="M221.585 217.662a2.683 2.683 0 1 1-3.434-1.6 2.683 2.683 0 0 1 3.434 1.6z" class="cls-8" data-name="Path 1355" transform="translate(-84.3 -144.717)"/>
                <path id="Path_1356" d="M229.055 238.051a2.683 2.683 0 1 1-1.39-1.514 2.683 2.683 0 0 1 1.39 1.514z" class="cls-8" data-name="Path 1356" transform="translate(-85.09 -146.872)"/>
                <path id="Path_1357" d="M139.493 230.188l-.072-.08c-1.4-1.4-2.871-2.915-4.2-4.471s-2.638-3.112-3.828-4.722a44.184 44.184 0 0 1-3.175-4.927 25.686 25.686 0 0 1-1.726-3.819c.537-1.789 1.109-3.577 1.789-5.294.778-2.066 1.654-4.1 2.611-6.1s1.976-3.971 3.076-5.893c.537-.966 1.1-1.923 1.681-2.862l.894-1.377c.277-.447.608-.894.841-1.279l.1-.143a4.471 4.471 0 0 0-7.3-5.16c-.447.608-.787 1.091-1.145 1.619s-.68 1.055-1.019 1.583c-.653 1.055-1.288 2.119-1.9 3.2a70.649 70.649 0 0 0-3.282 6.653c-.5 1.127-.894 2.28-1.4 3.434a29.238 29.238 0 0 0-1.207 3.523 66.021 66.021 0 0 0-1.869 7.235v.206a3.577 3.577 0 0 0 .134 1.958 29.315 29.315 0 0 0 3.425 6.475 43.121 43.121 0 0 0 4.418 5.366 55.177 55.177 0 0 0 5 4.516 53.184 53.184 0 0 0 5.518 3.854 2.218 2.218 0 0 0 2.683-3.488z" class="cls-9" data-name="Path 1357" transform="translate(-73.93 -141.164)"/>
                <path id="Path_1358" d="M151.95 240.27l-.116-.233a5.545 5.545 0 0 0-3.909-3.037l-6.788-1.377-3.318 1.654c.358 3.72 5.67 5.947 5.67 5.947l1.511 1.723a3.13 3.13 0 0 0 4.149.492l1.789-1.279a3.112 3.112 0 0 0 1.011-3.89z" class="cls-9" data-name="Path 1358" transform="translate(-75.995 -146.801)"/>
                <path id="Path_1359" d="M134.271 178.584c-3.765 1.726-7.771 7.7-7.771 7.7l8.049 15.069s9.148-10.544 8.379-15.82c-.628-4.481-3.863-9.149-8.657-6.949z" class="cls-10" data-name="Path 1359" transform="translate(-74.798 -140.712)"/>
                <g id="Group_1112" class="cls-13" data-name="Group 1112" transform="translate(51.702 37.31)">
                    <path id="Path_1360" d="M134.271 178.584c-3.765 1.726-7.771 7.7-7.771 7.7l8.049 15.069s9.148-10.544 8.379-15.82c-.628-4.481-3.863-9.149-8.657-6.949z" class="cls-3" data-name="Path 1360" transform="translate(-126.5 -178.022)"/>
                </g>
            </g>
            <g id="freepik--character-2--inject-36" transform="translate(244.387 108.869)">
                <path id="Path_1361" d="M413.722 373.261c-7.879 0-15.623-1.619-19.379-6.519-17.778-23.251-17.617-70.022-17.465-115.282.089-24.369 2.012-47.4-.7-65.283-1.592-10.544-7.154-17.778-12.77-21.516-8.335-5.509-19.781-2.549-24.673-1.288a4.757 4.757 0 1 1-2.379-9.212c6.108-1.582 20.435-5.275 32.293 2.559 8 5.285 14.926 14.72 16.938 28.036 2.817 18.6.894 41.969.8 66.7-.152 43.668-.3 88.82 15.507 109.469 1.279 1.663 6.26 3.157 14.532 2.728.733 0 1.449-.08 2.155-.143a4.669 4.669 0 0 1-.483-2.084 4.758 4.758 0 0 1 4.758-4.758c10.4 0 15.873.894 16.929 5.652.3 1.368.465 4.8-4.561 7.154-3.75 1.766-12.711 3.787-21.502 3.787z" class="cls-10" data-name="Path 1361" transform="translate(-279.569 -119.113)"/>
                <path id="Path_1362" d="M305.723 401.58l-9.7-3.819 5.115-16.821 9.712 3.81z" class="cls-18" data-name="Path 1362" transform="translate(-275.682 -143.327)"/>
                <path id="Path_1363" d="M294.227 398.584l10.946 4.293a.671.671 0 0 1 .411.715l-1.073 6.814a1.118 1.118 0 0 1-1.52.85c-2.745-1.136-7.047-3.014-10.526-4.382-2.137-.841-6.206-2.182-9.166-3.345s-2.191-4.239-.894-4.024c5.893.948 8.147-.063 10.5-.939a1.788 1.788 0 0 1 1.322.018z" class="cls-8" data-name="Path 1363" transform="translate(-274.121 -145.178)"/>
                <path id="Path_1364" d="M311.14 384.759l-9.712-3.819-2.638 8.675 9.712 3.819z" class="cls-12" data-name="Path 1364" transform="translate(-275.975 -143.327)"/>
                <path id="Path_1365" d="M323.111 239.61s-8.782 43.408-12.135 64.817c-3.776 23.994-13.746 67.823-13.746 67.823l12.9 5.071s18.431-44.875 21-66.606c7.736-17.662 23.117-69.638 23.117-69.638z" class="cls-10" data-name="Path 1365" transform="translate(-275.81 -128.385)"/>
                <path id="Path_1366" d="M296.53 387.385l14.165 5.571 2.423-4.292-15.837-6.564z" class="cls-8" data-name="Path 1366" transform="translate(-275.736 -143.449)"/>
                <path id="Path_1367" d="M292.492 398.541a2.316 2.316 0 0 1-1.216-.894 1.109 1.109 0 0 1 0-1.02.554.554 0 0 1 .465-.358c.939-.1 2.683 2.191 2.853 2.459a.181.181 0 0 1-.179.277 9.105 9.105 0 0 1-1.923-.464zm-.474-1.869a.447.447 0 0 0-.233-.045c-.054 0-.116 0-.179.152a.716.716 0 0 0 0 .7 3.572 3.572 0 0 0 2.45 1.109 7.029 7.029 0 0 0-2.039-1.914z" class="cls-10" data-name="Path 1367" transform="translate(-275.167 -144.947)"/>
                <path id="Path_1368" d="M294.648 398.868a.143.143 0 0 1-.072-.054c-.572-.68-1.377-2.781-.894-3.506a.59.59 0 0 1 .707-.224.984.984 0 0 1 .626.492c.554.993-.072 3.085-.1 3.175a.188.188 0 0 1-.143.125.125.125 0 0 1-.125-.009zm-.3-3.416h-.072c-.233-.054-.286 0-.313.08-.268.429.17 1.95.68 2.781a4.311 4.311 0 0 0 0-2.54.626.626 0 0 0-.299-.321z" class="cls-10" data-name="Path 1368" transform="translate(-275.419 -144.818)"/>
                <path id="Path_1369" d="M346.54 269c-4.865 6.027-6.788 21.391-6.77 34.2 3.282-9.041 7.047-20.524 10.356-30.951z" class="cls-12" data-name="Path 1369" transform="translate(-280.307 -131.493)"/>
                <path id="Path_1370" d="M370.773 403.758h-10.427l-1.386-17.528h10.427z" class="cls-18" data-name="Path 1370" transform="translate(-282.336 -143.886)"/>
                <path id="Path_1371" d="M358.511 404.85h11.76a.653.653 0 0 1 .644.519l1.493 6.725a1.118 1.118 0 0 1-1.109 1.35c-2.969-.054-7.646-.233-11.384-.233-2.307 0-6.582.241-9.757.241s-3.577-3.139-2.3-3.425c5.84-1.279 7.575-3.032 9.435-4.713a1.842 1.842 0 0 1 1.218-.464z" class="cls-8" data-name="Path 1371" transform="translate(-281.091 -145.854)"/>
                <path id="Path_1372" d="M369.386 386.23H358.95l.724 9.041h10.436z" class="cls-12" data-name="Path 1372" transform="translate(-282.335 -143.886)"/>
                <path id="Path_1373" d="M340.29 240.22s5.777 48.372 6.993 65.783c1.69 24.235 8.227 72.079 8.227 72.079h13.861s1.484-48.864-1.02-70.6c3.452-18.968 2.361-65.8 2.361-65.8z" class="cls-10" data-name="Path 1373" transform="translate(-280.362 -128.45)"/>
                <path id="Path_1374" d="M356.544 394.1h15.221l.689-4.874-17.144-.326z" class="cls-8" data-name="Path 1374" transform="translate(-281.95 -144.168)"/>
                <path id="Path_1375" d="M356.783 405.953a2.307 2.307 0 0 1-1.458-.385 1.118 1.118 0 0 1-.376-.948.572.572 0 0 1 .313-.51c.841-.429 3.282 1.073 3.577 1.243a.179.179 0 0 1 .089.179.206.206 0 0 1-.143.152 8.94 8.94 0 0 1-2.002.269zm-1.127-1.565a.474.474 0 0 0-.233.045c-.045 0-.1.072-.107.206a.715.715 0 0 0 .241.653 3.631 3.631 0 0 0 2.683.134 7.225 7.225 0 0 0-2.558-1.037z" class="cls-10" data-name="Path 1375" transform="translate(-281.912 -145.768)"/>
                <path id="Path_1376" d="M358.935 405.477h-.089c-.778-.429-2.3-2.084-2.137-2.933a.581.581 0 0 1 .572-.465.957.957 0 0 1 .76.224c.894.724 1.064 2.906 1.073 3a.2.2 0 0 1-.08.17.206.206 0 0 1-.099.004zm-1.529-3.067h-.08c-.233 0-.25.143-.259.188-.1.492.894 1.789 1.645 2.343a4.346 4.346 0 0 0-.894-2.379.671.671 0 0 0-.411-.152z" class="cls-10" data-name="Path 1376" transform="translate(-282.097 -145.56)"/>
                <path id="Path_1377" d="M340.545 164.136l-8.353-.107c-2.808 0-5.6-.089-8.362-.134-.841 0-1.663-.054-2.5-.089.054 0 .089-.1.134-.143.59-.626 1.18-1.27 1.789-1.887q.456-.483.894-.939c.277-.3.635-.644.823-.894l.76-.966a4.623 4.623 0 0 0-4.847-7.315l-1.654.447c-.51.152-1.02.322-1.529.492-1 .349-1.985.733-2.96 1.154a43.9 43.9 0 0 0-5.679 3.023 40.806 40.806 0 0 0-5.321 4.051 35.25 35.25 0 0 0-4.74 5.284 8.11 8.11 0 0 0-.894 1.538 7.834 7.834 0 0 0 4.042 10.311l.814.358a34.3 34.3 0 0 0 5.688 1.878c1.7.438 3.309.724 4.892.993s3.13.483 4.668.671 3.058.331 4.579.456c3.032.268 6.036.4 9.032.492s5.929.089 9.041-.054a9.318 9.318 0 0 0-.3-18.628z" class="cls-18" data-name="Path 1377" transform="translate(-275.833 -119.071)"/>
                <path id="Path_1378" d="M348.174 181.817c-7.217 8.227-24.584 5.151-24.584 5.151l.957-20.5a90.321 90.321 0 0 1 18.118-2.1c10.195-.016 11.286 10.85 5.509 17.449z" class="cls-8" data-name="Path 1378" transform="translate(-278.597 -120.431)"/>
                <path id="Path_1379" d="M328.962 175.515c-.429 3.309-.894 7.762-1.172 13.754-3.765 19.048-5.169 32.543-1.842 42.389 2.629 3.246 36.889 2.62 43.051 1.994 3.577-8.853 3.953-34.269 4.373-55.633a12.314 12.314 0 0 0-10.24-12.359 82.713 82.713 0 0 0-23.359-.787 12.305 12.305 0 0 0-10.812 10.642z" class="cls-8" data-name="Path 1379" transform="translate(-278.648 -120.433)"/>
                <path id="Path_1380" d="M366.71 191.37c.116 6.51 4.838 16.911 10.15 22.187.322-5.5.528-11.465.689-17.483z" class="cls-12" data-name="Path 1380" transform="translate(-283.155 -123.286)"/>
                <path id="Path_1381" d="M395.668 201.573l-.3-.715a67.964 67.964 0 0 0-4.373-8.648c-1.592-2.683-3.309-5.214-5.088-7.655s-3.667-4.775-5.6-7.047c-.984-1.127-1.958-2.254-2.987-3.345l-1.547-1.628-1.645-1.663a9.318 9.318 0 0 0-13.486 12.851l.268.3 5.249 5.84c1.789 1.985 3.5 4.006 5.2 6.019.823 1.011 1.672 2.021 2.441 3.049s1.583 2.021 2.352 3.041c1.109 1.547 2.182 3.085 3.139 4.6a22.97 22.97 0 0 1-.554 2.263 64.993 64.993 0 0 1-2.263 6.385c-.894 2.209-1.842 4.471-2.826 6.7s-2.039 4.552-2.978 6.788l-.089.2a4.7 4.7 0 0 0 7.512 5.285 74.229 74.229 0 0 0 5.607-5.795 71.531 71.531 0 0 0 5.035-6.349c.8-1.118 1.556-2.28 2.307-3.488a40.413 40.413 0 0 0 2.137-3.8 35.547 35.547 0 0 0 1.878-4.4 20.024 20.024 0 0 0 1.145-6 6.7 6.7 0 0 0-.528-2.772z" class="cls-18" data-name="Path 1381" transform="translate(-282.262 -120.834)"/>
                <path id="Path_1382" d="M367.209 165.924c12.064 2.066 19.925 18.4 19.925 18.4l-14.541 15.636s-8.379-8.531-13.414-16.437c-5.428-8.603-.608-19.066 8.03-17.599z" class="cls-8" data-name="Path 1382" transform="translate(-282.117 -120.581)"/>
                <path id="Path_1383" d="M343.475 134.833c-2.021-3.389-2.683-8.049 1.02-12.8a3.756 3.756 0 0 1-3.684-1.789 22.169 22.169 0 0 1 14.389-5.004c10.821 0 11.626 4.176 11.259 7.029 7.4.474 12.806 19.728-5.965 23.135-10.741-11.313-17.019-10.571-17.019-10.571z" class="cls-8" data-name="Path 1383" transform="translate(-280.417 -115.237)"/>
                <path id="Path_1384" d="M368.643 122.687s3.014-3.076-.733-6.8a5.044 5.044 0 0 1 3.523 3.506c.528 2.167-.933 3.902-2.79 3.294z" class="cls-8" data-name="Path 1384" transform="translate(-283.282 -115.306)"/>
                <path id="Path_1385" d="M362.051 146.34c-.286 5.929-.823 12.672.17 17.4-1.538 2.424-5.473 5.214-12.52 5.84-2.5-1.422-5.813-4.9-4.659-6.689 3-1.923 4.266-7.744 3.407-12.1z" class="cls-18" data-name="Path 1385" transform="translate(-280.84 -118.525)"/>
                <path id="Path_1386" d="M359.046 147.59l-10.186 3.336a15.98 15.98 0 0 1 .045 5.616 13.673 13.673 0 0 0 8.836-4.534 5.652 5.652 0 0 0 1.306-4.418z" class="cls-12" data-name="Path 1386" transform="translate(-281.268 -118.657)"/>
                <path id="Path_1387" d="M364.745 134.31c-1.887 7.271-2.62 11.626-7.074 14.675-6.7 4.588-15.122-.554-15.453-8.236-.286-6.922 2.844-17.653 10.624-19.182a10.248 10.248 0 0 1 11.9 12.744z" class="cls-18" data-name="Path 1387" transform="translate(-280.564 -115.885)"/>
                <path id="Path_1388" d="M365.276 124.2c-3.193 2.271-7.154 11.894.894 15.757 7.23-6.349 5.357-15.757-.894-15.757z" class="cls-8" data-name="Path 1388" transform="translate(-282.598 -116.184)"/>
                <path id="Path_1389" d="M365.452 124.727c1.368-6.332-14.613-9.6-19.674-2.209-1.717 4.454 18.708 8.389 19.674 2.209z" class="cls-8" data-name="Path 1389" transform="translate(-280.932 -115.558)"/>
                <path id="Path_1390" d="M353.816 144.312a15.453 15.453 0 0 0-5.258-1.332.188.188 0 0 0-.188.2.259.259 0 0 0 .241.215 14.98 14.98 0 0 1 5.044 1.27.215.215 0 0 0 .277-.1.188.188 0 0 0-.116-.25z" class="cls-8" data-name="Path 1390" transform="translate(-281.217 -118.17)"/>
                <path id="Path_1391" d="M368.474 144.08a7.154 7.154 0 0 1-4.972 2.245c-2.5.054-3.139-2.334-1.932-4.373 1.091-1.789 3.7-4.078 5.974-3.166s2.504 3.586.93 5.294z" class="cls-18" data-name="Path 1391" transform="translate(-282.549 -117.704)"/>
                <path id="Path_1392" d="M354.313 135.559c-.116.6-.528 1.028-.894.948s-.608-.626-.492-1.225.528-1.019.894-.894.608.545.492 1.171z" class="cls-8" data-name="Path 1392" transform="translate(-281.695 -117.259)"/>
                <path id="Path_1393" d="M346.742 134.084c-.116.6-.528 1.019-.894.948s-.617-.626-.5-1.225.528-1.028.894-.948.58.626.5 1.225z" class="cls-8" data-name="Path 1393" transform="translate(-280.894 -117.099)"/>
                <path id="Path_1394" fill="#ed847e" d="M348.793 135a21.937 21.937 0 0 1-3.863 4.57c.894 1.189 2.871.957 2.871.957z" data-name="Path 1394" transform="translate(-280.853 -117.326)"/>
                <path id="Path_1395" d="M353.356 131.809a.385.385 0 0 1 .358.107 2.853 2.853 0 0 0 2.379 1.028.367.367 0 0 1 .411.3.349.349 0 0 1-.3.4 3.577 3.577 0 0 1-3.023-1.261.349.349 0 0 1 0-.5.455.455 0 0 1 .179-.08z" class="cls-8" data-name="Path 1395" transform="translate(-281.714 -116.988)"/>
                <path id="Path_1396" d="M344.538 129.42a.322.322 0 0 1-.188-.116.358.358 0 0 1 .063-.51 3.577 3.577 0 0 1 3.193-.689.367.367 0 0 1 .233.456.385.385 0 0 1-.456.224 2.853 2.853 0 0 0-2.531.572.313.313 0 0 1-.313.063z" class="cls-8" data-name="Path 1396" transform="translate(-280.783 -116.584)"/>
                <path id="Path_1397" d="M375.942 235.554l-7.682-.054 3.971 8.818s6.555-1.4 6.2-4.963z" class="cls-18" data-name="Path 1397" transform="translate(-283.319 -127.951)"/>
                <path id="Path_1398" d="M363.852 241.554l1.261 2.486a2.987 2.987 0 0 0 3.765 1.413l2.853-1.136-3.971-8.817-3.049 2.325a2.978 2.978 0 0 0-.859 3.729z" class="cls-18" data-name="Path 1398" transform="translate(-282.819 -127.951)"/>
                <path id="Path_1399" d="M310.9 220.479a4.767 4.767 0 0 1-3.407-8.049c3.416-3.523 6.5-6.26 9.22-8.648 6.564-5.786 8.827-8.049 8.612-12.386a43.572 43.572 0 0 0-1.7-7.888c-1.959-7.2-4.176-15.346-.376-21.883 2.039-3.515 5.5-5.92 10.293-7.154a4.757 4.757 0 1 1 2.379 9.212c-3.372.893-4.185 2.262-4.472 2.727-1.789 3.085-.063 9.47 1.333 14.595a49.676 49.676 0 0 1 2.021 9.927c.447 9.166-4.963 13.942-11.822 19.987-2.584 2.289-5.527 4.883-8.692 8.138a4.731 4.731 0 0 1-3.389 1.422z" class="cls-10" data-name="Path 1399" transform="translate(-276.757 -119.369)"/>
                <path id="Path_1400" d="M322.953 151.675l7.44-1.9-1.735 9.515s-6.7.206-7.2-3.327z" class="cls-18" data-name="Path 1400" transform="translate(-278.372 -118.888)"/>
                <path id="Path_1401" d="M336.467 154.814l-.567 2.486a3.121 3.121 0 0 1-3.47 2.388l-2.915-.4 1.735-9.515 3.416 1.476a3.121 3.121 0 0 1 1.801 3.565z" class="cls-18" data-name="Path 1401" transform="translate(-279.223 -118.888)"/>
                <rect id="Rectangle_116" width="4.919" height="41.933" class="cls-8" data-name="Rectangle 116" rx="2.459" transform="rotate(44.99 -86.143 77.606)"/>
                <rect id="Rectangle_117" width="4.919" height="41.933" class="cls-8" data-name="Rectangle 117" rx="2.459" transform="rotate(45 -95.817 101.051)"/>
                <path id="Path_1402" d="M0 0h26.283a6.412 6.412 0 0 1 6.412 6.412v22.974a6.412 6.412 0 0 1-6.412 6.414H0z" class="cls-10" data-name="Path 1402" transform="rotate(-45 119.995 35.62)"/>
                <path id="Path_1403" d="M0 0h26.283a6.412 6.412 0 0 1 6.412 6.412v22.974a6.412 6.412 0 0 1-6.412 6.414H0z" class="cls-16" data-name="Path 1403" transform="rotate(-45 119.995 35.62)"/>
                <path id="Path_1404" d="M290.819 214.56l-6.439 6.43 25.32 25.317 6.43-6.439a5.133 5.133 0 0 0-1.243-1.985L292.8 215.848a5.133 5.133 0 0 0-1.985-1.288z" class="cls-17" data-name="Path 1404" transform="translate(-274.452 -125.737)"/>
                <rect id="Rectangle_118" width="10.705" height="41.933" class="cls-10" data-name="Rectangle 118" rx="5.352" transform="rotate(-45 118.327 42.183)"/>
            </g>
        </g>
    </g>
</svg>
